<?xml version="1.0" encoding="UTF-8" standalone="no"?>
<svg
   xmlns:dc="http://purl.org/dc/elements/1.1/"
   xmlns:cc="http://creativecommons.org/ns#"
   xmlns:rdf="http://www.w3.org/1999/02/22-rdf-syntax-ns#"
   xmlns:svg="http://www.w3.org/2000/svg"
   xmlns="http://www.w3.org/2000/svg"
   xmlns:sodipodi="http://sodipodi.sourceforge.net/DTD/sodipodi-0.dtd"
   xmlns:inkscape="http://www.inkscape.org/namespaces/inkscape"
   inkscape:version="1.0 (4035a4fb49, 2020-05-01)"
   height="662"
   width="662"
   sodipodi:docname="malawi_circle_01.svg"
   version="1.1"
   viewBox="0 0 662 662"
   data-name="Layer 1"
   id="Layer_1">
  <metadata
     id="metadata86">
    <rdf:RDF>
      <cc:Work
         rdf:about="">
        <dc:format>image/svg+xml</dc:format>
        <dc:type
           rdf:resource="http://purl.org/dc/dcmitype/StillImage" />
      </cc:Work>
    </rdf:RDF>
  </metadata>
  <sodipodi:namedview
     inkscape:current-layer="Layer_1"
     inkscape:window-maximized="1"
     inkscape:window-y="-8"
     inkscape:window-x="-8"
     inkscape:cy="331"
     inkscape:cx="331"
     inkscape:zoom="0.69933333"
     showgrid="false"
     id="namedview84"
     inkscape:window-height="1009"
     inkscape:window-width="1920"
     inkscape:pageshadow="2"
     inkscape:pageopacity="0"
     guidetolerance="10"
     gridtolerance="10"
     objecttolerance="10"
     borderopacity="1"
     bordercolor="#666666"
     pagecolor="#ffffff" />
  <defs
     id="defs7">
    <style
       id="style2">.cls-1{fill:none;}.cls-2{clip-path:url(#clip-path);}.cls-3{fill:#ce1126;}.cls-4{fill:#339e35;}</style>
    <clipPath
       id="clip-path">
      <circle
         id="circle4"
         r="331"
         cy="500"
         cx="750"
         class="cls-1" />
    </clipPath>
  </defs>
  <g
     transform="translate(-419,-169)"
     id="g81"
     clip-path="url(#clip-path)"
     class="cls-2">
    <path
       id="path9"
       d="M 242.53,161.68 H 1257.47 V 838.32 H 242.53 Z" />
    <circle
       id="circle11"
       r="145.48"
       cy="418.79999"
       cx="750"
       class="cls-3" />
    <g
       id="a">
      <g
         id="b">
        <g
           id="c">
          <g
             id="d">
            <path
               d="m 750,188.75 c -4.89,0 -6.77,7.33 -6.77,14.66 0,17.67 2.17,26.9 6.77,53 4.6,-26.1 6.77,-35.33 6.77,-53 0,-7.33 -1.88,-14.66 -6.77,-14.66 z"
               class="cls-3"
               id="e" />
            <path
               d="m 770.05,189.63 c -4.87,-0.43 -7.38,6.71 -8,14 -1.54,17.6 -0.19,27 2.12,53.39 6.86,-25.6 9.82,-34.61 11.36,-52.21 0.62,-7.29 -0.61,-14.76 -5.48,-15.18 z"
               class="cls-3"
               data-name="e"
               id="e-2" />
          </g>
          <g
             data-name="d"
             id="d-2">
            <path
               d="m 790,192.24 c -4.81,-0.84 -7.94,6 -9.21,13.27 -3.07,17.4 -2.54,26.87 -2.54,53.37 9.06,-24.9 12.8,-33.62 15.87,-51 1.22,-7.24 0.64,-14.79 -4.12,-15.64 z"
               class="cls-3"
               data-name="e"
               id="e-3" />
            <path
               d="m 809.54,196.59 c -4.72,-1.27 -8.43,5.33 -10.33,12.41 -4.57,17.06 -4.87,26.55 -7.18,52.95 11.2,-24 15.68,-32.38 20.25,-49.45 1.9,-7.08 1.98,-14.65 -2.74,-15.91 z"
               class="cls-3"
               data-name="e"
               id="e-4" />
          </g>
        </g>
        <g
           data-name="c"
           id="c-2">
          <g
             data-name="d"
             id="d-3">
            <path
               d="m 828.68,202.62 c -4.59,-1.67 -8.86,4.58 -11.37,11.47 -6,16.6 -7.17,26 -11.77,52.12 13.25,-22.95 18.44,-30.89 24.49,-47.5 2.5,-6.88 3.25,-14.41 -1.35,-16.09 z"
               class="cls-3"
               data-name="e"
               id="e-5" />
            <path
               d="m 847.23,210.3 c -4.43,-2.06 -9.23,3.79 -12.33,10.43 -7.47,16 -9.41,25.3 -16.27,50.9 15.2,-21.71 21.07,-29.17 28.53,-45.18 3.1,-6.64 4.49,-14.08 0.07,-16.15 z"
               class="cls-3"
               data-name="e"
               id="e-6" />
          </g>
          <g
             data-name="d"
             id="d-4">
            <path
               d="m 865,219.57 c -4.23,-2.44 -9.53,3 -13.19,9.31 -8.84,15.3 -11.58,24.39 -20.64,49.29 17,-20.3 23.52,-27.22 32.36,-42.52 3.69,-6.35 5.73,-13.65 1.47,-16.08 z"
               class="cls-3"
               data-name="e"
               id="e-7" />
            <path
               d="m 882,230.35 c -4,-2.8 -9.74,2.13 -14,8.13 -10.13,14.48 -13.66,23.28 -24.86,47.3 18.74,-18.74 25.81,-25.06 36,-39.54 4.15,-6 6.86,-13.08 2.86,-15.89 z"
               class="cls-3"
               data-name="e"
               id="e-8" />
          </g>
        </g>
      </g>
      <g
         data-name="b"
         id="b-2">
        <g
           data-name="c"
           id="c-3">
          <g
             data-name="d"
             id="d-5">
            <path
               d="m 897.88,242.57 c -3.75,-3.14 -9.9,1.27 -14.61,6.88 -11.36,13.54 -15.64,22 -28.89,45 20.3,-17 27.9,-22.72 39.26,-36.26 4.71,-5.65 7.98,-12.48 4.24,-15.62 z"
               class="cls-3"
               data-name="e"
               id="e-9" />
            <path
               d="m 912.67,256.13 c -3.45,-3.45 -10,0.4 -15.15,5.58 C 885,274.21 880,282.27 864.83,304 c 21.71,-15.2 29.77,-20.21 42.26,-32.7 5.18,-5.2 9.04,-11.71 5.58,-15.17 z"
               class="cls-3"
               data-name="e"
               id="e-10" />
          </g>
          <g
             data-name="d"
             id="d-6">
            <path
               d="m 926.23,270.93 c -3.14,-3.75 -10,-0.47 -15.58,4.24 -13.53,11.35 -19.22,18.95 -36.25,39.25 23,-13.25 31.42,-17.53 45,-28.89 5.6,-4.71 9.97,-10.86 6.83,-14.6 z"
               class="cls-3"
               data-name="e"
               id="e-11" />
            <path
               d="m 938.45,286.85 c -2.8,-4 -9.89,-1.34 -15.89,2.87 -14.47,10.13 -20.8,17.2 -39.54,35.94 24,-11.2 32.83,-14.72 47.3,-24.86 6.01,-4.2 10.93,-9.95 8.13,-13.95 z"
               class="cls-3"
               data-name="e"
               id="e-12" />
          </g>
        </g>
        <g
           data-name="c"
           id="c-4">
          <g
             data-name="d"
             id="d-7">
            <path
               d="m 949.23,303.78 c -2.44,-4.24 -9.73,-2.2 -16.08,1.47 -15.3,8.83 -22.21,15.32 -42.51,32.36 24.9,-9.07 34,-11.81 49.28,-20.64 6.35,-3.67 11.76,-8.97 9.31,-13.19 z"
               class="cls-3"
               data-name="e"
               id="e-13" />
            <path
               d="m 958.5,321.58 c -2.06,-4.43 -9.5,-3 -16.15,0.06 -16,7.47 -23.46,13.33 -45.17,28.53 25.6,-6.85 34.88,-8.8 50.89,-16.26 6.65,-3.1 12.5,-7.91 10.43,-12.33 z"
               class="cls-3"
               data-name="e"
               id="e-14" />
          </g>
          <g
             data-name="d"
             id="d-8">
            <path
               d="m 966.18,340.12 c -1.67,-4.59 -9.2,-3.85 -16.09,-1.34 -16.6,6 -24.54,11.23 -47.49,24.48 26.1,-4.6 35.52,-5.72 52.12,-11.77 6.89,-2.49 13.13,-6.78 11.46,-11.37 z"
               class="cls-3"
               data-name="e"
               id="e-15" />
            <path
               d="m 972.22,359.26 c -1.27,-4.72 -8.84,-4.64 -15.92,-2.74 -17.06,4.57 -25.42,9.05 -49.44,20.25 26.4,-2.31 35.88,-2.61 52.95,-7.18 7.08,-1.9 13.67,-5.59 12.41,-10.33 z"
               class="cls-3"
               data-name="e"
               id="e-16" />
          </g>
        </g>
      </g>
    </g>
    <g
       data-name="a"
       id="a-2">
      <g
         data-name="b"
         id="b-3">
        <g
           data-name="c"
           id="c-5">
          <g
             data-name="d"
             id="d-9">
            <path
               d="m 523.44,378.86 c -0.85,4.81 6,7.93 13.26,9.2 17.4,3.07 26.87,2.55 53.38,2.55 -24.91,-9.07 -33.63,-12.8 -51,-15.87 -7.25,-1.27 -14.79,-0.74 -15.64,4.12 z"
               class="cls-3"
               data-name="e"
               id="e-17" />
            <path
               d="m 527.78,359.26 c -1.26,4.72 5.33,8.43 12.41,10.33 17.07,4.57 26.55,4.87 52.95,7.18 -24,-11.2 -32.38,-15.68 -49.44,-20.25 -7.08,-1.9 -14.65,-1.98 -15.92,2.74 z"
               class="cls-3"
               data-name="e"
               id="e-18" />
          </g>
          <g
             data-name="d"
             id="d-10">
            <path
               d="m 533.82,340.12 c -1.67,4.59 4.57,8.87 11.46,11.37 16.6,6.05 26,7.17 52.12,11.77 -22.95,-13.25 -30.89,-18.44 -47.49,-24.48 -6.91,-2.51 -14.42,-3.25 -16.09,1.34 z"
               class="cls-3"
               data-name="e"
               id="e-19" />
            <path
               d="m 541.5,321.58 c -2.07,4.43 3.78,9.23 10.43,12.33 16,7.46 25.29,9.41 50.89,16.26 -21.71,-15.2 -29.16,-21.06 -45.17,-28.53 -6.65,-3.1 -14.09,-4.49 -16.15,-0.06 z"
               class="cls-3"
               data-name="e"
               id="e-20" />
          </g>
        </g>
        <g
           data-name="c"
           id="c-6">
          <g
             data-name="d"
             id="d-11">
            <path
               d="m 550.77,303.78 c -2.45,4.23 3,9.52 9.31,13.19 15.3,8.83 24.38,11.57 49.28,20.64 -20.3,-17 -27.21,-23.53 -42.51,-32.36 -6.35,-3.67 -13.64,-5.71 -16.08,-1.47 z"
               class="cls-3"
               data-name="e"
               id="e-21" />
            <path
               d="m 561.55,286.85 c -2.8,4 2.12,9.75 8.13,13.95 14.47,10.14 23.28,13.66 47.3,24.86 -18.74,-18.74 -25.07,-25.81 -39.54,-35.94 -6,-4.21 -13.09,-6.87 -15.89,-2.87 z"
               class="cls-3"
               data-name="e"
               id="e-22" />
          </g>
          <g
             data-name="d"
             id="d-12">
            <path
               d="m 573.77,270.93 c -3.14,3.74 1.26,9.89 6.88,14.6 13.53,11.36 22,15.64 45,28.89 -17,-20.3 -22.72,-27.9 -36.25,-39.25 -5.67,-4.71 -12.49,-7.99 -15.63,-4.24 z"
               class="cls-3"
               data-name="e"
               id="e-23" />
            <path
               d="m 587.33,256.13 c -3.46,3.46 0.4,10 5.58,15.15 12.49,12.49 20.55,17.5 42.26,32.7 -15.2,-21.71 -20.2,-29.77 -32.69,-42.27 -5.19,-5.18 -11.7,-9.03 -15.15,-5.58 z"
               class="cls-3"
               data-name="e"
               id="e-24" />
          </g>
        </g>
      </g>
      <g
         data-name="b"
         id="b-4">
        <g
           data-name="c"
           id="c-7">
          <g
             data-name="d"
             id="d-13">
            <path
               d="m 602.12,242.57 c -3.74,3.14 -0.47,10 4.24,15.58 11.36,13.54 19,19.22 39.26,36.26 -13.25,-23 -17.53,-31.42 -28.89,-45 -4.73,-5.57 -10.86,-9.98 -14.61,-6.84 z"
               class="cls-3"
               data-name="e"
               id="e-25" />
            <path
               d="m 618.05,230.35 c -4,2.81 -1.34,9.89 2.86,15.89 10.14,14.48 17.21,20.8 36,39.54 -11.2,-24 -14.73,-32.82 -24.86,-47.3 -4.26,-6 -10,-10.93 -14,-8.13 z"
               class="cls-3"
               data-name="e"
               id="e-26" />
          </g>
          <g
             data-name="d"
             id="d-14">
            <path
               d="m 635,219.57 c -4.23,2.44 -2.19,9.73 1.47,16.08 8.84,15.3 15.33,22.22 32.36,42.52 -9.06,-24.9 -11.8,-34 -20.64,-49.29 -3.69,-6.34 -8.99,-11.75 -13.19,-9.31 z"
               class="cls-3"
               data-name="e"
               id="e-27" />
            <path
               d="m 652.77,210.3 c -4.42,2.07 -3,9.51 0.07,16.15 7.46,16 13.33,23.47 28.53,45.18 -6.86,-25.6 -8.8,-34.89 -16.27,-50.9 -3.1,-6.64 -7.9,-12.49 -12.33,-10.43 z"
               class="cls-3"
               data-name="e"
               id="e-28" />
          </g>
        </g>
        <g
           data-name="c"
           id="c-8">
          <g
             data-name="d"
             id="d-15">
            <path
               d="m 671.32,202.62 c -4.6,1.68 -3.85,9.21 -1.35,16.09 6,16.61 11.24,24.55 24.49,47.5 -4.6,-26.1 -5.73,-35.52 -11.77,-52.12 -2.51,-6.89 -6.78,-13.09 -11.37,-11.47 z"
               class="cls-3"
               data-name="e"
               id="e-29" />
            <path
               d="m 690.46,196.59 c -4.72,1.26 -4.64,8.83 -2.74,15.91 4.57,17.07 9,25.43 20.25,49.45 -2.31,-26.4 -2.61,-35.89 -7.18,-52.95 -1.9,-7.08 -5.61,-13.68 -10.33,-12.41 z"
               class="cls-3"
               data-name="e"
               id="e-30" />
          </g>
          <g
             data-name="d"
             id="d-16">
            <path
               d="m 710.05,192.24 c -4.81,0.85 -5.39,8.4 -4.12,15.62 3.07,17.4 6.81,26.12 15.87,51 0,-26.5 0.53,-36 -2.54,-53.37 -1.26,-7.2 -4.4,-14.09 -9.21,-13.25 z"
               class="cls-3"
               data-name="e"
               id="e-31" />
            <path
               d="m 730,189.63 c -4.87,0.42 -6.1,7.89 -5.46,15.19 1.54,17.6 4.5,26.61 11.36,52.21 2.31,-26.4 3.66,-35.79 2.12,-53.39 -0.69,-7.3 -3.2,-14.44 -8.02,-14.01 z"
               class="cls-3"
               data-name="e"
               id="e-32" />
          </g>
        </g>
      </g>
    </g>
    <path
       id="path75"
       d="m 242.53,370.31 h 1014.94 v 468 H 242.53 Z" />
    <path
       id="path77"
       d="M 242.53,387.23 H 1257.47 V 838.32 H 242.53 Z"
       class="cls-3" />
    <path
       id="path79"
       d="M 242.53,612.77 H 1257.47 V 838.32 H 242.53 Z"
       class="cls-4" />
  </g>
</svg>
