<?xml version="1.0" encoding="UTF-8" standalone="no"?>
<svg
   xmlns:dc="http://purl.org/dc/elements/1.1/"
   xmlns:cc="http://creativecommons.org/ns#"
   xmlns:rdf="http://www.w3.org/1999/02/22-rdf-syntax-ns#"
   xmlns:svg="http://www.w3.org/2000/svg"
   xmlns="http://www.w3.org/2000/svg"
   xmlns:sodipodi="http://sodipodi.sourceforge.net/DTD/sodipodi-0.dtd"
   xmlns:inkscape="http://www.inkscape.org/namespaces/inkscape"
   sodipodi:docname="map_01_white.svg"
   inkscape:version="1.0 (4035a4fb49, 2020-05-01)"
   id="svg8"
   version="1.1"
   viewBox="0 0 189.30751 284.70657"
   height="284.70657mm"
   width="189.30751mm">
  <defs
     id="defs2" />
  <sodipodi:namedview
     inkscape:window-maximized="1"
     inkscape:window-y="-8"
     inkscape:window-x="1912"
     inkscape:window-height="1017"
     inkscape:window-width="1920"
     showgrid="false"
     inkscape:document-rotation="0"
     inkscape:current-layer="layer2"
     inkscape:document-units="mm"
     inkscape:cy="132.94762"
     inkscape:cx="-181.2052"
     inkscape:zoom="0.355"
     inkscape:pageshadow="2"
     inkscape:pageopacity="0.0"
     borderopacity="1.0"
     bordercolor="#666666"
     pagecolor="#ffffff"
     id="base" />
  <metadata
     id="metadata5">
    <rdf:RDF>
      <cc:Work
         rdf:about="">
        <dc:format>image/svg+xml</dc:format>
        <dc:type
           rdf:resource="http://purl.org/dc/dcmitype/StillImage" />
        <dc:title></dc:title>
      </cc:Work>
    </rdf:RDF>
  </metadata>
  <g
     transform="translate(-0.01001141,-0.20525968)"
     inkscape:label="Layer 3"
     id="layer3"
     inkscape:groupmode="layer" />
  <g
     transform="translate(-8.9538988,-7.2854257)"
     style="opacity:1"
     inkscape:label="Layer 2"
     id="layer2"
     inkscape:groupmode="layer">
    <path
       d="m 103.80549,12.286164 c -54.155832,0 -91.880382,44.766475 -91.880382,92.276036 0,9.0493 1.431049,20.61048 3.951698,27.07003 l 68.36693,144.83508 c 7.817475,13.54028 30.500824,14.44687 38.727834,0.19729 l 66.98375,-142.06873 c 3.8061,-6.93084 5.33488,-18.90669 5.33488,-30.82445 0,-53.980222 -45.50596,-91.485256 -91.48471,-91.485256 z M 103.60765,71.95947 A 35.369,35.369 0 0 1 138.97674,107.328 35.369,35.369 0 0 1 103.60765,142.69708 35.369,35.369 0 0 1 68.238569,107.328 35.369,35.369 0 0 1 103.60765,71.95947 Z"
       style="fill:#ffffff;stroke:none;stroke-width:0.28058px;stroke-linecap:butt;stroke-linejoin:miter;stroke-opacity:1"
       id="path848" />
  </g>
</svg>
