<?xml version="1.0" encoding="UTF-8" standalone="no"?>
<svg
   xmlns:dc="http://purl.org/dc/elements/1.1/"
   xmlns:cc="http://creativecommons.org/ns#"
   xmlns:rdf="http://www.w3.org/1999/02/22-rdf-syntax-ns#"
   xmlns:svg="http://www.w3.org/2000/svg"
   xmlns="http://www.w3.org/2000/svg"
   xmlns:sodipodi="http://sodipodi.sourceforge.net/DTD/sodipodi-0.dtd"
   xmlns:inkscape="http://www.inkscape.org/namespaces/inkscape"
   version="1.1"
   id="svg896"
   width="133.33333"
   height="133.33333"
   viewBox="0 0 133.33333 133.33333"
   sodipodi:docname="social_instagram_01_white.svg"
   inkscape:version="1.0 (4035a4fb49, 2020-05-01)">
  <metadata
     id="metadata902">
    <rdf:RDF>
      <cc:Work
         rdf:about="">
        <dc:format>image/svg+xml</dc:format>
        <dc:type
           rdf:resource="http://purl.org/dc/dcmitype/StillImage" />
        <dc:title />
      </cc:Work>
    </rdf:RDF>
  </metadata>
  <defs
     id="defs900" />
  <sodipodi:namedview
     inkscape:document-rotation="0"
     pagecolor="#ffffff"
     bordercolor="#666666"
     borderopacity="1"
     objecttolerance="10"
     gridtolerance="10"
     guidetolerance="10"
     inkscape:pageopacity="0"
     inkscape:pageshadow="2"
     inkscape:window-width="1920"
     inkscape:window-height="1017"
     id="namedview898"
     showgrid="false"
     inkscape:zoom="4.38583"
     inkscape:cx="-17.217479"
     inkscape:cy="81.414368"
     inkscape:window-x="-8"
     inkscape:window-y="1072"
     inkscape:window-maximized="1"
     inkscape:current-layer="g2055" />
  <g
     style="display:inline"
     inkscape:label="Instagram"
     id="g2055"
     inkscape:groupmode="layer">
    <path
       style="color:#000000;font-style:normal;font-variant:normal;font-weight:normal;font-stretch:normal;font-size:medium;line-height:normal;font-family:sans-serif;font-variant-ligatures:normal;font-variant-position:normal;font-variant-caps:normal;font-variant-numeric:normal;font-variant-alternates:normal;font-variant-east-asian:normal;font-feature-settings:normal;font-variation-settings:normal;text-indent:0;text-align:start;text-decoration:none;text-decoration-line:none;text-decoration-style:solid;text-decoration-color:#000000;letter-spacing:normal;word-spacing:normal;text-transform:none;writing-mode:lr-tb;direction:ltr;text-orientation:mixed;dominant-baseline:auto;baseline-shift:baseline;text-anchor:start;white-space:normal;shape-padding:0;shape-margin:0;inline-size:0;clip-rule:nonzero;display:inline;overflow:visible;visibility:visible;opacity:1;isolation:auto;mix-blend-mode:normal;color-interpolation:sRGB;color-interpolation-filters:linearRGB;solid-color:#000000;solid-opacity:1;vector-effect:none;fill:#ffffff;fill-opacity:1;fill-rule:nonzero;stroke:none;stroke-width:3.89174;stroke-linecap:butt;stroke-linejoin:round;stroke-miterlimit:4;stroke-dasharray:none;stroke-dashoffset:0;stroke-opacity:1;color-rendering:auto;image-rendering:auto;shape-rendering:auto;text-rendering:auto;enable-background:accumulate;stop-color:#000000;stop-opacity:1"
       d="M 66.666016,2.9824219 C 31.346653,2.9824222 2.6640628,31.51128 2.6640625,66.666016 c 0,35.154734 28.6825895,63.685544 64.0019535,63.685544 35.319364,0 64.003904,-28.53081 64.003904,-63.685544 0,-35.154737 -28.68454,-63.6835958 -64.003904,-63.6835941 z m 0,3.890625 c 33.226877,-1.6e-6 60.111324,26.7523051 60.111324,59.7929691 0,33.040664 -26.884447,59.794924 -60.111324,59.794924 C 33.43914,126.46094 6.5546875,99.706678 6.5546875,66.666016 6.5546878,33.625353 33.43914,6.8730472 66.666016,6.8730469 Z"
       id="path2051" />
    <path
       d="m 54.498498,37.473347 c -9.388276,0 -17.025151,7.643244 -17.025151,17.033954 v 24.328184 c 0,9.388275 7.643246,17.02515 17.033953,17.02515 h 24.328185 c 9.388275,0 17.02515,-7.643236 17.02515,-17.033953 V 54.498498 c 0,-9.388276 -7.643247,-17.025151 -17.033954,-17.025151 z m 29.037829,8.662228 a 3.5454532,3.5454532 0 0 1 0.007,0 3.5454532,3.5454532 0 0 1 3.545879,3.54588 3.5454532,3.5454532 0 0 1 -3.545879,3.545878 3.5454532,3.5454532 0 0 1 -3.54588,-3.545878 3.5454532,3.5454532 0 0 1 3.538837,-3.54588 z m -16.870216,5.935034 c 8.050222,0 14.597262,6.545281 14.597262,14.595502 0,8.050223 -6.54704,14.597262 -14.597262,14.597262 -8.050222,0 -14.595502,-6.547039 -14.595502,-14.597262 0,-8.050221 6.54528,-14.595502 14.595502,-14.595502 z m 0,4.864581 a 9.7313053,9.7313053 0 0 0 -9.730921,9.730921 9.7313053,9.7313053 0 0 0 9.730921,9.732682 9.7313053,9.7313053 0 0 0 9.732682,-9.732682 9.7313053,9.7313053 0 0 0 -9.732682,-9.730921 z"
       style="fill:#ffffff;fill-opacity:1;stroke-width:2.43283"
       id="path883" />
  </g>
  <g
     style="opacity:1"
     inkscape:label="Instagram 1"
     id="layer1"
     inkscape:groupmode="layer" />
</svg>
