<?xml version="1.0" encoding="UTF-8" standalone="no"?>
<svg
   xmlns:dc="http://purl.org/dc/elements/1.1/"
   xmlns:cc="http://creativecommons.org/ns#"
   xmlns:rdf="http://www.w3.org/1999/02/22-rdf-syntax-ns#"
   xmlns:svg="http://www.w3.org/2000/svg"
   xmlns="http://www.w3.org/2000/svg"
   xmlns:sodipodi="http://sodipodi.sourceforge.net/DTD/sodipodi-0.dtd"
   xmlns:inkscape="http://www.inkscape.org/namespaces/inkscape"
   inkscape:version="1.0 (4035a4fb49, 2020-05-01)"
   sodipodi:docname="social_fire_02_black.svg"
   viewBox="0 0 133.33333 133.33333"
   height="133.33333"
   width="133.33333"
   id="svg896"
   version="1.1">
  <metadata
     id="metadata902">
    <rdf:RDF>
      <cc:Work
         rdf:about="">
        <dc:format>image/svg+xml</dc:format>
        <dc:type
           rdf:resource="http://purl.org/dc/dcmitype/StillImage" />
        <dc:title></dc:title>
      </cc:Work>
    </rdf:RDF>
  </metadata>
  <defs
     id="defs900" />
  <sodipodi:namedview
     inkscape:current-layer="layer1"
     inkscape:window-maximized="1"
     inkscape:window-y="-8"
     inkscape:window-x="-8"
     inkscape:cy="89.425531"
     inkscape:cx="112.75855"
     inkscape:zoom="2.192915"
     showgrid="false"
     id="namedview898"
     inkscape:window-height="1017"
     inkscape:window-width="1920"
     inkscape:pageshadow="2"
     inkscape:pageopacity="0"
     guidetolerance="10"
     gridtolerance="10"
     objecttolerance="10"
     borderopacity="1"
     bordercolor="#666666"
     pagecolor="#ffffff"
     inkscape:document-rotation="0" />
  <g
     inkscape:label="Share 1"
     id="layer1"
     inkscape:groupmode="layer">
    <circle
       r="62.359917"
       cy="66.666992"
       cx="66.666992"
       id="path851"
       style="display:inline;fill:#ffffff;fill-opacity:1;stroke:none;stroke-width:1.99937;stroke-linejoin:round;stroke-miterlimit:4;stroke-dasharray:none" />
  </g>
  <g
     inkscape:groupmode="layer"
     id="g1434"
     inkscape:label="Share"
     style="display:inline">
    <path
       id="path1430"
       d="M 66.666016,2.9824219 C 31.346653,2.9824222 2.6640628,31.51128 2.6640625,66.666016 c 0,35.154734 28.6825895,63.685544 64.0019535,63.685544 35.319364,0 64.003904,-28.53081 64.003904,-63.685544 0,-35.154737 -28.68454,-63.6835958 -64.003904,-63.6835941 z m 0,3.890625 c 33.226877,-1.6e-6 60.111324,26.7523051 60.111324,59.7929691 0,33.040664 -26.884447,59.794924 -60.111324,59.794924 C 33.43914,126.46094 6.5546875,99.706678 6.5546875,66.666016 6.5546878,33.625353 33.43914,6.8730472 66.666016,6.8730469 Z"
       style="color:#000000;font-style:normal;font-variant:normal;font-weight:normal;font-stretch:normal;font-size:medium;line-height:normal;font-family:sans-serif;font-variant-ligatures:normal;font-variant-position:normal;font-variant-caps:normal;font-variant-numeric:normal;font-variant-alternates:normal;font-variant-east-asian:normal;font-feature-settings:normal;font-variation-settings:normal;text-indent:0;text-align:start;text-decoration:none;text-decoration-line:none;text-decoration-style:solid;text-decoration-color:#000000;letter-spacing:normal;word-spacing:normal;text-transform:none;writing-mode:lr-tb;direction:ltr;text-orientation:mixed;dominant-baseline:auto;baseline-shift:baseline;text-anchor:start;white-space:normal;shape-padding:0;shape-margin:0;inline-size:0;clip-rule:nonzero;display:inline;overflow:visible;visibility:visible;opacity:1;isolation:auto;mix-blend-mode:normal;color-interpolation:sRGB;color-interpolation-filters:linearRGB;solid-color:#000000;solid-opacity:1;vector-effect:none;fill:#000000;fill-opacity:1;fill-rule:nonzero;stroke:none;stroke-width:3.89174;stroke-linecap:butt;stroke-linejoin:round;stroke-miterlimit:4;stroke-dasharray:none;stroke-dashoffset:0;stroke-opacity:1;color-rendering:auto;image-rendering:auto;shape-rendering:auto;text-rendering:auto;enable-background:accumulate;stop-color:#000000;stop-opacity:1" />
    <g
       transform="matrix(2.0803754,0,0,1.8666469,-158.34312,-194.65063)"
       style="opacity:1;fill:#000000;fill-opacity:1;stroke:none;stroke-opacity:1"
       id="g850">
      <path
         id="path852"
         d="m 105.26637,157.1436 c -6.25154,-1.48703 -9.07143,-5.56831 -9.07143,-12.18974 0,-10.47603 9.30013,-13.05252 9.26042,-22.1116 6.18756,3.71825 8.73665,9.10413 8.88244,15.59152 1.58565,-1.54686 2.47735,-3.20938 2.55133,-5.00818 5.66415,7.76925 4.00494,22.49978 -5.95312,23.718 3.6656,-7.01565 -1.50919,-7.56658 -2.07887,-14.07962 -4.16594,2.83665 -6.88637,6.1867 -3.59077,14.07962 z"
         style="color:#000000;font-style:normal;font-variant:normal;font-weight:normal;font-stretch:normal;font-size:medium;line-height:normal;font-family:sans-serif;font-variant-ligatures:normal;font-variant-position:normal;font-variant-caps:normal;font-variant-numeric:normal;font-variant-alternates:normal;font-variant-east-asian:normal;font-feature-settings:normal;font-variation-settings:normal;text-indent:0;text-align:start;text-decoration:none;text-decoration-line:none;text-decoration-style:solid;text-decoration-color:#000000;letter-spacing:normal;word-spacing:normal;text-transform:none;writing-mode:lr-tb;direction:ltr;text-orientation:mixed;dominant-baseline:auto;baseline-shift:baseline;text-anchor:start;white-space:normal;shape-padding:0;shape-margin:0;inline-size:0;clip-rule:nonzero;display:inline;overflow:visible;visibility:visible;isolation:auto;mix-blend-mode:normal;color-interpolation:sRGB;color-interpolation-filters:linearRGB;solid-color:#000000;solid-opacity:1;vector-effect:none;fill:#000000;fill-opacity:1;fill-rule:nonzero;stroke:none;stroke-width:0.5;stroke-linecap:round;stroke-linejoin:round;stroke-miterlimit:4;stroke-dasharray:none;stroke-dashoffset:0;stroke-opacity:1;color-rendering:auto;image-rendering:auto;shape-rendering:auto;text-rendering:auto;enable-background:accumulate;stop-color:#000000;stop-opacity:1" />
      <path
         id="path854"
         d="m 105.46484,122.5918 a 0.250025,0.250025 0 0 0 -0.25976,0.25195 c 0.0195,4.44389 -2.24173,7.2835 -4.56446,10.37305 -2.322722,3.08954 -4.695308,6.42433 -4.695308,11.73632 0,3.34621 0.712454,6.08017 2.238282,8.16797 1.525827,2.08781 3.857756,3.51216 7.025386,4.26563 a 0.250025,0.250025 0 0 0 0.28711,-0.33984 c -1.63353,-3.91229 -1.7602,-6.64907 -0.99804,-8.75391 0.7235,-1.9981 2.30069,-3.44633 4.22265,-4.79297 0.38623,3.00968 1.69803,4.82509 2.54102,6.52539 0.44425,0.89604 0.74707,1.77861 0.72656,2.86914 -0.0205,1.09053 -0.36884,2.40149 -1.27344,4.13281 a 0.250025,0.250025 0 0 0 0.25196,0.36524 c 5.09792,-0.62366 8.08358,-4.72822 9.04882,-9.60352 0.96525,-4.87529 -0.0406,-10.55497 -2.92382,-14.50976 a 0.250025,0.250025 0 0 0 -0.45313,0.13672 c -0.064,1.55671 -0.84704,3.00111 -2.1289,4.38671 -0.30136,-6.26352 -2.88058,-11.54112 -8.92579,-15.17382 a 0.250025,0.250025 0 0 0 -0.11914,-0.0371 z m 0.1836,0.71484 c 5.85172,3.66762 8.29802,8.83937 8.43945,15.13281 a 0.250025,0.250025 0 0 0 0.42383,0.17383 c 1.4257,-1.39082 2.20919,-2.91822 2.45312,-4.54101 2.53431,3.79287 3.46118,9.07219 2.56055,13.62109 -0.90444,4.56816 -3.60702,8.25918 -8.1543,9.05469 0.72673,-1.51525 1.09721,-2.78107 1.11719,-3.84375 0.0224,-1.18946 -0.31683,-2.16683 -0.7793,-3.09961 -0.92492,-1.86556 -2.32434,-3.57005 -2.60351,-6.76172 a 0.250025,0.250025 0 0 0 -0.38867,-0.18555 c -2.09989,1.42985 -3.87186,3.01305 -4.6875,5.26563 -0.77571,2.14228 -0.57683,4.92273 0.86523,8.60742 -2.82807,-0.75794 -4.93773,-2.03121 -6.306639,-3.9043 -1.447003,-1.97995 -2.142579,-4.59782 -2.142579,-7.87305 0,-5.16403 2.27634,-8.35307 4.593748,-11.43554 2.23279,-2.96992 4.46393,-5.87723 4.60938,-10.21094 z"
         style="color:#000000;font-style:normal;font-variant:normal;font-weight:normal;font-stretch:normal;font-size:medium;line-height:normal;font-family:sans-serif;font-variant-ligatures:normal;font-variant-position:normal;font-variant-caps:normal;font-variant-numeric:normal;font-variant-alternates:normal;font-variant-east-asian:normal;font-feature-settings:normal;font-variation-settings:normal;text-indent:0;text-align:start;text-decoration:none;text-decoration-line:none;text-decoration-style:solid;text-decoration-color:#000000;letter-spacing:normal;word-spacing:normal;text-transform:none;writing-mode:lr-tb;direction:ltr;text-orientation:mixed;dominant-baseline:auto;baseline-shift:baseline;text-anchor:start;white-space:normal;shape-padding:0;shape-margin:0;inline-size:0;clip-rule:nonzero;display:inline;overflow:visible;visibility:visible;isolation:auto;mix-blend-mode:normal;color-interpolation:sRGB;color-interpolation-filters:linearRGB;solid-color:#000000;solid-opacity:1;vector-effect:none;fill:#000000;fill-opacity:1;fill-rule:nonzero;stroke:none;stroke-width:0.5;stroke-linecap:round;stroke-linejoin:round;stroke-miterlimit:4;stroke-dasharray:none;stroke-dashoffset:0;stroke-opacity:1;color-rendering:auto;image-rendering:auto;shape-rendering:auto;text-rendering:auto;enable-background:accumulate;stop-color:#000000;stop-opacity:1" />
    </g>
  </g>
</svg>
