<?xml version="1.0" encoding="UTF-8" standalone="no"?>
<svg
   xmlns:dc="http://purl.org/dc/elements/1.1/"
   xmlns:cc="http://creativecommons.org/ns#"
   xmlns:rdf="http://www.w3.org/1999/02/22-rdf-syntax-ns#"
   xmlns:svg="http://www.w3.org/2000/svg"
   xmlns="http://www.w3.org/2000/svg"
   xmlns:sodipodi="http://sodipodi.sourceforge.net/DTD/sodipodi-0.dtd"
   xmlns:inkscape="http://www.inkscape.org/namespaces/inkscape"
   inkscape:version="1.0 (4035a4fb49, 2020-05-01)"
   height="662"
   width="662"
   sodipodi:docname="ethiopia_circle_01.svg"
   version="1.1"
   viewBox="0 0 662 662"
   data-name="Layer 1"
   id="Layer_1">
  <metadata
     id="metadata30">
    <rdf:RDF>
      <cc:Work
         rdf:about="">
        <dc:format>image/svg+xml</dc:format>
        <dc:type
           rdf:resource="http://purl.org/dc/dcmitype/StillImage" />
      </cc:Work>
    </rdf:RDF>
  </metadata>
  <sodipodi:namedview
     inkscape:current-layer="Layer_1"
     inkscape:window-maximized="1"
     inkscape:window-y="-8"
     inkscape:window-x="-8"
     inkscape:cy="331"
     inkscape:cx="331"
     inkscape:zoom="0.69933333"
     showgrid="false"
     id="namedview28"
     inkscape:window-height="1009"
     inkscape:window-width="1920"
     inkscape:pageshadow="2"
     inkscape:pageopacity="0"
     guidetolerance="10"
     gridtolerance="10"
     objecttolerance="10"
     borderopacity="1"
     bordercolor="#666666"
     pagecolor="#ffffff" />
  <defs
     id="defs7">
    <style
       id="style2">.cls-1{fill:none;}.cls-2{clip-path:url(#clip-path);}.cls-3{fill:#138844;}.cls-4{fill:#f9da01;}.cls-5{fill:#d81f28;}.cls-6{fill:#294e9e;}.cls-7{fill:#010101;}</style>
    <clipPath
       id="clip-path">
      <circle
         id="circle4"
         r="331"
         cy="500"
         cx="750"
         class="cls-1" />
    </clipPath>
  </defs>
  <title
     id="title9">Flag-of-Ethiopia</title>
  <g
     transform="translate(-419,-169)"
     id="g25"
     clip-path="url(#clip-path)"
     class="cls-2">
    <rect
       id="rect11"
       height="230.24001"
       width="1460.54"
       y="154.98"
       x="19.73"
       class="cls-3" />
    <rect
       id="rect13"
       height="230.24001"
       width="1460.54"
       y="384.88"
       x="19.73"
       class="cls-4" />
    <rect
       id="rect15"
       height="230.24001"
       width="1460.54"
       y="614.77002"
       x="19.73"
       class="cls-5" />
    <path
       id="path17"
       d="m 750,345.71 c 84.11,0 152.29,69.08 152.29,154.29 0,85.21 -68.18,154.29 -152.29,154.29 -84.11,0 -152.29,-69.08 -152.29,-154.29 0,-85.21 68.18,-154.29 152.29,-154.29"
       class="cls-6" />
    <path
       id="path19"
       d="m 634.14,461.38 h 88.5 l 20,-62.4 5.36,16.66 -29.08,90.67 -8.64,-6.37 9.07,-28.27 h -71.24 z m 44.25,138 27.35,-85.29 -52.4,-38.57 h 17.28 l 76.14,56.05 -8.64,6.35 -23.74,-17.47 -22,68.64 -14,10.29 m 143.22,0 -71.6,-52.71 -52.4,38.57 5.34,-16.67 76.14,-56.05 3.3,10.29 -23.74,17.47 57.64,42.43 5.33,16.67 m 44.27,-138 -71.61,52.71 20,62.41 -14,-10.29 -29.09,-90.69 h 10.67 l 9.15,28.29 57.64,-42.43 h 17.28 M 750,376.09 l 27.36,85.29 h 64.76 l -14,10.29 H 734 l 3.3,-10.29 h 29.34 l -22,-68.65 z"
       class="cls-4" />
    <path
       id="path21"
       d="m 750,556.57 v 66.86 m -53.11,-105.95 -62.75,20.66 m 83,-83.91 -38.79,-54.09 m 104.43,54.09 38.79,-54.09 m -18.5,117.37 62.75,20.66 z"
       class="cls-7" />
    <path
       id="path23"
       d="m 752.54,623.43 h -5.07 v -66.86 h 5.07 z m 112.54,-82.84 -62.76,-20.66 1.57,-4.89 62.78,20.66 z m -230.16,0 -1.59,-4.89 62.76,-20.7 1.57,4.89 z m 150,-84.85 -4.12,-3 38.8,-54.11 4.1,3 z m -69.76,0 -38.78,-54.09 4.1,-3 38.8,54.09 z"
       class="cls-4" />
  </g>
</svg>
