<?xml version="1.0" encoding="UTF-8" standalone="no"?>
<svg
   xmlns:dc="http://purl.org/dc/elements/1.1/"
   xmlns:cc="http://creativecommons.org/ns#"
   xmlns:rdf="http://www.w3.org/1999/02/22-rdf-syntax-ns#"
   xmlns:svg="http://www.w3.org/2000/svg"
   xmlns="http://www.w3.org/2000/svg"
   xmlns:sodipodi="http://sodipodi.sourceforge.net/DTD/sodipodi-0.dtd"
   xmlns:inkscape="http://www.inkscape.org/namespaces/inkscape"
   inkscape:version="1.0 (4035a4fb49, 2020-05-01)"
   height="775.97998"
   width="775.97998"
   sodipodi:docname="kenya_circle_01.svg"
   version="1.1"
   viewBox="0 0 775.97998 775.97998"
   data-name="Layer 1"
   id="Layer_1">
  <metadata
     id="metadata55">
    <rdf:RDF>
      <cc:Work
         rdf:about="">
        <dc:format>image/svg+xml</dc:format>
        <dc:type
           rdf:resource="http://purl.org/dc/dcmitype/StillImage" />
      </cc:Work>
    </rdf:RDF>
  </metadata>
  <sodipodi:namedview
     inkscape:current-layer="Layer_1"
     inkscape:window-maximized="1"
     inkscape:window-y="1072"
     inkscape:window-x="-8"
     inkscape:cy="387.98999"
     inkscape:cx="387.98999"
     inkscape:zoom="0.69933333"
     showgrid="false"
     id="namedview53"
     inkscape:window-height="1009"
     inkscape:window-width="1920"
     inkscape:pageshadow="2"
     inkscape:pageopacity="0"
     guidetolerance="10"
     gridtolerance="10"
     objecttolerance="10"
     borderopacity="1"
     bordercolor="#666666"
     pagecolor="#ffffff" />
  <defs
     id="defs10">
    <style
       id="style2">.cls-1,.cls-6{fill:none;}.cls-2{clip-path:url(#clip-path);}.cls-3{fill:#fff;}.cls-4{fill:#176734;}.cls-5{clip-path:url(#clip-path-2);}.cls-6{stroke:#000;stroke-miterlimit:10;stroke-width:0.81px;}.cls-7{fill:#b92025;}</style>
    <clipPath
       id="clip-path">
      <circle
         id="circle4"
         r="387.98999"
         cy="500"
         cx="750"
         class="cls-1" />
    </clipPath>
    <clipPath
       id="clip-path-2">
      <rect
         id="rect7"
         height="808.28003"
         width="1212.42"
         y="95.860001"
         x="143.78999"
         class="cls-1" />
    </clipPath>
  </defs>
  <title
     id="title12">Flag-of-kenya</title>
  <g
     transform="translate(-362.01001,-112.01001)"
     id="g50"
     clip-path="url(#clip-path)"
     class="cls-2">
    <rect
       id="rect14"
       height="808.28003"
       width="1212.42"
       y="95.860001"
       x="143.78999"
       class="cls-3" />
    <rect
       id="rect16"
       height="242.48"
       width="1212.42"
       y="95.860001"
       x="143.78999" />
    <rect
       id="rect18"
       height="242.48"
       width="1212.42"
       y="661.65997"
       x="143.78999"
       class="cls-4" />
    <g
       id="g48"
       clip-path="url(#clip-path-2)"
       class="cls-5">
      <path
         id="path20"
         d="m 605.63,740 8.75,5.06 236,-408.73 c 13.79,-3.7 21.37,-16.82 29,-29.95 5,-8.75 25.26,-43.75 34,-89.23 -35,30.32 -55.2,65.32 -60.26,74.07 -7.58,13.13 -15.15,26.26 -11.46,40.05 z" />
      <path
         id="path22"
         d="m 605.63,740 8.75,5.06 236,-408.73 c 13.79,-3.7 21.37,-16.82 29,-29.95 5,-8.75 25.26,-43.75 34,-89.23 -35,30.32 -55.2,65.32 -60.26,74.07 -7.58,13.13 -15.15,26.26 -11.46,40.05 z"
         class="cls-6" />
      <path
         id="path24"
         d="m 605.63,740 8.75,5.06 236,-408.73 c 13.79,-3.7 21.37,-16.82 29,-29.95 5,-8.75 25.26,-43.75 34,-89.23 -35,30.32 -55.2,65.32 -60.26,74.07 -7.58,13.13 -15.15,26.26 -11.46,40.05 z"
         class="cls-3" />
      <path
         id="path26"
         d="m 894.37,740 -8.74,5 -236,-408.73 c -13.8,-3.7 -21.37,-16.82 -29,-29.95 -5,-8.75 -25.26,-43.75 -34,-89.23 35,30.32 55.21,65.32 60.26,74.07 7.58,13.13 15.16,26.26 11.46,40.05 z" />
      <path
         id="path28"
         d="m 894.37,740 -8.74,5 -236,-408.73 c -13.8,-3.7 -21.37,-16.82 -29,-29.95 -5,-8.75 -25.26,-43.75 -34,-89.23 35,30.32 55.21,65.32 60.26,74.07 7.58,13.13 15.16,26.26 11.46,40.05 z"
         class="cls-6" />
      <path
         id="path30"
         d="m 894.37,740 -8.74,5 -236,-408.73 c -13.8,-3.7 -21.37,-16.82 -29,-29.95 -5,-8.75 -25.26,-43.75 -34,-89.23 35,30.32 55.21,65.32 60.26,74.07 7.58,13.13 15.16,26.26 11.46,40.05 z"
         class="cls-3" />
      <path
         id="path32"
         d="M 143.79,378.76 V 621.24 H 654 c 15.15,40.42 65.67,121.24 96,121.24 30.33,0 80.83,-80.82 96,-121.24 h 510.23 V 378.76 H 846 c -15.15,-40.42 -65.67,-121.24 -96,-121.24 -30.33,0 -80.83,80.82 -96,121.24 z"
         class="cls-7" />
      <path
         id="path34"
         d="m 846,621.24 c 15.16,-40.41 25.26,-80.83 25.26,-121.24 0,-40.41 -10.12,-80.83 -25.26,-121.24 -15.15,40.41 -25.26,80.83 -25.26,121.24 0,40.41 10.09,80.83 25.26,121.24" />
      <path
         id="path36"
         d="M 654,621.24 C 638.84,580.83 628.74,540.41 628.74,500 c 0,-40.41 10.1,-80.83 25.26,-121.24 15.15,40.41 25.26,80.83 25.26,121.24 0,40.41 -10.09,80.83 -25.26,121.24" />
      <path
         id="path38"
         d="m 750,469.69 c 11.15,0 20.21,13.57 20.21,30.31 0,16.74 -9.06,30.31 -20.21,30.31 -11.15,0 -20.21,-13.57 -20.21,-30.31 0,-16.74 9.06,-30.31 20.21,-30.31"
         class="cls-3" />
      <path
         id="path40"
         d="m 755.05,529.56 c 0,0 20.21,40.44 20.21,106.08 0,65.64 -20.21,106.08 -20.21,106.08 z"
         class="cls-3" />
      <path
         id="path42"
         d="m 745,470.45 c 0,0 -20.26,-40.45 -20.26,-106.09 0,-65.64 20.26,-106.09 20.26,-106.09 z"
         class="cls-3" />
      <path
         id="path44"
         d="m 745,529.56 c 0,0 -20.26,40.44 -20.26,106.08 0,65.64 20.26,106.08 20.26,106.08 z"
         class="cls-3" />
      <path
         id="path46"
         d="m 755.05,470.45 c 0,0 20.21,-40.45 20.21,-106.09 0,-65.64 -20.21,-106.09 -20.21,-106.09 z"
         class="cls-3" />
    </g>
  </g>
</svg>
