<?xml version="1.0" encoding="UTF-8" standalone="no"?>
<svg
   xmlns:dc="http://purl.org/dc/elements/1.1/"
   xmlns:cc="http://creativecommons.org/ns#"
   xmlns:rdf="http://www.w3.org/1999/02/22-rdf-syntax-ns#"
   xmlns:svg="http://www.w3.org/2000/svg"
   xmlns="http://www.w3.org/2000/svg"
   xmlns:sodipodi="http://sodipodi.sourceforge.net/DTD/sodipodi-0.dtd"
   xmlns:inkscape="http://www.inkscape.org/namespaces/inkscape"
   width="118.06879mm"
   height="25.27243mm"
   viewBox="0 0 118.06879 25.27243"
   version="1.1"
   id="svg8"
   inkscape:version="1.0 (4035a4fb49, 2020-05-01)"
   sodipodi:docname="logo_derek_prince_international_01_white.svg"
   inkscape:export-filename="C:\Evan\Derek Prince\Logo\dp_pattern_01_transparent_blue.png"
   inkscape:export-xdpi="492.41"
   inkscape:export-ydpi="492.41">
  <defs
     id="defs2">
    <pattern
       patternUnits="userSpaceOnUse"
       width="34.140519"
       height="34.140519"
       patternTransform="matrix(0.26458333,0,0,0.26458333,108.52309,79.35392)"
       id="pattern4694">
      <g
         id="g4684"
         transform="matrix(3.7795276,0,0,3.7795276,-410.166,-299.92033)">
        <rect
           style="display:inline;opacity:1;fill:#0f4c81;fill-opacity:1;fill-rule:nonzero;stroke:none;stroke-width:0.99999994;stroke-linecap:butt;stroke-linejoin:miter;stroke-miterlimit:4;stroke-dasharray:none;stroke-dashoffset:0;stroke-opacity:1;paint-order:normal"
           id="rect4690-7-5"
           width="9.0330124"
           height="9.0330124"
           x="108.52309"
           y="79.35392" />
        <g
           style="display:inline;fill:#66ced6;fill-opacity:1;stroke-width:1.92525113"
           id="g4589-7-7"
           transform="matrix(0.51941274,0,0,0.51941274,52.261385,43.444703)">
          <path
             sodipodi:nodetypes="ccsssccscsccscsccsssc"
             inkscape:connector-curvature="0"
             id="path4821-5-96-5"
             d="m 117.68498,78.404999 0.28649,1.06148 3.21551,7.1e-5 c 1.67438,3.7e-5 2.65412,1.339828 2.65412,2.65412 0,1.308741 -1.00832,2.65412 -2.65412,2.65412 h -1.58985 v -1.061585 h 1.58985 c 0.92979,0 1.5992,-0.773513 1.59254,-1.596781 -0.007,-0.813104 -0.66382,-1.588292 -1.59254,-1.588292 l -2.93274,-5e-6 0.28123,1.061913 h 2.65151 c 0.32561,0 0.52901,0.293553 0.53095,0.534873 0.002,0.231159 -0.20233,0.52671 -0.53095,0.52671 h -2.6515 v 3.184747 h 2.6515 c 2.22951,0 3.7157,-1.850659 3.7157,-3.715702 0,-1.859491 -1.465,-3.715701 -3.7157,-3.715701 z"
             style="color:#000000;font-style:normal;font-variant:normal;font-weight:normal;font-stretch:normal;font-size:medium;line-height:normal;font-family:sans-serif;font-variant-ligatures:normal;font-variant-position:normal;font-variant-caps:normal;font-variant-numeric:normal;font-variant-alternates:normal;font-feature-settings:normal;text-indent:0;text-align:start;text-decoration:none;text-decoration-line:none;text-decoration-style:solid;text-decoration-color:#000000;letter-spacing:normal;word-spacing:normal;text-transform:none;writing-mode:lr-tb;direction:ltr;text-orientation:mixed;dominant-baseline:auto;baseline-shift:baseline;text-anchor:start;white-space:normal;shape-padding:0;clip-rule:nonzero;display:inline;overflow:visible;visibility:visible;opacity:1;isolation:auto;mix-blend-mode:normal;color-interpolation:sRGB;color-interpolation-filters:linearRGB;solid-color:#000000;solid-opacity:1;vector-effect:none;fill:#66ced6;fill-opacity:1;fill-rule:nonzero;stroke:none;stroke-width:12.22534466;stroke-linecap:butt;stroke-linejoin:miter;stroke-miterlimit:4;stroke-dasharray:none;stroke-dashoffset:0;stroke-opacity:1;color-rendering:auto;image-rendering:auto;shape-rendering:auto;text-rendering:auto;enable-background:accumulate" />
          <path
             sodipodi:nodetypes="ccsssccscsccscsccsssc"
             inkscape:connector-curvature="0"
             id="path4821-5-9-0-4"
             d="m 109.12399,85.72952 1.06148,-0.286489 7e-5,-3.215515 c 4e-5,-1.674383 1.33983,-2.654119 2.65412,-2.654119 1.30875,0 2.65412,1.008324 2.65412,2.654119 v 1.589854 h -1.06158 v -1.589854 c 0,-0.929785 -0.77351,-1.599198 -1.59678,-1.592538 -0.8131,0.0066 -1.58829,0.663815 -1.58829,1.592538 l -1e-5,2.932738 1.06191,-0.28123 v -2.651508 c 0,-0.325609 0.29356,-0.529004 0.53488,-0.53095 0.23116,-0.002 0.52671,0.202333 0.52671,0.53095 v 2.651502 h 3.18474 v -2.651502 c 0,-2.229512 -1.85066,-3.7157 -3.7157,-3.7157 -1.85949,0 -3.7157,1.464998 -3.7157,3.7157 z"
             style="color:#000000;font-style:normal;font-variant:normal;font-weight:normal;font-stretch:normal;font-size:medium;line-height:normal;font-family:sans-serif;font-variant-ligatures:normal;font-variant-position:normal;font-variant-caps:normal;font-variant-numeric:normal;font-variant-alternates:normal;font-feature-settings:normal;text-indent:0;text-align:start;text-decoration:none;text-decoration-line:none;text-decoration-style:solid;text-decoration-color:#000000;letter-spacing:normal;word-spacing:normal;text-transform:none;writing-mode:lr-tb;direction:ltr;text-orientation:mixed;dominant-baseline:auto;baseline-shift:baseline;text-anchor:start;white-space:normal;shape-padding:0;clip-rule:nonzero;display:inline;overflow:visible;visibility:visible;opacity:1;isolation:auto;mix-blend-mode:normal;color-interpolation:sRGB;color-interpolation-filters:linearRGB;solid-color:#000000;solid-opacity:1;vector-effect:none;fill:#66ced6;fill-opacity:1;fill-rule:nonzero;stroke:none;stroke-width:12.22534466;stroke-linecap:butt;stroke-linejoin:miter;stroke-miterlimit:4;stroke-dasharray:none;stroke-dashoffset:0;stroke-opacity:1;color-rendering:auto;image-rendering:auto;shape-rendering:auto;text-rendering:auto;enable-background:accumulate" />
          <path
             sodipodi:nodetypes="ccsssccscsccscsccsssc"
             inkscape:connector-curvature="0"
             id="path4821-5-8-1-8"
             d="m 116.34167,77.254349 -0.28649,-1.061481 -3.21552,-7.1e-5 c -1.67438,-3.6e-5 -2.65412,-1.339828 -2.65412,-2.65412 0,-1.30874 1.00833,-2.654119 2.65412,-2.654119 h 1.58986 v 1.061585 h -1.58986 c -0.92978,0 -1.5992,0.773513 -1.59254,1.596781 0.007,0.813103 0.66382,1.588292 1.59254,1.588292 l 2.93274,5e-6 -0.28123,-1.061913 h -2.65151 c -0.32561,0 -0.529,-0.293554 -0.53095,-0.534873 -0.002,-0.231159 0.20233,-0.52671 0.53095,-0.52671 h 2.6515 v -3.184747 h -2.6515 c -2.22951,0 -3.7157,1.850659 -3.7157,3.715701 0,1.859492 1.465,3.715702 3.7157,3.715702 z"
             style="color:#000000;font-style:normal;font-variant:normal;font-weight:normal;font-stretch:normal;font-size:medium;line-height:normal;font-family:sans-serif;font-variant-ligatures:normal;font-variant-position:normal;font-variant-caps:normal;font-variant-numeric:normal;font-variant-alternates:normal;font-feature-settings:normal;text-indent:0;text-align:start;text-decoration:none;text-decoration-line:none;text-decoration-style:solid;text-decoration-color:#000000;letter-spacing:normal;word-spacing:normal;text-transform:none;writing-mode:lr-tb;direction:ltr;text-orientation:mixed;dominant-baseline:auto;baseline-shift:baseline;text-anchor:start;white-space:normal;shape-padding:0;clip-rule:nonzero;display:inline;overflow:visible;visibility:visible;opacity:1;isolation:auto;mix-blend-mode:normal;color-interpolation:sRGB;color-interpolation-filters:linearRGB;solid-color:#000000;solid-opacity:1;vector-effect:none;fill:#66ced6;fill-opacity:1;fill-rule:nonzero;stroke:none;stroke-width:12.22534466;stroke-linecap:butt;stroke-linejoin:miter;stroke-miterlimit:4;stroke-dasharray:none;stroke-dashoffset:0;stroke-opacity:1;color-rendering:auto;image-rendering:auto;shape-rendering:auto;text-rendering:auto;enable-background:accumulate" />
          <path
             sodipodi:nodetypes="ccsssccscsccscsccsssc"
             inkscape:connector-curvature="0"
             id="path4821-5-9-5-2-6"
             d="m 124.90265,69.929827 -1.06148,0.286489 -7e-5,3.215516 c -4e-5,1.674383 -1.33983,2.654119 -2.65412,2.654119 -1.30874,0 -2.65412,-1.008324 -2.65412,-2.654119 v -1.589855 h 1.06158 v 1.589855 c 0,0.929785 0.77351,1.599198 1.59678,1.592538 0.81311,-0.0066 1.5883,-0.663816 1.5883,-1.592538 v -2.932739 l -1.06191,0.28123 v 2.651509 c 0,0.325609 -0.29355,0.529004 -0.53487,0.53095 -0.23116,0.002 -0.52672,-0.202333 -0.52672,-0.53095 V 70.78033 h -3.18474 v 2.651502 c 0,2.229511 1.85066,3.7157 3.7157,3.7157 1.85949,0 3.7157,-1.464998 3.7157,-3.7157 z"
             style="color:#000000;font-style:normal;font-variant:normal;font-weight:normal;font-stretch:normal;font-size:medium;line-height:normal;font-family:sans-serif;font-variant-ligatures:normal;font-variant-position:normal;font-variant-caps:normal;font-variant-numeric:normal;font-variant-alternates:normal;font-feature-settings:normal;text-indent:0;text-align:start;text-decoration:none;text-decoration-line:none;text-decoration-style:solid;text-decoration-color:#000000;letter-spacing:normal;word-spacing:normal;text-transform:none;writing-mode:lr-tb;direction:ltr;text-orientation:mixed;dominant-baseline:auto;baseline-shift:baseline;text-anchor:start;white-space:normal;shape-padding:0;clip-rule:nonzero;display:inline;overflow:visible;visibility:visible;opacity:1;isolation:auto;mix-blend-mode:normal;color-interpolation:sRGB;color-interpolation-filters:linearRGB;solid-color:#000000;solid-opacity:1;vector-effect:none;fill:#66ced6;fill-opacity:1;fill-rule:nonzero;stroke:none;stroke-width:12.22534466;stroke-linecap:butt;stroke-linejoin:miter;stroke-miterlimit:4;stroke-dasharray:none;stroke-dashoffset:0;stroke-opacity:1;color-rendering:auto;image-rendering:auto;shape-rendering:auto;text-rendering:auto;enable-background:accumulate" />
        </g>
      </g>
    </pattern>
    <pattern
       patternUnits="userSpaceOnUse"
       width="34.140519"
       height="34.140519"
       patternTransform="matrix(0.26458333,0,0,0.26458333,108.52309,89.537292)"
       id="pattern5378">
      <g
         id="g5373"
         transform="matrix(3.7795276,0,0,3.7795276,-410.166,-338.40866)">
        <rect
           style="display:inline;opacity:1;fill:none;fill-opacity:1;fill-rule:nonzero;stroke:none;stroke-width:1;stroke-linecap:butt;stroke-linejoin:miter;stroke-miterlimit:4;stroke-dasharray:none;stroke-dashoffset:0;stroke-opacity:1;paint-order:normal"
           id="rect4690-7-0"
           width="9.0330124"
           height="9.0330124"
           x="108.52309"
           y="89.537292" />
        <g
           style="display:inline;fill:#000000;stroke-width:1.92525113"
           id="g4589-7-5"
           transform="matrix(0.51941275,0,0,0.51941275,52.261379,53.628073)">
          <path
             sodipodi:nodetypes="ccsssccscsccscsccsssc"
             inkscape:connector-curvature="0"
             id="path4821-5-96-8"
             d="m 117.68498,78.404999 0.28649,1.06148 3.21551,7.1e-5 c 1.67438,3.7e-5 2.65412,1.339828 2.65412,2.65412 0,1.308741 -1.00832,2.65412 -2.65412,2.65412 h -1.58985 v -1.061585 h 1.58985 c 0.92979,0 1.5992,-0.773513 1.59254,-1.596781 -0.007,-0.813104 -0.66382,-1.588292 -1.59254,-1.588292 l -2.93274,-5e-6 0.28123,1.061913 h 2.65151 c 0.32561,0 0.52901,0.293553 0.53095,0.534873 0.002,0.231159 -0.20233,0.52671 -0.53095,0.52671 h -2.6515 v 3.184747 h 2.6515 c 2.22951,0 3.7157,-1.850659 3.7157,-3.715702 0,-1.859491 -1.465,-3.715701 -3.7157,-3.715701 z"
             style="color:#000000;font-style:normal;font-variant:normal;font-weight:normal;font-stretch:normal;font-size:medium;line-height:normal;font-family:sans-serif;font-variant-ligatures:normal;font-variant-position:normal;font-variant-caps:normal;font-variant-numeric:normal;font-variant-alternates:normal;font-feature-settings:normal;text-indent:0;text-align:start;text-decoration:none;text-decoration-line:none;text-decoration-style:solid;text-decoration-color:#000000;letter-spacing:normal;word-spacing:normal;text-transform:none;writing-mode:lr-tb;direction:ltr;text-orientation:mixed;dominant-baseline:auto;baseline-shift:baseline;text-anchor:start;white-space:normal;shape-padding:0;clip-rule:nonzero;display:inline;overflow:visible;visibility:visible;opacity:1;isolation:auto;mix-blend-mode:normal;color-interpolation:sRGB;color-interpolation-filters:linearRGB;solid-color:#000000;solid-opacity:1;vector-effect:none;fill:#000000;fill-opacity:1;fill-rule:nonzero;stroke:none;stroke-width:12.22534466;stroke-linecap:butt;stroke-linejoin:miter;stroke-miterlimit:4;stroke-dasharray:none;stroke-dashoffset:0;stroke-opacity:1;color-rendering:auto;image-rendering:auto;shape-rendering:auto;text-rendering:auto;enable-background:accumulate" />
          <path
             sodipodi:nodetypes="ccsssccscsccscsccsssc"
             inkscape:connector-curvature="0"
             id="path4821-5-9-0-77"
             d="m 109.12399,85.72952 1.06148,-0.286489 7e-5,-3.215515 c 4e-5,-1.674383 1.33983,-2.654119 2.65412,-2.654119 1.30875,0 2.65412,1.008324 2.65412,2.654119 v 1.589854 h -1.06158 v -1.589854 c 0,-0.929785 -0.77351,-1.599198 -1.59678,-1.592538 -0.8131,0.0066 -1.58829,0.663815 -1.58829,1.592538 l -1e-5,2.932738 1.06191,-0.28123 v -2.651508 c 0,-0.325609 0.29356,-0.529004 0.53488,-0.53095 0.23116,-0.002 0.52671,0.202333 0.52671,0.53095 v 2.651502 h 3.18474 v -2.651502 c 0,-2.229512 -1.85066,-3.7157 -3.7157,-3.7157 -1.85949,0 -3.7157,1.464998 -3.7157,3.7157 z"
             style="color:#000000;font-style:normal;font-variant:normal;font-weight:normal;font-stretch:normal;font-size:medium;line-height:normal;font-family:sans-serif;font-variant-ligatures:normal;font-variant-position:normal;font-variant-caps:normal;font-variant-numeric:normal;font-variant-alternates:normal;font-feature-settings:normal;text-indent:0;text-align:start;text-decoration:none;text-decoration-line:none;text-decoration-style:solid;text-decoration-color:#000000;letter-spacing:normal;word-spacing:normal;text-transform:none;writing-mode:lr-tb;direction:ltr;text-orientation:mixed;dominant-baseline:auto;baseline-shift:baseline;text-anchor:start;white-space:normal;shape-padding:0;clip-rule:nonzero;display:inline;overflow:visible;visibility:visible;opacity:1;isolation:auto;mix-blend-mode:normal;color-interpolation:sRGB;color-interpolation-filters:linearRGB;solid-color:#000000;solid-opacity:1;vector-effect:none;fill:#000000;fill-opacity:1;fill-rule:nonzero;stroke:none;stroke-width:12.22534466;stroke-linecap:butt;stroke-linejoin:miter;stroke-miterlimit:4;stroke-dasharray:none;stroke-dashoffset:0;stroke-opacity:1;color-rendering:auto;image-rendering:auto;shape-rendering:auto;text-rendering:auto;enable-background:accumulate" />
          <path
             sodipodi:nodetypes="ccsssccscsccscsccsssc"
             inkscape:connector-curvature="0"
             id="path4821-5-8-1-1"
             d="m 116.34167,77.254349 -0.28649,-1.061481 -3.21552,-7.1e-5 c -1.67438,-3.6e-5 -2.65412,-1.339828 -2.65412,-2.65412 0,-1.30874 1.00833,-2.654119 2.65412,-2.654119 h 1.58986 v 1.061585 h -1.58986 c -0.92978,0 -1.5992,0.773513 -1.59254,1.596781 0.007,0.813103 0.66382,1.588292 1.59254,1.588292 l 2.93274,5e-6 -0.28123,-1.061913 h -2.65151 c -0.32561,0 -0.529,-0.293554 -0.53095,-0.534873 -0.002,-0.231159 0.20233,-0.52671 0.53095,-0.52671 h 2.6515 v -3.184747 h -2.6515 c -2.22951,0 -3.7157,1.850659 -3.7157,3.715701 0,1.859492 1.465,3.715702 3.7157,3.715702 z"
             style="color:#000000;font-style:normal;font-variant:normal;font-weight:normal;font-stretch:normal;font-size:medium;line-height:normal;font-family:sans-serif;font-variant-ligatures:normal;font-variant-position:normal;font-variant-caps:normal;font-variant-numeric:normal;font-variant-alternates:normal;font-feature-settings:normal;text-indent:0;text-align:start;text-decoration:none;text-decoration-line:none;text-decoration-style:solid;text-decoration-color:#000000;letter-spacing:normal;word-spacing:normal;text-transform:none;writing-mode:lr-tb;direction:ltr;text-orientation:mixed;dominant-baseline:auto;baseline-shift:baseline;text-anchor:start;white-space:normal;shape-padding:0;clip-rule:nonzero;display:inline;overflow:visible;visibility:visible;opacity:1;isolation:auto;mix-blend-mode:normal;color-interpolation:sRGB;color-interpolation-filters:linearRGB;solid-color:#000000;solid-opacity:1;vector-effect:none;fill:#000000;fill-opacity:1;fill-rule:nonzero;stroke:none;stroke-width:12.22534466;stroke-linecap:butt;stroke-linejoin:miter;stroke-miterlimit:4;stroke-dasharray:none;stroke-dashoffset:0;stroke-opacity:1;color-rendering:auto;image-rendering:auto;shape-rendering:auto;text-rendering:auto;enable-background:accumulate" />
          <path
             sodipodi:nodetypes="ccsssccscsccscsccsssc"
             inkscape:connector-curvature="0"
             id="path4821-5-9-5-2-8"
             d="m 124.90265,69.929827 -1.06148,0.286489 -7e-5,3.215516 c -4e-5,1.674383 -1.33983,2.654119 -2.65412,2.654119 -1.30874,0 -2.65412,-1.008324 -2.65412,-2.654119 v -1.589855 h 1.06158 v 1.589855 c 0,0.929785 0.77351,1.599198 1.59678,1.592538 0.81311,-0.0066 1.5883,-0.663816 1.5883,-1.592538 v -2.932739 l -1.06191,0.28123 v 2.651509 c 0,0.325609 -0.29355,0.529004 -0.53487,0.53095 -0.23116,0.002 -0.52672,-0.202333 -0.52672,-0.53095 V 70.78033 h -3.18474 v 2.651502 c 0,2.229511 1.85066,3.7157 3.7157,3.7157 1.85949,0 3.7157,-1.464998 3.7157,-3.7157 z"
             style="color:#000000;font-style:normal;font-variant:normal;font-weight:normal;font-stretch:normal;font-size:medium;line-height:normal;font-family:sans-serif;font-variant-ligatures:normal;font-variant-position:normal;font-variant-caps:normal;font-variant-numeric:normal;font-variant-alternates:normal;font-feature-settings:normal;text-indent:0;text-align:start;text-decoration:none;text-decoration-line:none;text-decoration-style:solid;text-decoration-color:#000000;letter-spacing:normal;word-spacing:normal;text-transform:none;writing-mode:lr-tb;direction:ltr;text-orientation:mixed;dominant-baseline:auto;baseline-shift:baseline;text-anchor:start;white-space:normal;shape-padding:0;clip-rule:nonzero;display:inline;overflow:visible;visibility:visible;opacity:1;isolation:auto;mix-blend-mode:normal;color-interpolation:sRGB;color-interpolation-filters:linearRGB;solid-color:#000000;solid-opacity:1;vector-effect:none;fill:#000000;fill-opacity:1;fill-rule:nonzero;stroke:none;stroke-width:12.22534466;stroke-linecap:butt;stroke-linejoin:miter;stroke-miterlimit:4;stroke-dasharray:none;stroke-dashoffset:0;stroke-opacity:1;color-rendering:auto;image-rendering:auto;shape-rendering:auto;text-rendering:auto;enable-background:accumulate" />
        </g>
      </g>
    </pattern>
    <pattern
       patternUnits="userSpaceOnUse"
       width="34.140519"
       height="34.140519"
       patternTransform="matrix(0.26458333,0,0,0.26458333,118.89388,90.284058)"
       id="pattern4618">
      <rect
         inkscape:export-ydpi="5623.8198"
         inkscape:export-xdpi="5623.8198"
         inkscape:export-filename="C:\Evan\Derek Prince\Logo\Presentation\Resources\g4589-7-2.png"
         y="0"
         x="0"
         height="34.140518"
         width="34.140518"
         id="rect4690-7-06-2"
         style="display:inline;opacity:1;fill:none;fill-opacity:1;fill-rule:nonzero;stroke:none;stroke-width:3.77952766;stroke-linecap:butt;stroke-linejoin:miter;stroke-miterlimit:4;stroke-dasharray:none;stroke-dashoffset:0;stroke-opacity:1;paint-order:normal" />
      <g
         inkscape:export-ydpi="5623.8198"
         inkscape:export-xdpi="5623.8198"
         inkscape:export-filename="C:\Evan\Derek Prince\Logo\Presentation\Resources\g4589-7-2.png"
         transform="matrix(1.9631348,0,0,1.9631348,-212.64264,-135.71987)"
         id="g4589-7-2-4"
         style="display:inline;fill:#0f4c81;fill-opacity:1;stroke-width:1.92525113">
        <path
           style="color:#000000;font-style:normal;font-variant:normal;font-weight:normal;font-stretch:normal;font-size:medium;line-height:normal;font-family:sans-serif;font-variant-ligatures:normal;font-variant-position:normal;font-variant-caps:normal;font-variant-numeric:normal;font-variant-alternates:normal;font-feature-settings:normal;text-indent:0;text-align:start;text-decoration:none;text-decoration-line:none;text-decoration-style:solid;text-decoration-color:#000000;letter-spacing:normal;word-spacing:normal;text-transform:none;writing-mode:lr-tb;direction:ltr;text-orientation:mixed;dominant-baseline:auto;baseline-shift:baseline;text-anchor:start;white-space:normal;shape-padding:0;clip-rule:nonzero;display:inline;overflow:visible;visibility:visible;opacity:1;isolation:auto;mix-blend-mode:normal;color-interpolation:sRGB;color-interpolation-filters:linearRGB;solid-color:#000000;solid-opacity:1;vector-effect:none;fill:#0f4c81;fill-opacity:1;fill-rule:nonzero;stroke:none;stroke-width:12.22534466;stroke-linecap:butt;stroke-linejoin:miter;stroke-miterlimit:4;stroke-dasharray:none;stroke-dashoffset:0;stroke-opacity:1;color-rendering:auto;image-rendering:auto;shape-rendering:auto;text-rendering:auto;enable-background:accumulate"
           d="m 117.68498,78.404999 0.28649,1.06148 3.21551,7.1e-5 c 1.67438,3.7e-5 2.65412,1.339828 2.65412,2.65412 0,1.308741 -1.00832,2.65412 -2.65412,2.65412 h -1.58985 v -1.061585 h 1.58985 c 0.92979,0 1.5992,-0.773513 1.59254,-1.596781 -0.007,-0.813104 -0.66382,-1.588292 -1.59254,-1.588292 l -2.93274,-5e-6 0.28123,1.061913 h 2.65151 c 0.32561,0 0.52901,0.293553 0.53095,0.534873 0.002,0.231159 -0.20233,0.52671 -0.53095,0.52671 h -2.6515 v 3.184747 h 2.6515 c 2.22951,0 3.7157,-1.850659 3.7157,-3.715702 0,-1.859491 -1.465,-3.715701 -3.7157,-3.715701 z"
           id="path4821-5-96-59-2"
           inkscape:connector-curvature="0"
           sodipodi:nodetypes="ccsssccscsccscsccsssc" />
        <path
           style="color:#000000;font-style:normal;font-variant:normal;font-weight:normal;font-stretch:normal;font-size:medium;line-height:normal;font-family:sans-serif;font-variant-ligatures:normal;font-variant-position:normal;font-variant-caps:normal;font-variant-numeric:normal;font-variant-alternates:normal;font-feature-settings:normal;text-indent:0;text-align:start;text-decoration:none;text-decoration-line:none;text-decoration-style:solid;text-decoration-color:#000000;letter-spacing:normal;word-spacing:normal;text-transform:none;writing-mode:lr-tb;direction:ltr;text-orientation:mixed;dominant-baseline:auto;baseline-shift:baseline;text-anchor:start;white-space:normal;shape-padding:0;clip-rule:nonzero;display:inline;overflow:visible;visibility:visible;opacity:1;isolation:auto;mix-blend-mode:normal;color-interpolation:sRGB;color-interpolation-filters:linearRGB;solid-color:#000000;solid-opacity:1;vector-effect:none;fill:#0f4c81;fill-opacity:1;fill-rule:nonzero;stroke:none;stroke-width:12.22534466;stroke-linecap:butt;stroke-linejoin:miter;stroke-miterlimit:4;stroke-dasharray:none;stroke-dashoffset:0;stroke-opacity:1;color-rendering:auto;image-rendering:auto;shape-rendering:auto;text-rendering:auto;enable-background:accumulate"
           d="m 109.12399,85.72952 1.06148,-0.286489 7e-5,-3.215515 c 4e-5,-1.674383 1.33983,-2.654119 2.65412,-2.654119 1.30875,0 2.65412,1.008324 2.65412,2.654119 v 1.589854 h -1.06158 v -1.589854 c 0,-0.929785 -0.77351,-1.599198 -1.59678,-1.592538 -0.8131,0.0066 -1.58829,0.663815 -1.58829,1.592538 l -1e-5,2.932738 1.06191,-0.28123 v -2.651508 c 0,-0.325609 0.29356,-0.529004 0.53488,-0.53095 0.23116,-0.002 0.52671,0.202333 0.52671,0.53095 v 2.651502 h 3.18474 v -2.651502 c 0,-2.229512 -1.85066,-3.7157 -3.7157,-3.7157 -1.85949,0 -3.7157,1.464998 -3.7157,3.7157 z"
           id="path4821-5-9-0-9-6"
           inkscape:connector-curvature="0"
           sodipodi:nodetypes="ccsssccscsccscsccsssc" />
        <path
           style="color:#000000;font-style:normal;font-variant:normal;font-weight:normal;font-stretch:normal;font-size:medium;line-height:normal;font-family:sans-serif;font-variant-ligatures:normal;font-variant-position:normal;font-variant-caps:normal;font-variant-numeric:normal;font-variant-alternates:normal;font-feature-settings:normal;text-indent:0;text-align:start;text-decoration:none;text-decoration-line:none;text-decoration-style:solid;text-decoration-color:#000000;letter-spacing:normal;word-spacing:normal;text-transform:none;writing-mode:lr-tb;direction:ltr;text-orientation:mixed;dominant-baseline:auto;baseline-shift:baseline;text-anchor:start;white-space:normal;shape-padding:0;clip-rule:nonzero;display:inline;overflow:visible;visibility:visible;opacity:1;isolation:auto;mix-blend-mode:normal;color-interpolation:sRGB;color-interpolation-filters:linearRGB;solid-color:#000000;solid-opacity:1;vector-effect:none;fill:#0f4c81;fill-opacity:1;fill-rule:nonzero;stroke:none;stroke-width:12.22534466;stroke-linecap:butt;stroke-linejoin:miter;stroke-miterlimit:4;stroke-dasharray:none;stroke-dashoffset:0;stroke-opacity:1;color-rendering:auto;image-rendering:auto;shape-rendering:auto;text-rendering:auto;enable-background:accumulate"
           d="m 116.34167,77.254349 -0.28649,-1.061481 -3.21552,-7.1e-5 c -1.67438,-3.6e-5 -2.65412,-1.339828 -2.65412,-2.65412 0,-1.30874 1.00833,-2.654119 2.65412,-2.654119 h 1.58986 v 1.061585 h -1.58986 c -0.92978,0 -1.5992,0.773513 -1.59254,1.596781 0.007,0.813103 0.66382,1.588292 1.59254,1.588292 l 2.93274,5e-6 -0.28123,-1.061913 h -2.65151 c -0.32561,0 -0.529,-0.293554 -0.53095,-0.534873 -0.002,-0.231159 0.20233,-0.52671 0.53095,-0.52671 h 2.6515 v -3.184747 h -2.6515 c -2.22951,0 -3.7157,1.850659 -3.7157,3.715701 0,1.859492 1.465,3.715702 3.7157,3.715702 z"
           id="path4821-5-8-1-9-4"
           inkscape:connector-curvature="0"
           sodipodi:nodetypes="ccsssccscsccscsccsssc" />
        <path
           style="color:#000000;font-style:normal;font-variant:normal;font-weight:normal;font-stretch:normal;font-size:medium;line-height:normal;font-family:sans-serif;font-variant-ligatures:normal;font-variant-position:normal;font-variant-caps:normal;font-variant-numeric:normal;font-variant-alternates:normal;font-feature-settings:normal;text-indent:0;text-align:start;text-decoration:none;text-decoration-line:none;text-decoration-style:solid;text-decoration-color:#000000;letter-spacing:normal;word-spacing:normal;text-transform:none;writing-mode:lr-tb;direction:ltr;text-orientation:mixed;dominant-baseline:auto;baseline-shift:baseline;text-anchor:start;white-space:normal;shape-padding:0;clip-rule:nonzero;display:inline;overflow:visible;visibility:visible;opacity:1;isolation:auto;mix-blend-mode:normal;color-interpolation:sRGB;color-interpolation-filters:linearRGB;solid-color:#000000;solid-opacity:1;vector-effect:none;fill:#0f4c81;fill-opacity:1;fill-rule:nonzero;stroke:none;stroke-width:12.22534466;stroke-linecap:butt;stroke-linejoin:miter;stroke-miterlimit:4;stroke-dasharray:none;stroke-dashoffset:0;stroke-opacity:1;color-rendering:auto;image-rendering:auto;shape-rendering:auto;text-rendering:auto;enable-background:accumulate"
           d="m 124.90265,69.929827 -1.06148,0.286489 -7e-5,3.215516 c -4e-5,1.674383 -1.33983,2.654119 -2.65412,2.654119 -1.30874,0 -2.65412,-1.008324 -2.65412,-2.654119 v -1.589855 h 1.06158 v 1.589855 c 0,0.929785 0.77351,1.599198 1.59678,1.592538 0.81311,-0.0066 1.5883,-0.663816 1.5883,-1.592538 v -2.932739 l -1.06191,0.28123 v 2.651509 c 0,0.325609 -0.29355,0.529004 -0.53487,0.53095 -0.23116,0.002 -0.52672,-0.202333 -0.52672,-0.53095 V 70.78033 h -3.18474 v 2.651502 c 0,2.229511 1.85066,3.7157 3.7157,3.7157 1.85949,0 3.7157,-1.464998 3.7157,-3.7157 z"
           id="path4821-5-9-5-2-2-4"
           inkscape:connector-curvature="0"
           sodipodi:nodetypes="ccsssccscsccscsccsssc" />
      </g>
    </pattern>
  </defs>
  <sodipodi:namedview
     id="base"
     pagecolor="#ffffff"
     bordercolor="#666666"
     borderopacity="1.0"
     inkscape:pageopacity="0.0"
     inkscape:pageshadow="2"
     inkscape:zoom="4.4689149"
     inkscape:cx="65.063479"
     inkscape:cy="81.677675"
     inkscape:document-units="mm"
     inkscape:current-layer="g1174"
     showgrid="false"
     inkscape:window-width="1920"
     inkscape:window-height="1017"
     inkscape:window-x="1039"
     inkscape:window-y="1072"
     inkscape:window-maximized="1"
     inkscape:document-rotation="0" />
  <metadata
     id="metadata5">
    <rdf:RDF>
      <cc:Work
         rdf:about="">
        <dc:format>image/svg+xml</dc:format>
        <dc:type
           rdf:resource="http://purl.org/dc/dcmitype/StillImage" />
        <dc:title></dc:title>
      </cc:Work>
    </rdf:RDF>
  </metadata>
  <g
     transform="translate(-43.518819,-132.13013)"
     inkscape:groupmode="layer"
     id="g1174"
     inkscape:label="International"
     style="display:inline">
    <g
       style="fill:#ffffff"
       inkscape:export-ydpi="645.24084"
       inkscape:export-xdpi="645.24084"
       id="g1193">
      <path
         inkscape:export-ydpi="860.32111"
         inkscape:export-xdpi="860.32111"
         inkscape:export-filename="C:\Evan\Derek Prince\Logo\dp_draft_uk_02_black.png"
         style="color:#000000;font-style:normal;font-variant:normal;font-weight:normal;font-stretch:normal;font-size:medium;line-height:normal;font-family:sans-serif;font-variant-ligatures:normal;font-variant-position:normal;font-variant-caps:normal;font-variant-numeric:normal;font-variant-alternates:normal;font-feature-settings:normal;text-indent:0;text-align:start;text-decoration:none;text-decoration-line:none;text-decoration-style:solid;text-decoration-color:#000000;letter-spacing:normal;word-spacing:normal;text-transform:none;writing-mode:lr-tb;direction:ltr;text-orientation:mixed;dominant-baseline:auto;baseline-shift:baseline;text-anchor:start;white-space:normal;shape-padding:0;clip-rule:nonzero;display:inline;overflow:visible;visibility:visible;opacity:1;isolation:auto;mix-blend-mode:normal;color-interpolation:sRGB;color-interpolation-filters:linearRGB;solid-color:#000000;solid-opacity:1;vector-effect:none;fill:#ffffff;fill-opacity:1;fill-rule:nonzero;stroke:none;stroke-width:6.35;stroke-linecap:butt;stroke-linejoin:miter;stroke-miterlimit:4;stroke-dasharray:none;stroke-dashoffset:0;stroke-opacity:1;color-rendering:auto;image-rendering:auto;shape-rendering:auto;text-rendering:auto;enable-background:accumulate"
         d="m 43.518819,132.13024 0.974288,3.60984 10.935193,2.5e-4 c 5.694169,1.2e-4 9.026015,4.55643 9.026015,9.02602 0,4.45072 -3.429061,9.02601 -9.026015,9.02601 h -5.40671 v -3.61017 h 5.40671 c 3.161968,0 5.438496,-2.63054 5.415833,-5.43028 -0.02234,-2.76516 -2.257459,-5.4014 -5.415833,-5.4014 l -9.973533,-1e-5 0.956393,3.61131 h 9.01714 c 1.10732,0 1.79901,0.99829 1.805642,1.81897 0.0062,0.78611 -0.688094,1.79121 -1.805642,1.79121 h -9.017122 v 10.83057 H 55.4283 c 7.582039,0 12.636205,-6.29365 12.636205,-12.63621 0,-6.32369 -4.982122,-12.63622 -12.636205,-12.63622 z"
         id="path1145"
         inkscape:connector-curvature="0"
         sodipodi:nodetypes="ccsssccscsccscsccsssc" />
      <g
         style="fill:#ffffff"
         transform="translate(-16.97327,1.6753504)"
         id="g1157">
        <g
           aria-label="Derek Prince "
           id="text1151"
           style="font-style:normal;font-weight:normal;font-size:13.6752px;line-height:1.25;font-family:sans-serif;letter-spacing:0px;word-spacing:0px;fill:#ffffff;fill-opacity:1;stroke:none;stroke-width:0.264583">
          <path
             d="m 104.39191,138.86826 c 0,-3.66495 -2.78974,-4.81367 -5.53846,-4.81367 h -3.500851 v 9.68204 h 3.610253 c 2.666668,0 5.429058,-1.46324 5.429058,-4.86837 z m -2.43419,0 c 0,2.16068 -1.5453,2.84444 -3.213672,2.84444 h -1.107691 v -5.66153 h 1.162392 c 1.613671,0 3.158971,0.64274 3.158971,2.81709 z"
             style="font-style:normal;font-variant:normal;font-weight:bold;font-stretch:normal;line-height:0.5;font-family:'Avenir Next LT Pro';-inkscape-font-specification:'Avenir Next LT Pro Bold';letter-spacing:0px;stroke-width:0.264583;fill:#ffffff"
             id="path1123" />
          <path
             d="m 107.61156,139.55202 c 0.0547,-0.69743 0.68376,-1.29914 1.5453,-1.29914 0.88889,0 1.34017,0.58803 1.34017,1.29914 z m 4.95042,0.86154 c 0,-2.32478 -1.40854,-3.70598 -3.4188,-3.70598 -2.06495,0 -3.67863,1.42222 -3.67863,3.65128 0,2.29743 1.69573,3.59658 3.74701,3.59658 1.38119,0 2.44786,-0.51966 3.0906,-1.44957 l -1.55898,-0.98462 c -0.30085,0.41026 -0.79316,0.71111 -1.50427,0.71111 -0.80684,0 -1.55897,-0.53333 -1.62735,-1.28547 h 4.93675 c 0.0137,-0.1641 0.0137,-0.35555 0.0137,-0.53333 z"
             style="font-style:normal;font-variant:normal;font-weight:bold;font-stretch:normal;line-height:0.5;font-family:'Avenir Next LT Pro';-inkscape-font-specification:'Avenir Next LT Pro Bold';letter-spacing:0px;stroke-width:0.264583;fill:#ffffff"
             id="path1125" />
          <path
             d="m 118.46561,136.78963 c -0.1094,-0.041 -0.30085,-0.0547 -0.47863,-0.0547 -0.83419,0 -1.50427,0.49231 -1.84615,1.17607 h -0.0273 v -0.98462 h -2.16069 v 6.81025 h 2.24274 v -3.50085 c 0,-0.56068 0.39658,-1.5453 1.6,-1.5453 0.17777,0 0.36923,0.0137 0.57435,0.0684 z"
             style="font-style:normal;font-variant:normal;font-weight:bold;font-stretch:normal;line-height:0.5;font-family:'Avenir Next LT Pro';-inkscape-font-specification:'Avenir Next LT Pro Bold';letter-spacing:0px;stroke-width:0.264583;fill:#ffffff"
             id="path1127" />
          <path
             d="m 120.93954,139.55202 c 0.0547,-0.69743 0.68376,-1.29914 1.5453,-1.29914 0.88889,0 1.34017,0.58803 1.34017,1.29914 z m 4.95042,0.86154 c 0,-2.32478 -1.40854,-3.70598 -3.4188,-3.70598 -2.06495,0 -3.67863,1.42222 -3.67863,3.65128 0,2.29743 1.69573,3.59658 3.74701,3.59658 1.38119,0 2.44786,-0.51966 3.09059,-1.44957 l -1.55897,-0.98462 c -0.30085,0.41026 -0.79316,0.71111 -1.50427,0.71111 -0.80684,0 -1.55897,-0.53333 -1.62735,-1.28547 h 4.93675 c 0.0137,-0.1641 0.0137,-0.35555 0.0137,-0.53333 z"
             style="font-style:normal;font-variant:normal;font-weight:bold;font-stretch:normal;line-height:0.5;font-family:'Avenir Next LT Pro';-inkscape-font-specification:'Avenir Next LT Pro Bold';letter-spacing:0px;stroke-width:0.264583;fill:#ffffff"
             id="path1129" />
          <path
             d="m 131.86196,140.0033 2.62564,-3.07692 h -2.72136 l -2.17436,2.76239 h -0.041 v -6.29059 h -2.25641 v 10.33845 h 2.25641 v -3.26837 h 0.041 l 2.22906,3.26837 h 2.77606 z"
             style="font-style:normal;font-variant:normal;font-weight:bold;font-stretch:normal;line-height:0.5;font-family:'Avenir Next LT Pro';-inkscape-font-specification:'Avenir Next LT Pro Bold';letter-spacing:0px;stroke-width:0.264583;fill:#ffffff"
             id="path1131" />
          <path
             d="m 146.31259,137.03579 c 0,-2.21539 -1.66837,-2.9812 -3.78803,-2.9812 h -3.55555 v 9.68204 h 2.33846 v -3.65128 h 1.16239 c 2.02393,0 3.84273,-0.80683 3.84273,-3.04956 z m -2.33846,0.0137 c 0,0.91624 -0.80684,1.17607 -1.68205,1.17607 h -0.98461 v -2.28376 h 1.02564 c 0.83418,0 1.64102,0.17778 1.64102,1.10769 z"
             style="font-style:normal;font-variant:normal;font-weight:bold;font-stretch:normal;line-height:0.5;font-family:'Avenir Next LT Pro';-inkscape-font-specification:'Avenir Next LT Pro Bold';letter-spacing:0px;stroke-width:0.264583;fill:#ffffff"
             id="path1133" />
          <path
             d="m 151.53182,136.78963 c -0.10941,-0.041 -0.30086,-0.0547 -0.47864,-0.0547 -0.83418,0 -1.50427,0.49231 -1.84615,1.17607 h -0.0274 v -0.98462 H 147.019 v 6.81025 h 2.24273 v -3.50085 c 0,-0.56068 0.39658,-1.5453 1.6,-1.5453 0.17778,0 0.36923,0.0137 0.57436,0.0684 z"
             style="font-style:normal;font-variant:normal;font-weight:bold;font-stretch:normal;line-height:0.5;font-family:'Avenir Next LT Pro';-inkscape-font-specification:'Avenir Next LT Pro Bold';letter-spacing:0px;stroke-width:0.264583;fill:#ffffff"
             id="path1135" />
          <path
             d="m 154.87519,134.75203 c 0,-0.68376 -0.57436,-1.23077 -1.28547,-1.23077 -0.72478,0 -1.28547,0.57436 -1.28547,1.23077 0,0.67008 0.56069,1.23076 1.28547,1.23076 0.71111,0 1.28547,-0.53333 1.28547,-1.23076 z m -0.1641,8.9846 v -6.81025 h -2.24273 v 6.81025 z"
             style="font-style:normal;font-variant:normal;font-weight:bold;font-stretch:normal;line-height:0.5;font-family:'Avenir Next LT Pro';-inkscape-font-specification:'Avenir Next LT Pro Bold';letter-spacing:0px;stroke-width:0.264583;fill:#ffffff"
             id="path1137" />
          <path
             d="m 163.22903,143.73663 v -4.21196 c 0,-1.36752 -0.65641,-2.78974 -2.48889,-2.78974 -0.94359,0 -1.72307,0.53333 -2.0376,1.13504 h -0.0274 v -0.94359 h -2.17436 v 6.81025 h 2.25641 v -3.6923 c 0,-0.77949 0.41025,-1.46325 1.20342,-1.46325 0.80683,0 1.01196,0.68376 1.01196,1.4359 v 3.71965 z"
             style="font-style:normal;font-variant:normal;font-weight:bold;font-stretch:normal;line-height:0.5;font-family:'Avenir Next LT Pro';-inkscape-font-specification:'Avenir Next LT Pro Bold';letter-spacing:0px;stroke-width:0.264583;fill:#ffffff"
             id="path1139" />
          <path
             d="m 170.90402,137.62382 c -0.53333,-0.54701 -1.55897,-0.91624 -2.52991,-0.91624 -2.11966,0 -3.80171,1.40855 -3.80171,3.62393 0,2.25641 1.66838,3.62393 3.81538,3.62393 0.99829,0 1.95556,-0.32821 2.51624,-0.87522 l -1.24444,-1.51794 c -0.27351,0.3282 -0.76581,0.50598 -1.2171,0.50598 -0.98461,0 -1.59999,-0.79316 -1.59999,-1.73675 0,-0.94359 0.62906,-1.75043 1.57264,-1.75043 0.45129,0 0.94359,0.21881 1.18975,0.54701 z"
             style="font-style:normal;font-variant:normal;font-weight:bold;font-stretch:normal;line-height:0.5;font-family:'Avenir Next LT Pro';-inkscape-font-specification:'Avenir Next LT Pro Bold';letter-spacing:0px;stroke-width:0.264583;fill:#ffffff"
             id="path1141" />
          <path
             d="m 173.61043,139.55202 c 0.0547,-0.69743 0.68376,-1.29914 1.5453,-1.29914 0.88889,0 1.34017,0.58803 1.34017,1.29914 z m 4.95042,0.86154 c 0,-2.32478 -1.40854,-3.70598 -3.4188,-3.70598 -2.06495,0 -3.67863,1.42222 -3.67863,3.65128 0,2.29743 1.69573,3.59658 3.74701,3.59658 1.38119,0 2.44786,-0.51966 3.09059,-1.44957 l -1.55897,-0.98462 c -0.30085,0.41026 -0.79316,0.71111 -1.50427,0.71111 -0.80684,0 -1.55897,-0.53333 -1.62735,-1.28547 h 4.93675 c 0.0137,-0.1641 0.0137,-0.35555 0.0137,-0.53333 z"
             style="font-style:normal;font-variant:normal;font-weight:bold;font-stretch:normal;line-height:0.5;font-family:'Avenir Next LT Pro';-inkscape-font-specification:'Avenir Next LT Pro Bold';letter-spacing:0px;stroke-width:0.264583;fill:#ffffff"
             id="path1143" />
        </g>
        <g
           aria-label="MINISTRIES"
           id="text1155"
           style="font-style:normal;font-weight:normal;font-size:13.6752px;line-height:1.25;font-family:sans-serif;letter-spacing:0px;word-spacing:0px;display:inline;fill:#ffffff;fill-opacity:1;stroke:none;stroke-width:0.264583">
          <path
             d="m 101.27736,152.64465 v -5.18508 h -1.808921 l -1.127829,3.3249 h -0.02929 l -1.179093,-3.3249 h -1.779625 v 5.18508 h 1.179093 l -0.02929,-3.6691 h 0.02197 l 1.310918,3.6691 h 0.878827 l 1.34754,-3.6691 h 0.022 l -0.0293,3.6691 z"
             style="font-style:normal;font-variant:normal;font-weight:bold;font-stretch:normal;font-size:7.32356px;line-height:0;font-family:'Avenir Next LT Pro';-inkscape-font-specification:'Avenir Next LT Pro Bold';letter-spacing:0.499334px;stroke-width:0.264583;fill:#ffffff"
             id="path1146" />
          <path
             d="m 104.10616,152.64465 v -5.18508 h -1.25966 v 5.18508 z"
             style="font-style:normal;font-variant:normal;font-weight:bold;font-stretch:normal;font-size:7.32356px;line-height:0;font-family:'Avenir Next LT Pro';-inkscape-font-specification:'Avenir Next LT Pro Bold';letter-spacing:0.499334px;stroke-width:0.264583;fill:#ffffff"
             id="path1148" />
          <path
             d="m 110.39373,152.64465 v -5.18508 h -1.21571 l 0.0293,3.38349 h -0.022 l -2.07989,-3.38349 h -1.4281 v 5.18508 h 1.21571 l -0.0293,-3.39081 h 0.022 l 2.08721,3.39081 z"
             style="font-style:normal;font-variant:normal;font-weight:bold;font-stretch:normal;font-size:7.32356px;line-height:0;font-family:'Avenir Next LT Pro';-inkscape-font-specification:'Avenir Next LT Pro Bold';letter-spacing:0.499334px;stroke-width:0.264583;fill:#ffffff"
             id="path1150" />
          <path
             d="m 113.21509,152.64465 v -5.18508 h -1.25965 v 5.18508 z"
             style="font-style:normal;font-variant:normal;font-weight:bold;font-stretch:normal;font-size:7.32356px;line-height:0;font-family:'Avenir Next LT Pro';-inkscape-font-specification:'Avenir Next LT Pro Bold';letter-spacing:0.499334px;stroke-width:0.264583;fill:#ffffff"
             id="path1152" />
          <path
             d="m 118.32358,147.9649 c -0.45406,-0.41744 -1.11318,-0.63715 -1.69907,-0.63715 -0.96671,0 -2.00665,0.47603 -2.00665,1.62583 0,0.93741 0.66644,1.2743 1.32556,1.48668 0.68109,0.21971 1.07657,0.34421 1.07657,0.73968 0,0.41744 -0.33689,0.56392 -0.71771,0.56392 -0.41012,0 -0.87151,-0.23436 -1.12051,-0.54927 l -0.82024,0.83488 c 0.45406,0.47604 1.20107,0.74701 1.94075,0.74701 1.0253,0 1.98468,-0.53462 1.98468,-1.72836 0,-1.03262 -0.90812,-1.33289 -1.61118,-1.55992 -0.49068,-0.1538 -0.79827,-0.26365 -0.79827,-0.60786 0,-0.41012 0.4028,-0.51997 0.72503,-0.51997 0.32224,0 0.71039,0.17577 0.92277,0.44674 z"
             style="font-style:normal;font-variant:normal;font-weight:bold;font-stretch:normal;font-size:7.32356px;line-height:0;font-family:'Avenir Next LT Pro';-inkscape-font-specification:'Avenir Next LT Pro Bold';letter-spacing:0.499334px;stroke-width:0.264583;fill:#ffffff"
             id="path1154" />
          <path
             d="m 123.20332,148.52881 v -1.06924 h -4.18175 v 1.06924 h 1.46471 v 4.11584 h 1.25233 v -4.11584 z"
             style="font-style:normal;font-variant:normal;font-weight:bold;font-stretch:normal;font-size:7.32356px;line-height:0;font-family:'Avenir Next LT Pro';-inkscape-font-specification:'Avenir Next LT Pro Bold';letter-spacing:0.499334px;stroke-width:0.264583;fill:#ffffff"
             id="path1156" />
          <path
             d="m 128.50748,152.64465 -1.35486,-2.21904 c 0.66645,-0.20506 1.07657,-0.70306 1.07657,-1.3988 0,-1.18641 -0.98869,-1.56724 -1.98469,-1.56724 h -1.97736 v 5.18508 h 1.23036 v -2.05792 h 0.42476 l 1.12051,2.05792 z m -1.51598,-3.59586 c 0,0.52729 -0.50532,0.62982 -0.90812,0.62982 h -0.59321 v -1.20839 h 0.66645 c 0.3735,0 0.83488,0.0952 0.83488,0.57857 z"
             style="font-style:normal;font-variant:normal;font-weight:bold;font-stretch:normal;font-size:7.32356px;line-height:0;font-family:'Avenir Next LT Pro';-inkscape-font-specification:'Avenir Next LT Pro Bold';letter-spacing:0.499334px;stroke-width:0.264583;fill:#ffffff"
             id="path1158" />
          <path
             d="m 130.87512,152.64465 v -5.18508 h -1.25965 v 5.18508 z"
             style="font-style:normal;font-variant:normal;font-weight:bold;font-stretch:normal;font-size:7.32356px;line-height:0;font-family:'Avenir Next LT Pro';-inkscape-font-specification:'Avenir Next LT Pro Bold';letter-spacing:0.499334px;stroke-width:0.264583;fill:#ffffff"
             id="path1161" />
          <path
             d="m 136.06417,152.64465 v -1.06924 h -2.40945 v -1.07656 h 2.15312 v -1.00333 h -2.15312 v -0.97403 h 2.27762 v -1.06192 h -3.48601 v 5.18508 z"
             style="font-style:normal;font-variant:normal;font-weight:bold;font-stretch:normal;font-size:7.32356px;line-height:0;font-family:'Avenir Next LT Pro';-inkscape-font-specification:'Avenir Next LT Pro Bold';letter-spacing:0.499334px;stroke-width:0.264583;fill:#ffffff"
             id="path1163" />
          <path
             d="m 140.93143,147.9649 c -0.45406,-0.41744 -1.11318,-0.63715 -1.69906,-0.63715 -0.96671,0 -2.00666,0.47603 -2.00666,1.62583 0,0.93741 0.66645,1.2743 1.32557,1.48668 0.68109,0.21971 1.07656,0.34421 1.07656,0.73968 0,0.41744 -0.33688,0.56392 -0.71771,0.56392 -0.41012,0 -0.8715,-0.23436 -1.1205,-0.54927 l -0.82024,0.83488 c 0.45406,0.47604 1.20106,0.74701 1.94074,0.74701 1.0253,0 1.98469,-0.53462 1.98469,-1.72836 0,-1.03262 -0.90812,-1.33289 -1.61119,-1.55992 -0.49067,-0.1538 -0.79826,-0.26365 -0.79826,-0.60786 0,-0.41012 0.40279,-0.51997 0.72503,-0.51997 0.32223,0 0.71038,0.17577 0.92277,0.44674 z"
             style="font-style:normal;font-variant:normal;font-weight:bold;font-stretch:normal;font-size:7.32356px;line-height:0;font-family:'Avenir Next LT Pro';-inkscape-font-specification:'Avenir Next LT Pro Bold';letter-spacing:0.499334px;stroke-width:0.264583;fill:#ffffff"
             id="path1165" />
        </g>
      </g>
    </g>
  </g>
</svg>
