<?xml version="1.0" encoding="UTF-8" standalone="no"?>
<svg
   xmlns:dc="http://purl.org/dc/elements/1.1/"
   xmlns:cc="http://creativecommons.org/ns#"
   xmlns:rdf="http://www.w3.org/1999/02/22-rdf-syntax-ns#"
   xmlns:svg="http://www.w3.org/2000/svg"
   xmlns="http://www.w3.org/2000/svg"
   xmlns:sodipodi="http://sodipodi.sourceforge.net/DTD/sodipodi-0.dtd"
   xmlns:inkscape="http://www.inkscape.org/namespaces/inkscape"
   width="189.30751mm"
   height="284.70657mm"
   viewBox="0 0 189.30751 284.70657"
   version="1.1"
   id="svg8"
   inkscape:version="1.0 (4035a4fb49, 2020-05-01)"
   sodipodi:docname="map_01_blue.svg">
  <defs
     id="defs2" />
  <sodipodi:namedview
     id="base"
     pagecolor="#ffffff"
     bordercolor="#666666"
     borderopacity="1.0"
     inkscape:pageopacity="0.0"
     inkscape:pageshadow="2"
     inkscape:zoom="0.355"
     inkscape:cx="-181.2052"
     inkscape:cy="193.45561"
     inkscape:document-units="mm"
     inkscape:current-layer="layer2"
     inkscape:document-rotation="0"
     showgrid="false"
     inkscape:window-width="1920"
     inkscape:window-height="1009"
     inkscape:window-x="2761"
     inkscape:window-y="2152"
     inkscape:window-maximized="1" />
  <metadata
     id="metadata5">
    <rdf:RDF>
      <cc:Work
         rdf:about="">
        <dc:format>image/svg+xml</dc:format>
        <dc:type
           rdf:resource="http://purl.org/dc/dcmitype/StillImage" />
        <dc:title></dc:title>
      </cc:Work>
    </rdf:RDF>
  </metadata>
  <g
     inkscape:groupmode="layer"
     id="layer2"
     inkscape:label="Layer 2"
     style="display:inline;opacity:1"
     transform="translate(-8.9538988,-7.2854257)">
    <path
       transform="matrix(0.26458333,0,0,0.26458333,8.9538988,7.2854257)"
       d="m 358.49414,18.900391 c -204.68346,0 -347.263671,169.196069 -347.263671,348.759769 0,34.20207 5.408684,77.89845 14.935547,102.3125 L 284.56055,1017.3809 c 29.54636,51.1758 115.27883,54.6027 146.37304,0.7461 L 684.09961,481.17383 c 14.38526,-26.1953 20.16406,-71.45845 20.16406,-116.50195 0,-204.01974 -171.99158,-345.771489 -345.76953,-345.771489 z"
       style="fill:#0f4c81;stroke:none;stroke-width:1.06046px;stroke-linecap:butt;stroke-linejoin:miter;stroke-opacity:1;fill-opacity:1"
       id="path848" />
  </g>
  <g
     style="display:inline"
     inkscape:groupmode="layer"
     id="layer3"
     inkscape:label="Layer 3"
     transform="translate(-0.01001141,-0.20525968)">
    <path
       sodipodi:nodetypes="ccsssccscsccscsccsssc"
       inkscape:connector-curvature="0"
       id="path4821"
       d="m 49.228636,48.544129 3.725263,13.802423 41.811299,9.19e-4 c 21.771972,4.79e-4 34.511492,17.421772 34.511492,34.511493 0,17.017566 -13.11122,34.511496 -34.511492,34.511496 H 74.092346 V 117.5667 h 20.672852 c 12.089972,0 20.794392,-10.05798 20.707742,-20.762939 -0.0854,-10.572778 -8.63153,-20.652547 -20.707742,-20.652547 l -38.134341,-6.5e-5 3.656827,13.808054 h 34.477514 c 4.233924,0 6.878622,3.817069 6.903992,6.954951 0.0243,3.00575 -2.63098,6.848796 -6.903992,6.848796 H 60.287749 v 41.41125 h 34.477449 c 28.990342,0 48.315232,-24.06411 48.315232,-48.315242 0,-24.178959 -19.0494,-48.315242 -48.315232,-48.315242 z"
       style="color:#000000;font-style:normal;font-variant:normal;font-weight:normal;font-stretch:normal;font-size:medium;line-height:normal;font-family:sans-serif;font-variant-ligatures:normal;font-variant-position:normal;font-variant-caps:normal;font-variant-numeric:normal;font-variant-alternates:normal;font-feature-settings:normal;text-indent:0;text-align:start;text-decoration:none;text-decoration-line:none;text-decoration-style:solid;text-decoration-color:#000000;letter-spacing:normal;word-spacing:normal;text-transform:none;writing-mode:lr-tb;direction:ltr;text-orientation:mixed;dominant-baseline:auto;baseline-shift:baseline;text-anchor:start;white-space:normal;shape-padding:0;clip-rule:nonzero;display:inline;overflow:visible;visibility:visible;opacity:1;isolation:auto;mix-blend-mode:normal;color-interpolation:sRGB;color-interpolation-filters:linearRGB;solid-color:#000000;solid-opacity:1;vector-effect:none;fill:#ffffff;fill-opacity:1;fill-rule:nonzero;stroke:none;stroke-width:6.35001;stroke-linecap:butt;stroke-linejoin:miter;stroke-miterlimit:4;stroke-dasharray:none;stroke-dashoffset:0;stroke-opacity:1;color-rendering:auto;image-rendering:auto;shape-rendering:auto;text-rendering:auto;enable-background:accumulate" />
  </g>
</svg>
