<?xml version="1.0" encoding="UTF-8" standalone="no"?>
<svg
   xmlns:dc="http://purl.org/dc/elements/1.1/"
   xmlns:cc="http://creativecommons.org/ns#"
   xmlns:rdf="http://www.w3.org/1999/02/22-rdf-syntax-ns#"
   xmlns:svg="http://www.w3.org/2000/svg"
   xmlns="http://www.w3.org/2000/svg"
   xmlns:sodipodi="http://sodipodi.sourceforge.net/DTD/sodipodi-0.dtd"
   xmlns:inkscape="http://www.inkscape.org/namespaces/inkscape"
   inkscape:version="1.0 (4035a4fb49, 2020-05-01)"
   height="662"
   width="662"
   sodipodi:docname="mongolia_circle_01.svg"
   version="1.1"
   viewBox="0 0 662 662"
   data-name="Layer 1"
   id="Layer_1">
  <metadata
     id="metadata34">
    <rdf:RDF>
      <cc:Work
         rdf:about="">
        <dc:format>image/svg+xml</dc:format>
        <dc:type
           rdf:resource="http://purl.org/dc/dcmitype/StillImage" />
      </cc:Work>
    </rdf:RDF>
  </metadata>
  <sodipodi:namedview
     inkscape:current-layer="Layer_1"
     inkscape:window-maximized="1"
     inkscape:window-y="1072"
     inkscape:window-x="-8"
     inkscape:cy="331"
     inkscape:cx="331"
     inkscape:zoom="0.69933333"
     showgrid="false"
     id="namedview32"
     inkscape:window-height="1009"
     inkscape:window-width="1920"
     inkscape:pageshadow="2"
     inkscape:pageopacity="0"
     guidetolerance="10"
     gridtolerance="10"
     objecttolerance="10"
     borderopacity="1"
     bordercolor="#666666"
     pagecolor="#ffffff" />
  <defs
     id="defs7">
    <style
       id="style2">.cls-1{fill:none;}.cls-2{clip-path:url(#clip-path);}.cls-3{fill:#da2032;}.cls-4{fill:#0066b3;}.cls-5{fill:#ffd900;}</style>
    <clipPath
       id="clip-path">
      <circle
         id="circle4"
         r="331"
         cy="500"
         cx="750"
         class="cls-1" />
    </clipPath>
  </defs>
  <g
     transform="translate(-419,-169)"
     id="g29"
     clip-path="url(#clip-path)"
     class="cls-2">
    <path
       id="path9"
       d="m 419,91.25 h 662 V 911.62 H 419 Z"
       class="cls-3" />
    <path
       id="path11"
       d="M 639.67,91.25 H 860.33 V 911.62 H 639.67 Z"
       class="cls-4" />
    <ellipse
       id="ellipse13"
       ry="30.43"
       rx="30.34"
       cy="448.87"
       cx="529.33002"
       class="cls-5" />
    <ellipse
       id="ellipse15"
       ry="33.200001"
       rx="33.099998"
       cy="435.04001"
       cx="529.33002"
       class="cls-3" />
    <ellipse
       id="ellipse17"
       ry="22.129999"
       rx="22.07"
       cy="440.57999"
       cx="529.33002"
       class="cls-5" />
    <path
       id="path19"
       d="m 531.65,368.65 a 6.64,6.64 0 0 0 -4,5.74 c -0.14,1.89 0.69,4 0.77,5.86 0,3.17 -3.28,4.22 -3.28,8.75 0,1.56 1.44,3.27 1.44,7.31 a 2.76,2.76 0 1 1 -4.75,-1.9 2.47,2.47 0 0 1 0.28,-0.28 c 0.63,-0.63 1.49,-0.88 1.48,-2.56 0,-0.86 -0.55,-1.65 -1.09,-3.17 a 6.43,6.43 0 0 1 1.06,-5.43 7,7 0 0 0 -3.73,4.27 c -0.64,2.05 -0.08,3.23 -1,4.93 a 19,19 0 0 1 -1.77,2.47 10.54,10.54 0 0 0 -1.56,4.43 13.8,13.8 0 1 0 27.59,0 10.65,10.65 0 0 0 -1.54,-4.43 18.22,18.22 0 0 1 -1.79,-2.47 c -0.87,-1.7 -0.31,-2.88 -1,-4.93 a 7,7 0 0 0 -3.73,-4.27 6.4,6.4 0 0 1 1.06,5.43 c -0.54,1.52 -1.1,2.31 -1.1,3.17 0,1.68 0.86,1.93 1.49,2.56 l 0.28,0.28 a 2.76,2.76 0 1 1 -4.75,1.9 c 0,-5.32 2.27,-5.66 2.27,-9.6 0,-5.63 -5,-8.29 -5,-12.41 a 7.74,7.74 0 0 1 2.29,-5.66 z m -63,116.19 h 27.58 v 132.78 h -27.58 z m 93.78,0 H 590 v 132.78 h -27.57 z m -60.68,0 h 55.17 l -27.59,16.59 z m 0,22.13 h 55.17 V 518 h -55.17 z m 0,77.45 h 55.17 v 11.07 h -55.17 z m 0,16.6 h 55.17 l -27.59,16.6 z"
       class="cls-5" />
    <ellipse
       id="ellipse21"
       ry="27.66"
       rx="27.58"
       cy="551.22998"
       cx="529.33002"
       class="cls-5" />
    <ellipse
       id="ellipse23"
       ry="5.5300002"
       rx="5.52"
       cy="536.57001"
       cx="529.33002"
       class="cls-3" />
    <ellipse
       id="ellipse25"
       ry="5.5300002"
       rx="5.52"
       cy="565.89001"
       cx="529.33002"
       class="cls-3" />
    <path
       id="path27"
       d="m 529.33,520.24 a 16.33,16.33 0 0 1 0,32.65 13,13 0 0 0 0,26 v 3.32 a 16.32,16.32 0 0 1 0,-32.64 13,13 0 0 0 0,-26 z"
       class="cls-3" />
  </g>
</svg>
