<?xml version="1.0" encoding="UTF-8" standalone="no"?>
<svg
   xmlns:dc="http://purl.org/dc/elements/1.1/"
   xmlns:cc="http://creativecommons.org/ns#"
   xmlns:rdf="http://www.w3.org/1999/02/22-rdf-syntax-ns#"
   xmlns:svg="http://www.w3.org/2000/svg"
   xmlns="http://www.w3.org/2000/svg"
   xmlns:sodipodi="http://sodipodi.sourceforge.net/DTD/sodipodi-0.dtd"
   xmlns:inkscape="http://www.inkscape.org/namespaces/inkscape"
   inkscape:version="1.0 (4035a4fb49, 2020-05-01)"
   height="661.46997"
   width="662"
   sodipodi:docname="niue_circle_01.svg"
   version="1.1"
   viewBox="0 0 662 661.46997"
   data-name="Layer 1"
   id="Layer_1">
  <metadata
     id="metadata46">
    <rdf:RDF>
      <cc:Work
         rdf:about="">
        <dc:format>image/svg+xml</dc:format>
        <dc:type
           rdf:resource="http://purl.org/dc/dcmitype/StillImage" />
      </cc:Work>
    </rdf:RDF>
  </metadata>
  <sodipodi:namedview
     inkscape:current-layer="Layer_1"
     inkscape:window-maximized="1"
     inkscape:window-y="-8"
     inkscape:window-x="-8"
     inkscape:cy="330.47"
     inkscape:cx="331"
     inkscape:zoom="0.69933333"
     showgrid="false"
     id="namedview44"
     inkscape:window-height="1009"
     inkscape:window-width="1920"
     inkscape:pageshadow="2"
     inkscape:pageopacity="0"
     guidetolerance="10"
     gridtolerance="10"
     objecttolerance="10"
     borderopacity="1"
     bordercolor="#666666"
     pagecolor="#ffffff" />
  <defs
     id="defs10">
    <style
       id="style2">.cls-1{fill:none;}.cls-2{clip-path:url(#clip-path);}.cls-3{fill:#012169;}.cls-4{fill:#fff;}.cls-5{clip-path:url(#clip-path-2);}.cls-6{fill:#c8102e;}.cls-7{fill:#fedd00;}</style>
    <clipPath
       id="clip-path">
      <circle
         id="circle4"
         r="331"
         cy="500"
         cx="750"
         class="cls-1" />
    </clipPath>
    <clipPath
       id="clip-path-2">
      <path
         id="path7"
         d="m 251.71,169.53 v 141.76 h 661.56 v 141.77 h -94.51 z m 0,283.53 v 94.5 h 283.53 v -378 h 283.52 z"
         class="cls-1" />
    </clipPath>
  </defs>
  <g
     transform="translate(-419,-169.53)"
     id="g41"
     clip-path="url(#clip-path)"
     class="cls-2">
    <rect
       id="rect12"
       height="567.04999"
       width="996.58002"
       y="169.53"
       x="251.71001"
       class="cls-3" />
    <path
       id="path14"
       d="m 251.71,169.53 567.05,283.53 m 0,-283.53 -567,283.53"
       class="cls-1" />
    <polygon
       id="polygon16"
       points="251.71,479.83 251.71,421.36 471.84,311.29 251.71,188.73 251.71,169.53 290.24,170.02 535.24,279.59 755.36,169.53 818.76,169.53 831.44,194.89 598.63,311.29 831.44,427.7 806.08,478.42 535.24,342.99 "
       class="cls-4" />
    <g
       id="g22"
       clip-path="url(#clip-path-2)"
       class="cls-5">
      <path
         id="path18"
         d="m 251.71,169.53 567.05,283.53 m 0,-283.53 -567,283.53" />
      <polygon
         id="polygon20"
         points="260.16,469.96 243.26,436.15 492.97,311.29 243.26,186.44 260.16,152.62 535.24,290.16 810.31,152.62 827.21,186.44 577.5,311.29 827.21,436.15 810.31,469.96 535.24,332.43 "
         class="cls-6" />
    </g>
    <path
       id="path24"
       d="m 535.24,169.53 v 378 M 251.71,311.29 h 661.56"
       class="cls-1" />
    <polygon
       id="polygon26"
       points="487.98,358.55 251.71,358.55 251.71,264.04 487.98,264.04 487.98,169.53 582.49,169.53 582.49,264.04 913.27,264.04 913.27,358.55 582.49,358.55 582.49,547.56 487.98,547.56 "
       class="cls-4" />
    <path
       id="path28"
       d="m 535.24,169.53 v 378 M 251.71,311.29 h 661.56"
       class="cls-1" />
    <polygon
       id="polygon30"
       points="506.88,339.64 251.71,339.64 251.71,282.94 506.88,282.94 506.88,169.53 563.59,169.53 563.59,282.94 913.27,282.94 913.27,339.64 563.59,339.64 563.59,547.56 506.88,547.56 "
       class="cls-6" />
    <polygon
       id="polygon32"
       points="251.71,831 251.71,453.06 818.76,453.06 818.76,169.53 1248.29,169.53 1248.29,831 "
       class="cls-7" />
    <circle
       id="circle34"
       r="48.240002"
       cy="311.29001"
       cx="535.23999"
       class="cls-3" />
    <path
       d="m 535.24,263.06 28.35,87.26 -74.23,-53.93 h 91.75 l -74.23,53.93 z"
       class="cls-7"
       id="s" />
    <path
       d="M 369.85,285.68 386.51,337 342.88,305.3 h 53.93 L 353.18,337 Z"
       class="cls-7"
       data-name="s"
       id="s-2" />
    <path
       d="M 700.63,285.68 717.29,337 673.66,305.3 h 53.93 L 684,337 Z"
       class="cls-7"
       data-name="s"
       id="s-3" />
    <path
       d="m 535.24,380.19 16.66,51.29 -43.63,-31.7 h 53.93 l -43.63,31.7 z"
       class="cls-7"
       data-name="s"
       id="s-4" />
    <path
       d="m 535.24,191.17 16.66,51.29 -43.63,-31.7 h 53.93 l -43.63,31.7 z"
       class="cls-7"
       data-name="s"
       id="s-5" />
  </g>
</svg>
