<?xml version="1.0" encoding="UTF-8" standalone="no"?>
<svg
   xmlns:dc="http://purl.org/dc/elements/1.1/"
   xmlns:cc="http://creativecommons.org/ns#"
   xmlns:rdf="http://www.w3.org/1999/02/22-rdf-syntax-ns#"
   xmlns:svg="http://www.w3.org/2000/svg"
   xmlns="http://www.w3.org/2000/svg"
   xmlns:sodipodi="http://sodipodi.sourceforge.net/DTD/sodipodi-0.dtd"
   xmlns:inkscape="http://www.inkscape.org/namespaces/inkscape"
   sodipodi:docname="search_01_black.svg"
   inkscape:version="1.0 (4035a4fb49, 2020-05-01)"
   id="svg882"
   version="1.1"
   viewBox="0 0 113.69844 113.70596"
   height="113.70596mm"
   width="113.69844mm">
  <defs
     id="defs876" />
  <sodipodi:namedview
     inkscape:window-maximized="1"
     inkscape:window-y="-8"
     inkscape:window-x="-8"
     inkscape:window-height="1017"
     inkscape:window-width="1920"
     showgrid="false"
     inkscape:document-rotation="0"
     inkscape:current-layer="layer1"
     inkscape:document-units="mm"
     inkscape:cy="461.73443"
     inkscape:cx="-371.67045"
     inkscape:zoom="0.35"
     inkscape:pageshadow="2"
     inkscape:pageopacity="0.0"
     borderopacity="1.0"
     bordercolor="#666666"
     pagecolor="#ffffff"
     id="base" />
  <metadata
     id="metadata879">
    <rdf:RDF>
      <cc:Work
         rdf:about="">
        <dc:format>image/svg+xml</dc:format>
        <dc:type
           rdf:resource="http://purl.org/dc/dcmitype/StillImage" />
        <dc:title></dc:title>
      </cc:Work>
    </rdf:RDF>
  </metadata>
  <g
     transform="translate(-50.139248,-84.908376)"
     id="layer1"
     inkscape:groupmode="layer"
     inkscape:label="Layer 1">
    <g
       style="fill:#000000"
       transform="matrix(3.76018,0,0,3.76018,50.135488,84.907436)"
       id="g4">
      <path
         style="fill:#000000"
         sodipodi:nodetypes="cccccccccccscccs"
         d="m 20.194,3.46 c -4.613,-4.613 -12.121,-4.613 -16.734,0 -4.612,4.614 -4.612,12.121 0,16.735 4.0069533,4.005978 10.192635,4.523135 14.772631,1.570033 C 19.252,22.789 18.79124,22.324135 19.252,22.789 l 6.718,6.718 c 0.979,0.977 2.561,0.977 3.535,0 0.978,-0.978 0.978,-2.56 0,-3.535 l -6.718,-6.72 c -1.055291,-0.967385 0,0 -1.055291,-0.967385 C 24.72286,13.698823 24.216545,7.4835244 20.194,3.46 Z m -2.121,14.614 c -3.444,3.444 -9.049,3.444 -12.492,0 -3.442,-3.444 -3.442,-9.048 0,-12.492 3.443,-3.443 9.048,-3.443 12.492,0 3.444,3.444 3.444,9.048 0,12.492 z"
         id="path2" />
    </g>
  </g>
</svg>
