<?xml version="1.0" encoding="UTF-8" standalone="no"?>
<svg
   xmlns:dc="http://purl.org/dc/elements/1.1/"
   xmlns:cc="http://creativecommons.org/ns#"
   xmlns:rdf="http://www.w3.org/1999/02/22-rdf-syntax-ns#"
   xmlns:svg="http://www.w3.org/2000/svg"
   xmlns="http://www.w3.org/2000/svg"
   xmlns:sodipodi="http://sodipodi.sourceforge.net/DTD/sodipodi-0.dtd"
   xmlns:inkscape="http://www.inkscape.org/namespaces/inkscape"
   version="1.1"
   id="svg896"
   width="133.33333"
   height="133.33333"
   viewBox="0 0 133.33333 133.33333"
   sodipodi:docname="social_youtube_01_white.svg"
   inkscape:version="1.0 (4035a4fb49, 2020-05-01)">
  <metadata
     id="metadata902">
    <rdf:RDF>
      <cc:Work
         rdf:about="">
        <dc:format>image/svg+xml</dc:format>
        <dc:type
           rdf:resource="http://purl.org/dc/dcmitype/StillImage" />
        <dc:title></dc:title>
      </cc:Work>
    </rdf:RDF>
  </metadata>
  <defs
     id="defs900" />
  <sodipodi:namedview
     inkscape:document-rotation="0"
     pagecolor="#ffffff"
     bordercolor="#666666"
     borderopacity="1"
     objecttolerance="10"
     gridtolerance="10"
     guidetolerance="10"
     inkscape:pageopacity="0"
     inkscape:pageshadow="2"
     inkscape:window-width="1920"
     inkscape:window-height="1017"
     id="namedview898"
     showgrid="false"
     inkscape:zoom="4.38583"
     inkscape:cx="30.827089"
     inkscape:cy="67.324589"
     inkscape:window-x="-8"
     inkscape:window-y="1072"
     inkscape:window-maximized="1"
     inkscape:current-layer="g867" />
  <g
     inkscape:groupmode="layer"
     id="g867"
     inkscape:label="YouTube"
     style="display:inline">
    <path
       id="path865"
       d="M 66.666016,2.9824219 C 31.346653,2.9824222 2.6640628,31.51128 2.6640625,66.666016 c 0,35.154734 28.6825895,63.685544 64.0019535,63.685544 35.319364,0 64.003904,-28.53081 64.003904,-63.685544 0,-35.154737 -28.68454,-63.6835958 -64.003904,-63.6835941 z m 0,3.890625 c 33.226877,-1.6e-6 60.111324,26.7523051 60.111324,59.7929691 0,33.040664 -26.884447,59.794924 -60.111324,59.794924 C 33.43914,126.46094 6.5546875,99.706678 6.5546875,66.666016 6.5546878,33.625353 33.43914,6.8730472 66.666016,6.8730469 Z"
       style="color:#000000;font-style:normal;font-variant:normal;font-weight:normal;font-stretch:normal;font-size:medium;line-height:normal;font-family:sans-serif;font-variant-ligatures:normal;font-variant-position:normal;font-variant-caps:normal;font-variant-numeric:normal;font-variant-alternates:normal;font-variant-east-asian:normal;font-feature-settings:normal;font-variation-settings:normal;text-indent:0;text-align:start;text-decoration:none;text-decoration-line:none;text-decoration-style:solid;text-decoration-color:#000000;letter-spacing:normal;word-spacing:normal;text-transform:none;writing-mode:lr-tb;direction:ltr;text-orientation:mixed;dominant-baseline:auto;baseline-shift:baseline;text-anchor:start;white-space:normal;shape-padding:0;shape-margin:0;inline-size:0;clip-rule:nonzero;display:inline;overflow:visible;visibility:visible;opacity:1;isolation:auto;mix-blend-mode:normal;color-interpolation:sRGB;color-interpolation-filters:linearRGB;solid-color:#000000;solid-opacity:1;vector-effect:none;fill:#ffffff;fill-opacity:1;fill-rule:nonzero;stroke:none;stroke-width:3.89174;stroke-linecap:butt;stroke-linejoin:round;stroke-miterlimit:4;stroke-dasharray:none;stroke-dashoffset:0;stroke-opacity:1;color-rendering:auto;image-rendering:auto;shape-rendering:auto;text-rendering:auto;enable-background:accumulate;stop-color:#000000;stop-opacity:1" />
    <path
       style="stroke-width:1.38806;fill:#ffffff"
       d="M 94.910543,52.091974 C 94.357487,49.03932 91.722329,46.816242 88.664248,46.12221 84.08797,45.151651 75.618601,44.457619 66.455203,44.457619 c -9.157981,0 -17.7629,0.694032 -22.344603,1.664591 -3.052656,0.694032 -5.693237,2.776134 -6.246293,5.969764 -0.55848,3.470165 -1.111535,8.328394 -1.111535,14.574686 0,6.246299 0.553055,11.104527 1.247088,14.574686 0.558479,3.052657 3.193637,5.275731 6.246299,5.969769 4.858226,0.970566 13.186618,1.664594 22.350017,1.664594 9.163402,0 17.491794,-0.694028 22.350023,-1.664594 3.052658,-0.694038 5.687815,-2.776131 6.246295,-5.969769 0.553055,-3.470159 1.247087,-8.469363 1.388063,-14.574686 -0.28195,-6.246292 -0.975982,-11.104521 -1.670014,-14.574686 z M 58.961816,76.383117 V 56.950203 l 16.933315,9.716457 z"
       id="path1467" />
  </g>
</svg>
