<?xml version="1.0" encoding="UTF-8" standalone="no"?>
<svg
   xmlns:dc="http://purl.org/dc/elements/1.1/"
   xmlns:cc="http://creativecommons.org/ns#"
   xmlns:rdf="http://www.w3.org/1999/02/22-rdf-syntax-ns#"
   xmlns:svg="http://www.w3.org/2000/svg"
   xmlns="http://www.w3.org/2000/svg"
   xmlns:sodipodi="http://sodipodi.sourceforge.net/DTD/sodipodi-0.dtd"
   xmlns:inkscape="http://www.inkscape.org/namespaces/inkscape"
   inkscape:version="1.0 (4035a4fb49, 2020-05-01)"
   height="775.97998"
   width="775.97998"
   sodipodi:docname="sri_lankan_circle_01.svg"
   version="1.1"
   viewBox="0 0 775.97998 775.97998"
   data-name="Layer 1"
   id="Layer_1">
  <metadata
     id="metadata98">
    <rdf:RDF>
      <cc:Work
         rdf:about="">
        <dc:format>image/svg+xml</dc:format>
        <dc:type
           rdf:resource="http://purl.org/dc/dcmitype/StillImage" />
      </cc:Work>
    </rdf:RDF>
  </metadata>
  <sodipodi:namedview
     inkscape:current-layer="Layer_1"
     inkscape:window-maximized="1"
     inkscape:window-y="1072"
     inkscape:window-x="-8"
     inkscape:cy="387.98999"
     inkscape:cx="387.98999"
     inkscape:zoom="0.69933333"
     showgrid="false"
     id="namedview96"
     inkscape:window-height="1009"
     inkscape:window-width="1920"
     inkscape:pageshadow="2"
     inkscape:pageopacity="0"
     guidetolerance="10"
     gridtolerance="10"
     objecttolerance="10"
     borderopacity="1"
     bordercolor="#666666"
     pagecolor="#ffffff" />
  <defs
     id="defs7">
    <style
       id="style2">.cls-1{fill:none;}.cls-2{clip-path:url(#clip-path);}.cls-3,.cls-7{fill:#fbed1d;}.cls-4{fill:#00a44f;}.cls-5{fill:#f38020;}.cls-6{fill:#a62c3a;}.cls-7{fill-rule:evenodd;}</style>
    <clipPath
       id="clip-path">
      <circle
         id="circle4"
         r="387.98999"
         cy="500"
         cx="750"
         class="cls-1" />
    </clipPath>
  </defs>
  <title
     id="title9">Sri Lankan</title>
  <g
     transform="translate(-362.01001,-112.01001)"
     id="g93"
     clip-path="url(#clip-path)"
     class="cls-2">
    <rect
       id="rect11"
       height="910.39001"
       width="799.53998"
       y="44.799999"
       x="350.23001"
       class="cls-3" />
    <rect
       id="rect13"
       height="799.29999"
       width="102.34"
       y="100.6"
       x="389.41"
       class="cls-4" />
    <rect
       id="rect15"
       height="799.29999"
       width="102.95"
       y="100.6"
       x="490.87"
       class="cls-5" />
    <rect
       id="rect17"
       height="796.29999"
       width="476.26001"
       y="102.1"
       x="634.33002"
       class="cls-6" />
    <path
       id="path19"
       d="m 692.41,194.64 c 2,-12.68 -6.22,-48.13 -28.17,-43.81 -2.85,0.56 -7,3 -9.25,-0.34 -1.14,-1.73 -1.67,-3.41 -2.91,-3.92 -2.86,-1.18 -7.2,3 -6.19,5.91 0.71,2 4,1.84 5.18,3.91 a 5.51,5.51 0 0 1 0.42,4.24 28.75,28.75 0 0 0 -1.69,10.65 13.82,13.82 0 0 0 3.63,8.39 c 8.91,10.72 33.28,4.73 38.98,14.97 z"
       class="cls-7" />
    <path
       id="path21"
       d="m 1052.52,334.14 c -2,-12.68 6.22,-48.13 28.17,-43.81 2.84,0.56 7,3 9.24,-0.34 1.14,-1.73 1.68,-3.41 2.91,-3.92 2.86,-1.18 7.21,3 6.2,5.91 -0.71,2 -4,1.84 -5.18,3.91 a 5.47,5.47 0 0 0 -0.42,4.24 28.82,28.82 0 0 1 1.68,10.65 13.7,13.7 0 0 1 -3.63,8.39 c -8.91,10.72 -33.28,4.73 -38.97,14.97 z"
       class="cls-7" />
    <path
       id="path23"
       d="m 692.41,804.37 c 2,12.68 -6.22,48.13 -28.17,43.81 -2.85,-0.56 -7,-3 -9.25,0.33 -1.14,1.74 -1.67,3.42 -2.91,3.93 -2.86,1.18 -7.2,-3 -6.19,-5.91 0.71,-2 4,-1.84 5.18,-3.91 a 5.51,5.51 0 0 0 0.42,-4.24 28.75,28.75 0 0 1 -1.69,-10.65 13.82,13.82 0 0 1 3.63,-8.39 c 8.91,-10.72 33.28,-4.73 38.98,-14.97 z"
       class="cls-7" />
    <path
       id="path25"
       d="m 1052.52,667.87 c -2,12.68 6.22,48.13 28.17,43.81 2.84,-0.56 7,-3 9.24,0.33 1.14,1.74 1.68,3.42 2.91,3.93 2.86,1.18 7.21,-3 6.2,-5.91 -0.71,-2 -4,-1.84 -5.18,-3.91 a 5.47,5.47 0 0 1 -0.42,-4.24 28.82,28.82 0 0 0 1.68,-10.65 13.7,13.7 0 0 0 -3.63,-8.39 c -8.91,-10.72 -33.28,-4.73 -38.97,-14.97 z"
       class="cls-7" />
    <path
       id="path27"
       d="m 1020.66,418.39 c -5.5,-9.74 10.75,-15.13 13.15,-3.08 2.91,14.6 -15.64,16.76 -24.93,9.69 -8.14,-6.19 -15.81,-15.7 -22.07,-18.24 0,0 1.31,1.07 1.92,7 0.61,5.93 6.95,7.26 6.95,7.26 0,0 -16.53,1.06 -21.67,-12.78 0,0 -0.91,13.07 -14.72,11.42 0,0 15.8,-18 -7.59,-25.42 0,0 13.44,20.78 -14.49,25.42 0,0 15.12,-14.9 -2.11,-25.64 0,0 -9.18,-4.74 -9,-0.68 0,0 5.45,5.61 -3.52,11.42 0,0 -1.72,-10.16 -13.82,-2.81 0,0 -9.67,9.2 3.43,17.91 0,0 5.24,-10.26 16.53,-7.45 0,0 8.07,4.06 1.32,4.45 0,0 -14.32,4.74 -2.63,16.64 0,0 3.53,-9 9.48,-7.55 -5.21,17.15 34.68,10.77 42.34,8.91 0,0 18,-4 29.92,0.81 21.34,8.65 20.06,37 1.82,44.3 a 29.74,29.74 0 0 1 6.37,9 c 8.45,17.05 7.91,35.79 -0.06,53.24 -3.55,7.76 -5.11,17.3 -7.24,28.07 -1.33,6.72 1.05,12.6 3.27,16.43 2.1,3.62 3.06,5.36 7.51,6 1.39,0.18 2.56,0.24 2.56,0.24 4.12,2.45 -2.41,9.94 -7.66,13.35 -5.25,3.41 -5,5.59 -5.54,9.81 -0.54,4.22 3,8.59 6.82,14.31 3.82,5.72 -2.28,5.31 -6.39,5 -4.11,-0.31 -6.25,-4.5 -6.25,-4.5 -3.12,6.14 -7.24,4.77 -7.24,4.77 a 9.28,9.28 0 0 1 -7.38,-4.77 C 981.53,641.75 976,631 976,631 c -5.25,5.45 -9.51,4.5 -9.51,4.5 4.12,-16.49 21,-15.67 21,-15.67 a 6.94,6.94 0 0 0 6,-6.41 L 993,599.64 c 0,-10.49 -11.08,-17.85 -19.45,-21.39 A 47.8,47.8 0 0 1 963,571.36 c -6,-4.85 -10.83,-12.45 -17.21,-16.32 A 25.78,25.78 0 0 0 939,552.2 c -23.11,-6.2 -44.94,3.07 -65.2,13.21 a 138.73,138.73 0 0 1 -16.9,7 c -1,0.36 -0.87,0.19 -1.38,1.24 A 109.71,109.71 0 0 1 848.24,586 c -7.16,11 5.55,12.77 13.49,12.54 -3.27,12.4 -17.18,14.31 -17.18,14.31 -4.54,0.27 -4.54,5.72 -3,6.95 1.54,1.23 1.56,4.9 1.56,4.9 0.14,5.45 -5,10.63 -5,10.63 -8.94,0.82 -11.92,-3.81 -11.92,-3.81 -3.12,3.4 -4.68,3.67 -9.37,3.81 a 6.83,6.83 0 0 1 -6.39,-4 l -2.12,2.32 a 11.53,11.53 0 0 1 -6.53,1.9 c -3.55,-0.13 -5.54,-3.81 -5.54,-3.81 -4.68,4.63 -9.08,3.68 -9.08,3.68 0,0 2.12,-9 5.39,-13.08 3.27,-4.08 11.06,-2.63 13.92,-2.72 a 28.45,28.45 0 0 0 7.33,-1.06 c 15.28,-4.56 8.36,-22.18 4.93,-32.48 l -1.88,-5.64 -0.35,-1.59 c -21.47,-9 -38.9,-24.64 -41.25,-48.23 -2.22,-22.22 14.29,-40.31 32.45,-51.22 a 20.83,20.83 0 0 0 5.73,-4.88 5.63,5.63 0 0 0 1.18,-4.69 c -0.88,-3 -5.31,-2.82 -7.07,-0.64 a 10.91,10.91 0 0 0 -1.94,4.71 v 0 a 2.88,2.88 0 0 1 -1,-0.33 9,9 0 0 1 -2.43,-1.46 c -2.67,-2.25 -2.08,-8.28 -4.9,-9 a 17.56,17.56 0 0 1 -0.41,3.44 33,33 0 0 1 -0.69,3.87 c -0.54,1.92 0,1 0,1 0,0 -6.34,-3.83 -6.34,-8.18 0,0 -3.27,4 -12.7,3.31 a 5.85,5.85 0 0 0 1.9,-1 6.94,6.94 0 0 0 1.97,-2.55 6.93,6.93 0 0 1 0.87,-2.64 c 0,-0.15 0.06,-0.27 0.08,-0.37 -0.3,0.09 -0.61,0.16 -0.92,0.23 a 32.66,32.66 0 0 1 -5.57,1.41 l -7.21,0.4 a 4.31,4.31 0 0 0 -2.33,0.66 c -0.6,0.36 1.2,-1.65 1.38,-1.92 a 10,10 0 0 0 1.52,-5.05 c 0,-4.66 2.66,-9.64 4.79,-10.37 l 0.41,-0.39 14.79,5.04 c 5.07,1.23 10.39,2 14.12,1.35 l -1.7,2.9 7,2.41 a 26.64,26.64 0 0 1 5.18,0.78 c 0,0 5.62,0.87 3.45,-3.13 a 86.74,86.74 0 0 0 -10.36,-14.8 c -2.29,-2.78 -4.6,-6.21 -4.69,-8.88 0,0 -2.54,-0.87 -1.45,8 -4,-2.9 -6.65,-3.52 -9.8,-7.83 0,0 0.55,5.57 1.27,7.48 0.72,1.91 -2.35,-1 -5.62,-3.13 -3.27,-2.13 -4.71,-7.14 -6.35,-8 -4.61,-2.46 -12.25,-9.5 -10.15,-15.32 -4.22,-4.23 -3.6,-9.32 -0.34,-12.46 3,-2.85 7.08,-3.68 10.23,-2.24 3.73,1.72 6,7.12 3.35,10.53 l 12.33,-1.92 a 52.53,52.53 0 0 1 9.43,-2.09 56.68,56.68 0 0 1 6.89,-0.52 c 0.91,0 6.71,-3.31 7.25,-7.31 0.54,-4 -2,-3.83 -1.27,-6.62 0,0 1.45,1.22 5.26,0.52 3.81,-0.7 10,-0.87 14.51,3.49 0,0 5.08,6.09 6.71,-1.57 0,0 0.18,-6.79 -1.81,-7.31 0,0 16.14,3.65 18.86,11.14 0,0 3.8,-5.05 3.8,-7.49 0,-2.44 -0.72,-3 -0.72,-3 0,0 9.61,2.62 13.42,6.62 3.81,4 4.53,4.35 9.25,4 0,0 7.07,-3 7.79,-8 0,0 3.27,11.14 -9.06,20.89 0,0 8.08,6.17 5.37,23.36 a 8.07,8.07 0 0 1 0.54,2.8 c 0.3,5.73 -1.29,16.06 -1.29,16.06 a 19.52,19.52 0 0 0 -2.64,-3.23 l -0.05,0.63 c -0.94,2.26 1.07,7.47 2.53,11 0.57,1.39 1.06,2.52 1.25,3.11 0.77,2.32 -0.33,5.28 -0.54,4 -0.17,-0.94 -1.84,-3.27 -5.56,-5.84 l -0.06,0.13 c -2.3,8.66 5.62,14.69 5.62,14.69 -0.65,0.16 -1.27,0.31 -1.85,0.47 a 6,6 0 0 0 1.27,3 h 0.13 c 3.47,-1.48 7.78,-1.94 12.58,-2.11 a 240.18,240.18 0 0 0 34.45,-3.31 c 23,-4.09 46.78,-7.85 62.23,-0.69 11.61,5.38 15.89,-16.1 9.64,-23.35 -8.06,-9.36 -26,-4.9 -39,-2.73 -15.09,2.5 -32.71,3.18 -46.74,-3.23 -4.42,-2 -7.63,-3.78 -10.14,-3.21 -3.83,0.87 -5.66,3.07 -5.56,10.81 0,0 -14.1,-8.68 -3.51,-21.36 0,0 -12,-11.41 -9.58,-24.38 2,-10.94 15.85,-23.13 38.41,-25.33 30.72,-3 53.12,15.28 74.86,32.68 1.7,1.37 9.42,8.3 12.71,5.93 z"
       class="cls-7" />
    <path
       id="path29"
       d="m 1019.66,418.07 c -1.44,-3 -1,-5.62 0.47,-7.49 a 7.58,7.58 0 0 1 3.55,-2.49 8.32,8.32 0 0 1 4.46,-0.25 c 2.87,0.65 5.52,2.91 6.4,7.33 a 12.69,12.69 0 0 1 -0.53,7.48 10.63,10.63 0 0 1 -5.56,5.5 18.24,18.24 0 0 1 -8.32,1.46 21.17,21.17 0 0 1 -11.7,-4 h -0.06 a 120.47,120.47 0 0 1 -9.48,-8.37 c -3.74,-3.54 -7.28,-6.88 -10.44,-8.76 a 25.19,25.19 0 0 1 1,5.25 c 0.55,5.37 6.37,6.61 6.39,6.61 a 0.73,0.73 0 0 1 -0.15,1.45 c -0.6,0 -15.35,0.76 -21.4,-11 -1,3.88 -4.42,10.94 -15.1,9.66 a 0.74,0.74 0 0 1 -0.65,-0.81 0.75,0.75 0 0 1 0.2,-0.42 c 0.65,-0.76 13.74,-16.32 -5.47,-23.59 2.6,5.22 8.15,20.81 -15.95,24.82 a 0.75,0.75 0 0 1 -0.85,-0.61 0.71,0.71 0 0 1 0.23,-0.65 c 0.61,-0.62 14.08,-14.45 -2,-24.48 -0.58,-0.29 -7.54,-3.78 -7.85,-1.57 1,1.19 4.75,6.72 -3.87,12.3 a 0.75,0.75 0 0 1 -1,-0.22 0.76,0.76 0 0 1 -0.11,-0.32 c -0.14,-0.71 -2,-8.73 -12.62,-2.3 -0.76,0.77 -8.07,8.59 2.73,16.26 1.49,-2.36 7,-9.59 16.95,-7.11 a 0.67,0.67 0 0 1 0.21,0.09 c 0.78,0.4 10,5.24 1.08,5.8 -1.08,0.39 -12,4.63 -3,14.61 1.2,-2.44 4.64,-8.23 9.88,-7 a 0.74,0.74 0 0 1 0.54,0.89 v 0 0 a 8.93,8.93 0 0 0 -0.42,3.13 c 0.19,2.74 2.15,4.55 5.12,5.72 a 35.72,35.72 0 0 0 11.88,1.81 116.42,116.42 0 0 0 24.88,-2.68 v 0 c 0,0 18.21,-4.07 30.36,0.85 a 25.27,25.27 0 0 1 14.32,33.18 22.51,22.51 0 0 1 -11.46,12 26,26 0 0 1 2.79,3.39 39.08,39.08 0 0 1 2.92,5 v 0.05 a 61.64,61.64 0 0 1 3.06,7.34 59.84,59.84 0 0 1 2,7.5 c 2.56,12.92 0.65,26.28 -5.14,39 -3.08,6.72 -4.65,14.85 -6.42,24 -0.27,1.37 -0.53,2.75 -0.77,4 a 20.34,20.34 0 0 0 0.29,9 27.09,27.09 0 0 0 2.9,6.94 l 0.07,0.13 c 1.92,3.32 2.86,4.93 6.88,5.46 1.23,0.16 2.53,0.23 2.53,0.23 a 0.73,0.73 0 0 1 0.38,0.14 3.31,3.31 0 0 1 1.52,3.72 v 0 a 9.16,9.16 0 0 1 -1.22,2.9 27.89,27.89 0 0 1 -8,7.94 c -4.43,2.87 -4.66,4.81 -5,8.05 0,0.34 -0.08,0.68 -0.15,1.24 -0.46,3.36 2,7 5.12,11.49 l 1.57,2.31 c 1.94,2.9 1.62,4.55 0.2,5.49 -1.63,1.06 -4.76,0.86 -7.23,0.7 v 0 a 8.54,8.54 0 0 1 -6.16,-3.79 c -3,4.94 -6.77,4.22 -7.4,4.06 a 9.8,9.8 0 0 1 -7.33,-4.22 c -7.09,8.62 -12.26,2.46 -13.85,0 -5.23,5 -9.49,4 -9.51,4 a 0.73,0.73 0 0 1 -0.57,-0.87 v 0 0 c 4.1,-16.39 20.34,-16.27 21.67,-16.23 a 6.18,6.18 0 0 0 5.28,-5.68 l -0.42,-13.73 v 0 0 a 14.49,14.49 0 0 0 -0.82,-4.72 16.84,16.84 0 0 0 -1.73,-3.51 c -3.7,-5.8 -10.71,-10 -16.45,-12.47 a 33.17,33.17 0 0 1 -5.43,-3 c -1.81,-1.2 -3.62,-2.58 -5.32,-4 v 0 0 0 a 71.39,71.39 0 0 1 -7.19,-7.16 c -3.14,-3.44 -6.29,-6.88 -9.89,-9.06 a 24,24 0 0 0 -3.2,-1.62 27.43,27.43 0 0 0 -3.42,-1.14 c -11.42,-3.06 -22.53,-2.3 -33.29,0.48 -1.7,0.44 -3.39,0.92 -5.07,1.46 v -1.54 c 1.56,-0.49 3.12,-0.94 4.7,-1.34 11,-2.84 22.35,-3.62 34,-0.48 a 29.41,29.41 0 0 1 3.61,1.21 24.65,24.65 0 0 1 3.4,1.72 c 3.77,2.28 7,5.81 10.22,9.33 a 71.49,71.49 0 0 0 7,7 h 0.06 v 0 c 1.64,1.34 3.41,2.68 5.19,3.87 a 32.88,32.88 0 0 0 5.18,2.89 c 6,2.52 13.24,6.93 17.13,13 a 18.88,18.88 0 0 1 1.87,3.8 16.06,16.06 0 0 1 0.9,5.21 v 0 l 0.42,13.74 v 0 0 a 7.67,7.67 0 0 1 -6.56,7.1 h -0.17 c 0,0 -15.71,-0.76 -20,14.27 1.37,0 4.39,-0.58 8,-4.31 a 0.72,0.72 0 0 1 0.22,-0.17 0.74,0.74 0 0 1 1,0.31 c 0,0 5,9.71 12.5,-0.21 a 0.78,0.78 0 0 1 0.27,-0.24 0.76,0.76 0 0 1 1,0.32 8.51,8.51 0 0 0 6.75,4.37 0.63,0.63 0 0 1 0.19,0 c 0,0 3.52,1.17 6.36,-4.4 v 0 a 0.74,0.74 0 0 1 1.32,0 c 0,0 1.94,3.84 5.64,4.09 v 0 c 2.25,0.15 5.1,0.34 6.31,-0.46 0.69,-0.45 0.72,-1.46 -0.61,-3.45 l -1.57,-2.3 c -3.25,-4.75 -5.89,-8.59 -5.36,-12.5 0,-0.3 0.09,-0.77 0.15,-1.22 0.44,-3.67 0.7,-5.87 5.71,-9.11 a 26.41,26.41 0 0 0 7.54,-7.46 7.5,7.5 0 0 0 1,-2.42 v 0 a 2.19,2.19 0 0 0 -0.22,-1.63 1.9,1.9 0 0 0 -0.51,-0.51 c -0.35,0 -1.24,-0.08 -2.43,-0.23 -4.76,-0.63 -5.81,-2.44 -8,-6.19 l -0.07,-0.13 a 28.36,28.36 0 0 1 -3,-7.31 21.69,21.69 0 0 1 -0.32,-9.62 l 0.77,-4 c 1.79,-9.2 3.38,-17.4 6.52,-24.29 5.67,-12.4 7.54,-25.46 5,-38.08 a 57.9,57.9 0 0 0 -4.94,-14.47 v 0 a 38.16,38.16 0 0 0 -2.82,-4.83 22.22,22.22 0 0 0 -3.34,-3.87 0.92,0.92 0 0 1 -0.24,-0.31 0.74,0.74 0 0 1 0.42,-1 21,21 0 0 0 11.68,-11.67 23.71,23.71 0 0 0 -13.5,-31.27 c -11.57,-4.68 -29,-0.89 -29.48,-0.78 a 118.37,118.37 0 0 1 -25.24,2.72 c -4.67,-0.08 -9.09,-0.61 -12.41,-1.92 -3.5,-1.37 -5.82,-3.58 -6,-7 a 9.54,9.54 0 0 1 0.26,-2.84 c -4.72,-0.38 -7.67,6.75 -7.85,7.2 a 0.84,0.84 0 0 1 -0.18,0.28 0.75,0.75 0 0 1 -1.05,0 c -12.51,-12.74 2.87,-17.83 2.91,-17.85 v 0 h 0.2 c 3.74,-0.21 -0.84,-2.67 -1.52,-3 -10.67,-2.6 -15.6,7.07 -15.62,7.09 v 0 c 0,0 0,0 0,0.08 a 0.76,0.76 0 0 1 -1,0.2 c -13.61,-9.05 -3.94,-18.64 -3.55,-19 a 0.44,0.44 0 0 1 0.15,-0.12 c 10.49,-6.38 13.76,-0.37 14.64,2.23 6.84,-5 2.79,-9.46 2.55,-9.71 a 0.73,0.73 0 0 1 -0.21,-0.48 c -0.26,-5.21 9.46,-0.31 10,0 l 0.09,0.05 c 14.52,9 7.14,20.86 3.69,25.14 24,-5.12 11.92,-23.85 11.89,-23.91 A 0.73,0.73 0 0 1 951,394 a 0.75,0.75 0 0 1 0.93,-0.48 c 21,6.68 11.87,21.38 8.8,25.51 11.65,0.57 12.53,-10.63 12.55,-10.86 a 0.75,0.75 0 0 1 0.48,-0.64 0.76,0.76 0 0 1 1,0.44 c 3.43,9.24 12.15,11.58 17.19,12.14 a 8.38,8.38 0 0 1 -3.91,-6.3 c -0.58,-5.61 -1.68,-6.49 -1.68,-6.5 v 0 a 0.72,0.72 0 0 1 -0.18,-0.81 0.74,0.74 0 0 1 1,-0.41 c 3.89,1.58 8.2,5.66 12.82,10 a 121.91,121.91 0 0 0 9.38,8.28 v 0 a 19.7,19.7 0 0 0 10.86,3.72 16.64,16.64 0 0 0 7.64,-1.32 9.19,9.19 0 0 0 4.81,-4.73 11.23,11.23 0 0 0 0.44,-6.64 c -0.75,-3.75 -2.92,-5.65 -5.27,-6.18 a 6.84,6.84 0 0 0 -3.65,0.21 6.14,6.14 0 0 0 -2.86,2 c -1.21,1.58 -1.51,3.87 0,6.56 v 0 a 0.74,0.74 0 0 1 -0.21,1 c -3.46,2.49 -10.43,-3.3 -13,-5.45 l -0.6,-0.5 -0.83,-0.66 c -21.37,-17.1 -43.47,-34.79 -73.5,-31.86 -15.35,1.5 -26.58,7.66 -32.71,14.87 v -2.21 c 6.55,-6.91 17.69,-12.67 32.57,-14.12 30.63,-3 53,14.89 74.57,32.18 l 0.82,0.66 0.63,0.51 c 2.19,1.82 7.83,6.5 10.63,5.66 z M 900.44,476 v 1.47 c 0.82,-0.06 1.66,-0.1 2.52,-0.13 6,-0.21 11.67,-0.52 17.35,-1 5.68,-0.48 11.33,-1.24 17.2,-2.28 11.48,-2 23.14,-4 33.86,-4.55 10.72,-0.55 20.33,0.28 27.93,3.8 a 7.91,7.91 0 0 0 6.57,0.39 9.58,9.58 0 0 0 4.47,-4.27 20,20 0 0 0 2.23,-6.67 c 0.8,-5.14 0,-10.78 -2.75,-13.93 -7.48,-8.69 -22.8,-6 -35.44,-3.73 -1.41,0.25 -2.78,0.49 -4.3,0.74 a 117.08,117.08 0 0 1 -23.62,1.72 c -8,-0.31 -15.77,-1.72 -22.69,-4.88 v 0 l -1.68,-0.78 c -3.69,-1.72 -6.5,-3 -8.92,-2.47 a 6.62,6.62 0 0 0 -4.74,3.18 c -0.86,1.52 -1.33,3.71 -1.39,6.92 -3,-2.35 -10.42,-9.64 -2.21,-19.47 a 0.72,0.72 0 0 0 -0.09,-1 36.89,36.89 0 0 1 -4.29,-5.19 v 2.49 a 36.53,36.53 0 0 0 2.82,3.3 19.11,19.11 0 0 0 -2.82,4.76 v 9.14 a 19.16,19.16 0 0 0 6.89,8 0.77,0.77 0 0 0 0.44,0.14 0.74,0.74 0 0 0 0.73,-0.75 c 0,-3.73 0.35,-6.1 1.21,-7.61 a 5.26,5.26 0 0 1 3.78,-2.47 c 1.93,-0.44 4.53,0.77 8,2.37 l 1.68,0.78 v 0 c 7.11,3.25 15.12,4.7 23.25,5 a 119.05,119.05 0 0 0 23.92,-1.74 c 1.26,-0.21 2.77,-0.47 4.32,-0.75 12.26,-2.17 27.12,-4.81 34.05,3.24 2.43,2.82 3.16,8 2.41,12.76 a 18.1,18.1 0 0 1 -2.05,6.17 8.21,8.21 0 0 1 -3.75,3.64 6.51,6.51 0 0 1 -5.37,-0.36 c -7.85,-3.64 -17.78,-4.51 -28.64,-4 -10.86,0.51 -22.51,2.52 -34,4.57 -5.82,1 -11.44,1.76 -17.08,2.27 -5.64,0.51 -11.31,0.82 -17.27,1 q -1.31,0.07 -2.53,0.18 z m 0,78.89 c -9,2.85 -17.8,7 -26.31,11.22 -2.88,1.44 -5.61,2.66 -8.38,3.79 -2.77,1.13 -5.58,2.16 -8.62,3.23 l -0.31,0.11 -0.32,0.11 v 0 a 3.68,3.68 0 0 0 -0.22,0.44 v 0 l -0.1,0.21 v 0 a 103.68,103.68 0 0 1 -6.73,11.55 l -0.55,0.85 a 12.46,12.46 0 0 0 -1.89,4.21 4.33,4.33 0 0 0 1,4 9.11,9.11 0 0 0 4.19,2.28 33.25,33.25 0 0 0 9.54,1 0.74,0.74 0 0 1 0.76,0.71 0.64,0.64 0 0 1 0,0.2 v 0 c -3.39,12.88 -17.74,14.85 -17.78,14.85 h -0.08 a 3.22,3.22 0 0 0 -2.42,1.15 3.63,3.63 0 0 0 -0.64,1.29 4.44,4.44 0 0 0 -0.14,1.44 2.53,2.53 0 0 0 0.65,1.76 c 1.84,1.45 1.84,5.47 1.84,5.48 v 0 c 0.11,5.74 -5.16,11.07 -5.17,11.09 a 0.74,0.74 0 0 1 -0.49,0.22 c -7.14,0.65 -10.7,-2.09 -12,-3.44 a 10.28,10.28 0 0 1 -3.81,2.72 17,17 0 0 1 -5.51,0.72 7.41,7.41 0 0 1 -6.55,-3.43 l -1.44,1.56 -0.1,0.09 v 0 a 12.36,12.36 0 0 1 -7,2.05 v 0 a 7.69,7.69 0 0 1 -5.65,-3.41 c -4.72,4.2 -9.08,3.26 -9.09,3.26 a 0.74,0.74 0 0 1 -0.58,-0.87 v -0.05 c 0.14,-0.6 2.27,-9.26 5.53,-13.34 v 0 l 0.07,-0.09 v -0.05 c 2.92,-3.45 8.64,-3.13 12.3,-2.92 0.84,0 1.56,0.09 2.07,0.07 a 32.83,32.83 0 0 0 3.89,-0.33 23.42,23.42 0 0 0 3.25,-0.7 c 11.53,-3.45 9.66,-15 6.74,-24.54 -0.57,-1.88 -1.17,-3.65 -1.72,-5.27 l -0.58,-1.74 -1.88,-5.64 a 0.31,0.31 0 0 1 0,-0.13 l -0.26,-1.17 q -4.36,-1.84 -8.48,-4.07 a 84.44,84.44 0 0 1 -8.16,-5 c -8.94,-6.25 -16.2,-14.14 -20.55,-23.83 v -4 c 4,11 11.67,19.78 21.4,26.59 a 83.2,83.2 0 0 0 8,4.94 c 2.78,1.51 5.68,2.89 8.66,4.15 v 0 a 0.72,0.72 0 0 1 0.44,0.52 l 0.34,1.54 1.88,5.62 c 0.34,1 0.44,1.34 0.58,1.73 0.56,1.68 1.18,3.49 1.73,5.32 3.12,10.23 5.06,22.54 -7.74,26.36 a 24.62,24.62 0 0 1 -3.46,0.76 37.17,37.17 0 0 1 -4.06,0.34 c -0.59,0 -1.33,0 -2.19,-0.08 -3.38,-0.19 -8.67,-0.48 -11.1,2.42 v 0 l -0.06,0.09 v 0 c -2.58,3.23 -4.45,9.69 -5,12 1.38,0 4.38,-0.35 7.6,-3.52 a 1.56,1.56 0 0 1 0.2,-0.16 0.76,0.76 0 0 1 1,0.29 c 0,0 1.79,3.32 4.91,3.44 a 10.71,10.71 0 0 0 6,-1.72 l 2.06,-2.24 a 0.74,0.74 0 0 1 0.28,-0.21 0.76,0.76 0 0 1 1,0.39 6,6 0 0 0 5.68,3.51 15.87,15.87 0 0 0 5,-0.64 10,10 0 0 0 3.79,-2.91 0.61,0.61 0 0 1 0.17,-0.15 0.74,0.74 0 0 1 1,0.22 c 0,0 2.68,4.16 11,3.5 0.89,-1 4.66,-5.32 4.57,-9.85 v -0.07 c 0,0 0,-3.32 -1.28,-4.33 a 3.92,3.92 0 0 1 -1.21,-2.83 5.91,5.91 0 0 1 0.19,-1.9 4.8,4.8 0 0 1 0.91,-1.82 4.63,4.63 0 0 1 3.46,-1.7 c 0.54,-0.08 12.77,-2 16.27,-12.83 a 32.92,32.92 0 0 1 -9,-1 10.51,10.51 0 0 1 -4.87,-2.69 5.7,5.7 0 0 1 -1.35,-5.23 13.49,13.49 0 0 1 2.09,-4.72 l 0.55,-0.86 a 100.68,100.68 0 0 0 6.64,-11.38 v 0 l 0.1,-0.21 v 0 a 2.74,2.74 0 0 1 0.56,-0.9 v 0 a 2.13,2.13 0 0 1 0.84,-0.41 l 0.3,-0.1 c 3,-1.07 5.83,-2.1 8.55,-3.21 2.72,-1.11 5.41,-2.31 8.27,-3.74 8.7,-4.36 17.7,-8.56 27,-11.45 v 1.54 z M 778.72,508.11 c 5.87,-12.2 16.92,-22.23 28.65,-29.28 v 0 0 l 0.83,-0.52 c 0.28,-0.18 0.56,-0.38 0.85,-0.59 a 17.83,17.83 0 0 0 3.81,-3.56 v 0 c 0.13,-0.18 0.26,-0.37 0.37,-0.55 0.11,-0.18 0.22,-0.4 0.31,-0.59 a 4.29,4.29 0 0 0 0.38,-2.91 2.16,2.16 0 0 0 -0.76,-1.14 2.84,2.84 0 0 0 -1.41,-0.56 4.09,4.09 0 0 0 -1.73,0.14 3.69,3.69 0 0 0 -1.88,1.18 7.19,7.19 0 0 0 -1,1.7 14.63,14.63 0 0 0 -0.8,2.7 0.76,0.76 0 0 1 -0.8,0.59 h -0.07 -0.14 v 0 h -0.18 v 0 a 4.53,4.53 0 0 1 -0.86,-0.32 9,9 0 0 1 -1.17,-0.58 9.21,9.21 0 0 1 -1.42,-1 v 0 c -1.41,-1.2 -2,-3.19 -2.51,-5.07 a 10.43,10.43 0 0 0 -1.24,-3.15 14.81,14.81 0 0 1 -0.35,2.26 l -0.08,0.57 v 0 c 0,0.26 -0.06,0.47 -0.08,0.62 -0.17,1.06 -0.35,2.07 -0.53,2.72 0,0.15 -0.08,0.28 -0.12,0.41 a 0.71,0.71 0 0 1 0,0.79 c 0,0 -3,5 -1.73,-0.19 -1.5,-1 -4.94,-3.7 -5.81,-6.9 -1.55,1.12 -4.85,2.79 -10.61,2.67 V 465 l 0.08,-0.05 h -0.08 v 0 l 0.2,-0.18 v 0 l 0.26,-0.28 v 0 a 7.38,7.38 0 0 0 1.08,-1.71 9.12,9.12 0 0 1 0.41,-1.66 c -0.63,0.22 -1.33,0.41 -2,0.58 v -1.51 a 18.36,18.36 0 0 0 2,-0.65 v 0 h 0.12 l 0.44,-0.11 v 0 l 0.39,-0.1 a 0.64,0.64 0 0 1 0.39,0 0.74,0.74 0 0 1 0.59,0.86 v 0.17 0 0.2 0 a 0.78,0.78 0 0 1 -0.09,0.24 3.72,3.72 0 0 0 -0.39,0.82 8.85,8.85 0 0 0 -0.38,1.54 v 0 a 0.59,0.59 0 0 1 0,0.19 8.68,8.68 0 0 1 -1.36,2.17 v 0 l -0.35,0.36 v 0 0 l -0.16,0.14 c 6.74,-0.1 9.27,-2.83 9.51,-3.09 a 0.72,0.72 0 0 1 0.59,-0.29 0.74,0.74 0 0 1 0.74,0.73 c 0,2.88 3.2,5.59 4.92,6.83 0.15,-0.58 0.31,-1.47 0.46,-2.42 0,-0.25 0.07,-0.46 0.09,-0.61 v 0 l 0.07,-0.56 c 0,-0.05 0,-0.09 0,-0.13 a 14.55,14.55 0 0 0 0.36,-2.44 c 0,-0.17 0,-0.31 0,-0.42 0,-0.11 0,-0.27 0,-0.37 v 0 a 0.44,0.44 0 0 1 0,-0.2 0.74,0.74 0 0 1 0.9,-0.53 c 1.92,0.49 2.51,2.58 3.14,4.81 0.48,1.67 1,3.44 2.05,4.35 v 0 a 8.38,8.38 0 0 0 1.2,0.83 9,9 0 0 0 1,0.49 h 0.11 l 0.1,0.06 a 15.86,15.86 0 0 1 0.71,-2.2 9,9 0 0 1 1.2,-2.06 5.22,5.22 0 0 1 2.63,-1.67 5.77,5.77 0 0 1 2.33,-0.19 4.44,4.44 0 0 1 2.15,0.87 3.68,3.68 0 0 1 1.25,1.89 5.67,5.67 0 0 1 -0.45,3.92 c -0.12,0.25 -0.25,0.5 -0.38,0.72 -0.13,0.22 -0.3,0.47 -0.46,0.69 v 0 a 19.06,19.06 0 0 1 -4.12,3.87 c -0.29,0.21 -0.59,0.42 -0.9,0.62 -0.31,0.2 -0.56,0.36 -0.88,0.55 v 0 0 c -12.48,7.5 -24.17,18.41 -29.41,31.72 v -3.7 z m 0,-62.36 10.28,3.52 a 60.36,60.36 0 0 0 7.44,1.37 22.31,22.31 0 0 0 6.35,0 0.74,0.74 0 0 1 0.86,0.59 0.67,0.67 0 0 1 -0.09,0.5 v 0 l -1.25,2.13 6.08,2.08 h 0.68 l 0.76,0.08 a 23,23 0 0 1 3.75,0.67 c 0.42,0.05 4,0.48 2.64,-2.07 a 70.27,70.27 0 0 0 -4.77,-7.64 c -1.66,-2.32 -3.44,-4.53 -5.51,-7 a 35.54,35.54 0 0 1 -3.24,-4.59 12.6,12.6 0 0 1 -1.51,-3.8 c -0.34,0.54 -0.67,2.17 -0.08,7 a 0.74,0.74 0 0 1 -1.22,0.64 c -1.16,-0.85 -2.23,-1.51 -3.23,-2.13 a 22,22 0 0 1 -5,-3.86 27.72,27.72 0 0 0 0.94,4.83 c 0.32,0.85 0.15,1.34 -0.42,1.55 -0.57,0.21 -1.82,-0.6 -3.31,-1.7 -0.89,-0.66 -1.92,-1.43 -3,-2.11 v 0 c -2,-1.3 -3.32,-3.54 -4.41,-5.4 a 8.1,8.1 0 0 0 -1.85,-2.55 v 0 c -0.27,-0.15 -0.55,-0.3 -0.83,-0.47 v -1.75 a 16.75,16.75 0 0 0 1.53,0.92 v 0 c 0.87,0.46 1.59,1.68 2.43,3.11 1,1.72 2.23,3.81 3.95,4.92 v 0 c 1.08,0.69 2.16,1.49 3.08,2.17 0.47,0.35 0.87,0.68 1.17,0.94 a 61.09,61.09 0 0 1 -1,-6.76 0.73,0.73 0 0 1 0.3,-0.68 0.75,0.75 0 0 1 1,0.17 18.88,18.88 0 0 0 6.26,5.44 c 0.64,0.4 1.32,0.82 2,1.3 -0.65,-8.27 2.56,-7.19 2.57,-7.19 v 0 a 0.74,0.74 0 0 1 0.53,0.68 9.4,9.4 0 0 0 1.42,4.06 33.18,33.18 0 0 0 3.1,4.38 c 2.09,2.54 3.89,4.77 5.56,7.12 a 72.46,72.46 0 0 1 4.88,7.79 c 2.85,5.25 -4,4.23 -4.21,4.21 h -0.08 a 23.51,23.51 0 0 0 -3.57,-0.63 c -0.19,0 -0.44,-0.05 -0.72,-0.07 l -0.72,-0.06 v 0 a 0.65,0.65 0 0 1 -0.19,0 l -7,-2.39 a 0.62,0.62 0 0 1 -0.19,-0.07 0.75,0.75 0 0 1 -0.27,-1 l 0.95,-1.61 a 27.7,27.7 0 0 1 -5.25,-0.15 61.75,61.75 0 0 1 -7.64,-1.41 h -0.08 l -9.85,-3.37 v -1.55 z m 0,-49.75 v 1.54 a 6.44,6.44 0 0 1 0.61,0.24 6.54,6.54 0 0 1 1.1,0.66 7.58,7.58 0 0 1 2.6,3.68 5.69,5.69 0 0 1 -0.12,4.22 4.41,4.41 0 0 1 -0.52,0.85 0.74,0.74 0 0 0 0.77,1.16 l 12.27,-1.91 h 0.12 v 0 a 51,51 0 0 1 9.28,-2.06 c 2.34,-0.26 3.83,-0.39 4.84,-0.45 1.01,-0.06 1.52,-0.07 2,-0.07 h 0.12 a 3.2,3.2 0 0 0 0.82,-0.25 10,10 0 0 0 1.13,-0.57 c 2.18,-1.26 5.49,-4 5.92,-7.13 a 5.78,5.78 0 0 0 -0.87,-4.35 2.93,2.93 0 0 1 -0.51,-1.25 9.7,9.7 0 0 0 4.77,0.14 v 0 c 0.51,-0.09 1.08,-0.18 1.68,-0.24 0.6,-0.06 1.23,-0.11 1.87,-0.12 a 14.14,14.14 0 0 1 10.24,3.62 c 0.36,0.42 6.09,7 8,-1.91 a 0.5,0.5 0 0 0 0,-0.17 20.32,20.32 0 0 0 -0.76,-6.06 c 4.31,1.22 14.35,4.6 16.37,10.16 a 0.74,0.74 0 0 0 0.95,0.44 0.78,0.78 0 0 0 0.34,-0.25 v 0 c 0.16,-0.21 4,-5.29 4,-7.92 a 8.72,8.72 0 0 0 -0.17,-1.8 c 2.8,0.89 8.81,3 11.58,6 2,2.08 3.16,3.21 4.52,3.81 1.36,0.6 2.84,0.61 5.32,0.43 a 0.84,0.84 0 0 0 0.24,-0.06 c 0.06,0 4.89,-2.06 7.15,-5.71 0.13,3.79 -1,10.85 -9.17,17.34 a 0.72,0.72 0 0 0 -0.12,1 0.47,0.47 0 0 0 0.14,0.14 c 0.54,0.44 7.63,6.5 5.07,22.65 a 0.75,0.75 0 0 0 0.06,0.42 5.53,5.53 0 0 1 0.32,1.06 10,10 0 0 1 0.16,1.47 91.26,91.26 0 0 1 -1,14.11 c -0.08,-0.1 -0.15,-0.2 -0.23,-0.29 -0.46,-0.56 -0.93,-1.07 -1.4,-1.54 a 0.74,0.74 0 0 0 -1,0 0.77,0.77 0 0 0 -0.22,0.46 v 0 0.53 c -0.48,1.31 -0.21,3.28 0.38,5.38 a 56,56 0 0 0 2.19,6.07 v 0 0 c 0,0 0,0 0,0.05 l 0.4,1 c 0.37,0.89 0.67,1.6 0.81,2 a 5.59,5.59 0 0 1 0.21,2.2 19.94,19.94 0 0 0 -5.18,-4.85 0.75,0.75 0 0 0 -1,0.19 0.39,0.39 0 0 0 -0.06,0.11 l -0.05,0.09 a 0.58,0.58 0 0 0 -0.07,0.21 c -1.83,7 2.65,12.36 4.81,14.45 l -0.5,0.13 a 0.72,0.72 0 0 0 -0.54,0.83 5.79,5.79 0 0 0 0.47,1.72 7.75,7.75 0 0 0 0.94,1.58 0.73,0.73 0 0 0 0.72,0.28 h 0.08 a 0.65,0.65 0 0 0 0.21,-0.06 v 0 a 23.26,23.26 0 0 1 5.61,-1.49 c 1.34,-0.2 2.74,-0.34 4.19,-0.43 V 476 c -1.53,0.09 -3,0.23 -4.41,0.45 a 25.49,25.49 0 0 0 -5.52,1.4 5,5 0 0 1 -0.46,-0.85 4.66,4.66 0 0 1 -0.26,-0.71 l 0.24,-0.06 0.89,-0.23 a 0.73,0.73 0 0 0 0.33,-1.3 c 0,0 -7,-5.32 -5.56,-13 a 16.64,16.64 0 0 1 4,3.9 4.45,4.45 0 0 1 0.3,0.53 1.91,1.91 0 0 1 0.1,0.27 v 0 0 a 1.28,1.28 0 0 0 0.33,0.69 l 0.11,0.09 a 0.81,0.81 0 0 0 1.21,-0.27 2.45,2.45 0 0 0 0.32,-0.65 7.38,7.38 0 0 0 0,-4.22 c -0.15,-0.45 -0.46,-1.2 -0.85,-2.13 l -0.41,-1 v -0.05 0 a 54.94,54.94 0 0 1 -2.13,-5.9 11.11,11.11 0 0 1 -0.56,-3.88 l 0.31,0.36 a 20.34,20.34 0 0 1 1.21,1.66 0.75,0.75 0 0 0 1.38,-0.26 c 0,0 1.6,-10.39 1.3,-16.2 a 11,11 0 0 0 -0.19,-1.68 6.54,6.54 0 0 0 -0.33,-1.18 c 2.22,-14.43 -3.09,-21.29 -5,-23.24 11.6,-9.64 8.84,-20.46 8.67,-21.09 a 0.75,0.75 0 0 0 -1.46,0.06 c -0.62,4.29 -6.37,7 -7.25,7.39 -2.15,0.16 -3.4,0.15 -4.48,-0.32 -1.08,-0.47 -2.21,-1.54 -4,-3.46 -3.81,-4 -13.05,-6.62 -13.73,-6.81 a 0.73,0.73 0 0 0 -0.79,0.22 0.72,0.72 0 0 0 0.08,1 c 0,0 0.46,0.32 0.46,2.4 0,1.58 -1.86,4.49 -2.93,6 -4,-7.05 -18.78,-10.4 -18.83,-10.41 v 0 a 0.74,0.74 0 0 0 -0.35,1.43 c 1.34,0.35 1.27,5.82 1.26,6.51 -1.33,6.07 -5.39,1.2 -5.4,1.18 v 0 l -0.05,-0.06 a 15.56,15.56 0 0 0 -11.33,-4.06 q -1.07,0 -2,0.12 c -0.63,0.07 -1.23,0.16 -1.78,0.26 v 0 c -3.25,0.6 -4.5,-0.24 -4.65,-0.36 v 0 a 0.87,0.87 0 0 0 -0.27,-0.14 0.74,0.74 0 0 0 -0.9,0.53 3.63,3.63 0 0 0 0.57,3.28 4.56,4.56 0 0 1 0.68,3.42 c -0.35,2.6 -3.27,4.93 -5.2,6.05 a 9.84,9.84 0 0 1 -1,0.49 2.58,2.58 0 0 1 -0.34,0.13 v 0 c -0.46,0 -1,0 -2.06,0.07 -1.06,0.07 -2.54,0.2 -4.91,0.46 a 52.49,52.49 0 0 0 -9.53,2.11 l -10.76,1.67 a 7.28,7.28 0 0 0 0.06,-5 9.09,9.09 0 0 0 -3.12,-4.39 7.64,7.64 0 0 0 -1.37,-0.82 7.89,7.89 0 0 0 -1.23,-0.45 z m 121.72,47.45 a 11.94,11.94 0 0 1 0,-9.14 z m 0,-17.2 c -3.44,-4.5 -8.13,-12.51 -6.5,-21.26 v 0 0 a 19.49,19.49 0 0 1 1.6,-4.78 25.56,25.56 0 0 1 3,-4.74 c 0.59,-0.75 1.24,-1.5 1.93,-2.24 v 2.21 c -0.26,0.31 -0.52,0.62 -0.76,0.93 a 24,24 0 0 0 -2.79,4.46 18.35,18.35 0 0 0 -1.49,4.45 v 0 c -1.36,7.28 2,14.07 5,18.51 z M 778.72,546.5 a 50.57,50.57 0 0 1 -4.16,-15.75 v 0 a 40.1,40.1 0 0 1 0.13,-9.24 41.87,41.87 0 0 1 2.08,-8.69 46.81,46.81 0 0 1 2,-4.69 v 3.7 c -0.19,0.48 -0.38,1 -0.55,1.47 a 40.5,40.5 0 0 0 -2,8.4 39.48,39.48 0 0 0 -0.13,8.91 v 0 a 50,50 0 0 0 2.69,11.93 v 4 z m 0,-79 c -0.51,0 -1,0 -1.59,-0.08 a 0.74,0.74 0 0 1 -0.69,-0.78 0.76,0.76 0 0 1 0.59,-0.67 l 0.16,-0.05 0.22,-0.09 a 7.08,7.08 0 0 0 1.22,-0.76 v 0 l 0.08,-0.06 v 0 h -0.08 0.08 v 2.48 z m 0,-5.79 c -1.63,0.41 -3.12,0.64 -3.12,0.65 h -0.12 l -7.17,0.39 a 5.94,5.94 0 0 0 -1.06,0.14 3.63,3.63 0 0 0 -0.93,0.41 c -0.5,0.31 -0.88,0.21 -1.13,-0.21 v 0 a 0.2,0.2 0 0 1 0,-0.08 0.7,0.7 0 0 1 0.16,-0.82 7.84,7.84 0 0 1 1,-1.31 c 0.21,-0.26 0.39,-0.47 0.42,-0.52 v 0 c 0.13,-0.19 0.24,-0.4 0.35,-0.6 0.11,-0.2 0.22,-0.44 0.31,-0.65 a 9,9 0 0 0 0.75,-3.4 v 0 a 14.76,14.76 0 0 1 0.16,-2.11 17.38,17.38 0 0 1 0.43,-2 c 0.93,-3.32 2.83,-6.15 4.53,-6.88 a 4.5,4.5 0 0 1 0.49,-0.41 0.71,0.71 0 0 1 0.57,0 v 0 l 4.43,1.52 v 1.55 l -4.49,-1.54 -0.07,0.07 v 0 a 0.77,0.77 0 0 1 -0.29,0.17 c -1.32,0.45 -2.91,2.95 -3.75,5.95 a 15.21,15.21 0 0 0 -0.39,1.83 13.61,13.61 0 0 0 -0.15,1.89 v 0 a 10.5,10.5 0 0 1 -0.88,4 c -0.11,0.26 -0.23,0.51 -0.35,0.75 -0.12,0.24 -0.27,0.48 -0.41,0.71 v 0 a 0.91,0.91 0 0 1 -0.12,0.17 2.73,2.73 0 0 1 0.41,0 l 7.17,-0.4 c 0.27,0 1.79,-0.3 3.32,-0.7 v 1.51 z m 0,-34.36 c -0.43,-0.26 -0.87,-0.55 -1.33,-0.87 a 27.74,27.74 0 0 1 -2.28,-1.77 v 0 c -3.88,-3.34 -7.46,-8.23 -6.2,-12.67 a 9.77,9.77 0 0 1 -2.88,-6.84 9,9 0 0 1 2.78,-6.25 v 0 l 0.07,-0.07 v 0 a 0.12,0.12 0 0 1 0.05,-0.05 11.88,11.88 0 0 1 1.35,-1.11 10.27,10.27 0 0 1 1.51,-0.89 v 0 a 9.79,9.79 0 0 1 6.88,-0.76 v 1.54 a 8.28,8.28 0 0 0 -6.23,0.53 v 0 a 10.06,10.06 0 0 0 -1.31,0.78 9.54,9.54 0 0 0 -1.18,1 v 0 0 l -0.08,0.08 a 7.56,7.56 0 0 0 -2.34,5.23 8.45,8.45 0 0 0 2.7,6.05 v 0 a 0.74,0.74 0 0 1 0.2,0.79 c -1.38,3.83 2,8.37 5.63,11.5 v 0 a 26,26 0 0 0 2.17,1.68 l 0.47,0.32 z"
       class="cls-6" />
    <path
       id="path31"
       d="m 915.67,635.36 c 0,0 5.26,1.11 10.24,-4.62 0,0 1.41,3.11 3.42,4.27 1.56,0.9 4.87,0.69 6.38,0 1.29,-0.61 2.56,-1.89 3.73,-4.51 0,0 0.8,4.54 4.54,5.22 3.74,0.68 7.13,0 8.82,-4.53 3.47,4.13 7.41,4.18 12.46,3.93 A 21.22,21.22 0 0 0 967,631 c 1.36,-4.5 0.38,-6.27 -0.84,-10.34 -1.14,-3.82 -1.87,-9.72 2.15,-13.36 6.44,-5.84 11.3,-13.27 8.45,-16.35 -2.9,4.65 -9.22,2.53 -11.87,-1.44 -3.07,-4.59 0.9,-9.19 5,-13.21 v 0 0 c -0.83,-0.51 -1.67,-1.07 -2.51,-1.66 v 0 l -0.43,-0.31 v 0 l -0.33,-0.24 v 0 h -0.06 v 0 L 965.1,573 v 0 l -0.21,-0.17 -0.1,-0.07 v 0 l -0.14,-0.12 h -0.06 l -0.1,-0.08 v 0 l -0.31,-0.25 v 0 l -0.09,-0.07 h -0.07 v 0 0 l -0.19,-0.15 v 0 l -0.08,-0.07 v 0 l -0.14,-0.11 h -0.06 l -0.09,-0.07 v 0 l -0.11,-0.08 v 0 h -0.06 l -0.1,-0.08 c -6,-4.85 -10.83,-12.45 -17.21,-16.32 a 25.78,25.78 0 0 0 -6.98,-3.16 58.76,58.76 0 0 0 -15.33,-2 c 0,0.07 0,0.14 0,0.21 v 0 a 28.72,28.72 0 0 0 0.64,9.93 c 1.88,8 8.53,15.68 14.06,22.71 3.41,4.34 5.29,7.78 5.65,12.6 0.24,3.19 -0.49,5.34 -0.47,8.67 0,2.95 0.78,7.08 0.78,9.89 a 7,7 0 0 1 -3.55,6.34 c -6.24,3.81 -13.95,-0.43 -19.95,3.77 -4.89,3.42 -5.16,11.04 -5.16,11.04 z"
       class="cls-7" />
    <path
       id="path33"
       d="m 964.06,634.42 h 0.75 a 21.16,21.16 0 0 0 1.46,-3.62 c 1.11,-3.7 0.56,-5.47 -0.38,-8.44 -0.13,-0.44 -0.28,-0.9 -0.46,-1.49 v 0 0 c -0.16,-0.55 -0.32,-1.14 -0.45,-1.74 v 0 a 18.72,18.72 0 0 1 -0.33,-1.92 c -0.43,-3.53 0,-7.55 3.15,-10.37 v 0 0 c 0.87,-0.78 1.72,-1.61 2.53,-2.46 0.81,-0.85 1.57,-1.71 2.27,-2.57 3,-3.71 4.83,-7.32 4.07,-9.43 a 6,6 0 0 1 -1.25,1.09 6.27,6.27 0 0 1 -4,0.95 9.06,9.06 0 0 1 -4,-1.37 10.4,10.4 0 0 1 -3.18,-3 l -0.19,-0.3 v -7.36 a 25.57,25.57 0 0 1 4.59,-5.83 c -0.58,-0.37 -1.18,-0.78 -1.81,-1.21 v 0 0 0 l -0.43,-0.3 v 0 0 l -0.32,-0.23 v 0 0 0 l -0.18,-0.13 -0.17,-0.13 v 0 l -0.89,-0.67 v 0 l -0.21,-0.17 v 0 l -0.09,-0.07 -0.26,0.33 v 0 l 0.25,-0.31 v 0 0 l -0.11,-0.08 v 0 0 0 -1.88 h 0.05 l 0.08,0.06 v 0 l 0.19,0.15 v 0 0 l 0.08,0.06 v 0 l 0.07,0.06 v 0 l 0.26,0.21 v 0 l 0.1,0.08 v 0 h 0.06 l 0.1,0.08 v 0 0 l 0.09,0.07 v 0 l 0.21,0.16 v 0 l 0.88,0.65 v 0 l 0.17,0.12 0.17,0.13 v 0 0 0 0 l 0.32,0.23 v 0 l 0.43,0.31 v 0 0 0 c 0.56,0.39 1.16,0.79 1.78,1.19 v 0 l 0.3,0.19 v 0 l 0.35,0.21 v 0 a 1.09,1.09 0 0 1 0.17,0.13 0.73,0.73 0 0 1 0,1 25.91,25.91 0 0 0 -5,6.2 5.69,5.69 0 0 0 0.15,6.09 8.83,8.83 0 0 0 2.72,2.58 7.76,7.76 0 0 0 3.34,1.15 4.84,4.84 0 0 0 3.07,-0.71 5.13,5.13 0 0 0 1.48,-1.55 1.15,1.15 0 0 1 0.14,-0.17 0.74,0.74 0 0 1 1,0 c 2.35,2.55 0.36,7.37 -3.52,12.16 -0.72,0.89 -1.51,1.78 -2.35,2.66 -0.84,0.88 -1.68,1.7 -2.59,2.53 l -0.06,0.05 v 0 c -2.65,2.41 -3,6 -2.66,9.1 0.08,0.62 0.18,1.22 0.31,1.79 v 0 c 0.13,0.58 0.28,1.13 0.43,1.64 v 0 0 c 0.14,0.47 0.3,1 0.45,1.46 1,3.23 1.63,5.16 0.38,9.29 a 21.88,21.88 0 0 1 -1.78,4.27 v 0 a 0.77,0.77 0 0 1 -0.62,0.38 h -1.23 v -1.47 z m 0,-63.16 z m -17.4,63.93 a 5.68,5.68 0 0 0 5.44,-4.28 0.74,0.74 0 0 1 0.95,-0.43 0.67,0.67 0 0 1 0.35,0.26 9.56,9.56 0 0 0 5.21,3.33 20.67,20.67 0 0 0 5.45,0.35 v 1.47 a 21.38,21.38 0 0 1 -5.8,-0.4 10.81,10.81 0 0 1 -5.24,-3 7.08,7.08 0 0 1 -3.57,3.56 7.91,7.91 0 0 1 -2.79,0.59 v -1.47 z m 17.4,-45.59 a 7,7 0 0 1 0,-7.25 v -0.11 z m 0,-15.93 v 0 L 946.66,596 v 0 l 17.4,-22.31 z m 0,-2.41 v 1.88 h -0.07 v -0.05 l -0.26,-0.2 v 0 0 h -0.08 v 0 l -0.07,-0.06 v 0 0 l -0.18,-0.15 v 0 l -0.08,-0.07 v 0 0 l -0.11,-0.1 v 0 h -0.06 v 0 0 0 l -0.09,-0.08 v 0 0 0 H 963 v 0 l -0.06,-0.05 v 0 0 0 a 71.39,71.39 0 0 1 -7.19,-7.16 56.64,56.64 0 0 0 -8.65,-8.25 v -1.77 c 3.58,2.29 6.67,5.67 9.75,9 a 71.49,71.49 0 0 0 7,7 h 0.06 v 0 0 h 0.05 v 0 0 0 0 l 0.09,0.07 v 0 h 0.06 v 0 l 0.06,0.06 v 0 l 0.11,0.08 z m 0,0 z m -47.59,63.45 c 1.46,0.07 5.2,-0.22 8.88,-4.45 a 0.74,0.74 0 0 1 1.26,0.22 c 0.2,0.42 1.44,2.94 3.09,3.9 v 0 a 3.27,3.27 0 0 0 0.6,0.25 5.32,5.32 0 0 0 0.78,0.17 8.82,8.82 0 0 0 4.3,-0.47 v 0 a 5.12,5.12 0 0 0 1.67,-1.32 11.23,11.23 0 0 0 1.7,-2.82 0.74,0.74 0 0 1 1,-0.38 0.72,0.72 0 0 1 0.43,0.53 v 0 0 c 0.06,0.31 0.85,4.06 4,4.62 a 11.22,11.22 0 0 0 2.54,0.21 v 1.47 a 13.66,13.66 0 0 1 -2.81,-0.23 6.33,6.33 0 0 1 -4.56,-4 11.43,11.43 0 0 1 -1.1,1.56 6.45,6.45 0 0 1 -2.16,1.68 v 0 a 10.27,10.27 0 0 1 -5.14,0.6 6.46,6.46 0 0 1 -1,-0.22 4.14,4.14 0 0 1 -0.91,-0.38 v 0 a 10.08,10.08 0 0 1 -3.22,-3.63 c -5,5.16 -10.2,4.07 -10.21,4.07 v 0 a 0.74,0.74 0 0 1 -0.6,-0.74 c 0,0 0.28,-8 5.48,-11.62 3.27,-2.29 6.9,-2.22 10.56,-2.16 3.27,0.06 6.57,0.12 9.43,-1.63 a 6.34,6.34 0 0 0 2.78,-3.2 6.74,6.74 0 0 0 0.42,-2.52 47.83,47.83 0 0 0 -0.38,-4.81 c -0.18,-1.6 -0.36,-3.22 -0.4,-4.65 v -0.42 a 32.05,32.05 0 0 1 0.27,-4.05 22.51,22.51 0 0 0 0.2,-4.57 v 0 a 17.25,17.25 0 0 0 -1.61,-6.23 31.88,31.88 0 0 0 -3.88,-6 c -0.68,-0.87 -1.27,-1.6 -1.86,-2.34 -5.12,-6.43 -10.63,-13.34 -12.34,-20.65 v 0 a 31.77,31.77 0 0 1 -0.8,-5.57 27.67,27.67 0 0 1 0.13,-4.55 v 0 0 0 a 0.57,0.57 0 0 1 0,-0.13 0.74,0.74 0 0 1 0.74,-0.74 61.17,61.17 0 0 1 7.71,0.49 58.56,58.56 0 0 1 7.81,1.54 29.41,29.41 0 0 1 3.61,1.21 24.65,24.65 0 0 1 3.4,1.72 l 0.47,0.29 v 1.77 c -0.41,-0.28 -0.82,-0.56 -1.24,-0.81 a 24,24 0 0 0 -3.2,-1.62 27.43,27.43 0 0 0 -3.42,-1.14 56.64,56.64 0 0 0 -7.62,-1.5 59.93,59.93 0 0 0 -6.81,-0.47 26.17,26.17 0 0 0 -0.09,3.92 29.79,29.79 0 0 0 0.77,5.32 v 0 c 1.64,7 7,13.76 12.05,20.06 l 1.81,2.31 a 32.32,32.32 0 0 1 4,6.26 18.67,18.67 0 0 1 1.75,6.74 v 0 a 24.3,24.3 0 0 1 -0.2,4.84 30.29,30.29 0 0 0 -0.27,3.88 v 0.39 c 0,1.35 0.22,2.95 0.39,4.54 a 48.08,48.08 0 0 1 0.39,5 8.2,8.2 0 0 1 -0.51,3 7.76,7.76 0 0 1 -3.39,3.93 c -3.24,2 -6.74,1.91 -10.23,1.85 -3.49,-0.06 -6.81,-0.12 -9.69,1.89 -3.74,2.62 -4.6,7.92 -4.79,9.79 L 946.66,596 v 0 z"
       class="cls-6" />
    <path
       id="path35"
       d="m 773.81,445.29 c -2.38,-2.18 -5.41,-5.4 -5.08,-7.43 0.38,-2.28 1.1,-3.07 3.33,-2.55 5.62,1.3 10.42,5.34 15.71,7.52 a 69.93,69.93 0 0 0 15.78,3.91 68.51,68.51 0 0 0 9.11,0.67 72.91,72.91 0 0 1 4.24,6.88 c 2.17,4 -3.45,3.13 -3.45,3.13 a 26.64,26.64 0 0 0 -5.18,-0.78 l -7,-2.41 1.7,-2.9 c -3.73,0.69 -9,-0.12 -14.12,-1.35 -5.15,-1.54 -13.69,-4.58 -15.04,-4.69 z"
       class="cls-7" />
    <path
       id="path37"
       d="m 793,443.82 a 83.38,83.38 0 0 0 10.66,2.18 c 1.56,0.23 3.11,0.39 4.61,0.49 1.5,0.1 3,0.16 4.4,0.17 a 0.76,0.76 0 0 1 0.6,0.32 v 0 c 0.73,1.05 1.45,2.14 2.16,3.28 0.71,1.14 1.41,2.36 2.12,3.67 2.88,5.31 -4.19,4.21 -4.21,4.21 h -0.08 v 0 l -0.67,-0.17 -0.69,-0.14 a 29.74,29.74 0 0 0 -3.66,-0.45 0.58,0.58 0 0 1 -0.26,-0.06 l -7,-2.39 a 0.72,0.72 0 0 1 -0.45,-0.93 0.69,0.69 0 0 1 0.05,-0.13 v 0 l 0.95,-1.61 a 27.7,27.7 0 0 1 -5.25,-0.15 c -1.07,-0.12 -2.17,-0.28 -3.29,-0.48 v -1.49 c 1.17,0.21 2.33,0.39 3.45,0.51 a 22.24,22.24 0 0 0 6.34,0 0.75,0.75 0 0 1 0.52,0.09 0.73,0.73 0 0 1 0.27,1 l -1.25,2.13 6.08,2.08 a 31.22,31.22 0 0 1 3.75,0.46 l 0.74,0.16 0.72,0.18 v 0 c 0.49,0.06 4,0.45 2.62,-2.07 -0.7,-1.29 -1.39,-2.48 -2.08,-3.6 -0.69,-1.12 -1.25,-2 -1.89,-2.9 -1.34,0 -2.71,-0.07 -4.1,-0.17 -1.39,-0.1 -3.12,-0.27 -4.72,-0.51 A 86.06,86.06 0 0 1 793,445.35 Z m -19.75,2 c -0.34,-0.31 -0.68,-0.64 -1,-0.95 -0.32,-0.31 -0.72,-0.71 -1.06,-1.08 -1.87,-2 -3.47,-4.27 -3.19,-6 a 4.33,4.33 0 0 1 1.23,-2.77 3.29,3.29 0 0 1 3,-0.38 c 3.47,0.81 6.59,2.6 9.69,4.38 a 54.26,54.26 0 0 0 6.14,3.18 v 0 c 0.56,0.23 1.16,0.46 1.79,0.68 0.63,0.22 1.3,0.44 2,0.65 l 1.15,0.33 v 1.53 l -1.59,-0.46 c -0.71,-0.22 -1.38,-0.44 -2,-0.66 -0.62,-0.22 -1.26,-0.46 -1.87,-0.71 v 0 a 53.88,53.88 0 0 1 -6.31,-3.26 c -3,-1.73 -6,-3.46 -9.28,-4.21 -0.88,-0.21 -1.42,-0.18 -1.73,0.07 a 3.17,3.17 0 0 0 -0.7,1.88 c -0.2,1.18 1.19,3 2.8,4.77 0.34,0.36 0.68,0.71 1,1 l 0.85,0.81 c 1.2,0.22 4.39,1.28 7.84,2.41 2.41,0.79 4.94,1.63 7,2.24 h 0.06 c 1.33,0.32 2.67,0.61 4,0.86 v 1.49 c -1.45,-0.26 -2.92,-0.58 -4.37,-0.93 h -0.08 v 0 c -2,-0.61 -4.57,-1.45 -7,-2.25 -3.66,-1.2 -7,-2.32 -7.77,-2.38 a 0.72,0.72 0 0 1 -0.6,-0.28 z"
       class="cls-6" />
    <path
       id="path39"
       d="M 748,512.24 778.08,543 c 3.75,10.26 10.71,18.62 19.52,25.25 -7.45,7.93 -17,16 -25.62,8.81 -2.46,-2.52 -17.27,-21.38 -17.27,-6.66 0,0 -6.62,-2.94 -4.19,-15.8 0,0 2.9,-7.54 -5.23,-10.56 1.42,-1.31 3.64,-3.48 3.65,-5.13 a 3.36,3.36 0 0 0 -0.35,-1.52 l -7.73,3.81 a 2.84,2.84 0 0 0 -1.41,-1 l -2.22,-0.7 a 4.23,4.23 0 0 0 3.8,-2.74 2.49,2.49 0 0 0 -1.7,-3.35 l -3.17,-1 c 2.15,0.5 4,-0.91 4.89,-2.89 a 2.82,2.82 0 0 0 -1.93,-3.78 l -2.54,-0.81 a 3.12,3.12 0 0 0 2.87,-0.22 4.5,4.5 0 0 0 2,-2.31 2.6,2.6 0 0 0 -1.78,-3.48 l -3.76,-1.2 V 514.6 A 39.64,39.64 0 0 0 748,512.24 Z"
       class="cls-7" />
    <path
       id="path41"
       d="m 766.59,530.19 12,12.26 a 0.69,0.69 0 0 1 0.17,0.26 v 0 0 c 0.52,1.41 1.09,2.78 1.72,4.11 0.63,1.33 1.34,2.65 2.09,3.92 a 58.54,58.54 0 0 0 15.45,16.86 0.71,0.71 0 0 1 0.14,1 l -0.05,0.06 v 0 c -3.78,4 -8.1,8.07 -12.6,10.22 -4.5,2.15 -9.47,2.46 -14,-1.35 v 0 0 h -0.05 c -0.32,-0.34 -0.78,-0.86 -1.35,-1.51 -0.91,-1 -2.12,-2.42 -3.46,-3.83 V 570 c 1.79,1.8 3.42,3.65 4.58,5 0.57,0.66 1,1.18 1.3,1.46 v 0 c 4,3.33 8.29,3.11 12.43,1.13 4.14,-1.98 8.04,-5.59 11.54,-9.29 a 59.84,59.84 0 0 1 -15.18,-16.79 c -0.77,-1.31 -1.49,-2.65 -2.15,-4 -0.66,-1.35 -1.21,-2.71 -1.73,-4.11 l -10.85,-11.07 z m -18.07,-18.42 18.07,18.42 v 2.1 L 747.76,513.1 a 36.49,36.49 0 0 1 -8,1.89 l -1.85,0.2 -1.2,0.09 v 1.89 l 3.24,1 0.31,0.11 a 3.71,3.71 0 0 1 1.79,1.57 v 0 a 3.09,3.09 0 0 1 0.24,2.49 v 0 c 0,0.1 -0.07,0.2 -0.11,0.3 a 5.55,5.55 0 0 1 -1.59,2.17 v 0 a 4.5,4.5 0 0 1 -0.37,0.28 l -0.24,0.15 a 3.92,3.92 0 0 1 1.65,1.55 v 0 a 3.24,3.24 0 0 1 0.27,2.61 v 0 l -0.12,0.32 v 0 a 5.88,5.88 0 0 1 -2.44,2.82 l 0.26,0.09 a 2.14,2.14 0 0 1 0.31,0.11 v 0 a 3.52,3.52 0 0 1 1.73,1.52 3,3 0 0 1 0.25,2.38 v 0 c 0,0.09 -0.07,0.18 -0.11,0.29 a 5.21,5.21 0 0 1 -2,2.45 3.57,3.57 0 0 1 1.34,0.76 l 7.23,-3.57 a 0.76,0.76 0 0 1 1,0.29 4.29,4.29 0 0 1 0.44,1.89 5.52,5.52 0 0 1 -1.45,3.15 22.4,22.4 0 0 1 -1.61,1.74 c 7.08,3.32 4.89,10.21 4.61,11 -1.68,9 1.16,12.86 2.78,14.26 0.27,-3.58 1.61,-4.94 3.51,-4.94 v 0 c 2.53,0 6,2.93 9.07,6 v 2.11 c -3.05,-3.21 -6.75,-6.62 -9.07,-6.62 v 0 c -1.24,0 -2.07,1.31 -2.07,4.83 a 0.73,0.73 0 0 1 -0.74,0.73 0.77,0.77 0 0 1 -0.34,-0.08 c -0.38,-0.18 -7,-3.53 -4.58,-16.58 a 0.5,0.5 0 0 1 0,-0.13 v 0 0 c 0.15,-0.42 2.4,-6.92 -4.79,-9.59 a 0.73,0.73 0 0 1 -0.44,-0.94 0.77,0.77 0 0 1 0.22,-0.31 22.91,22.91 0 0 0 2.24,-2.33 4.28,4.28 0 0 0 1.14,-2.24 2.43,2.43 0 0 0 0,-0.49 l -7,3.44 a 0.75,0.75 0 0 1 -1,-0.24 0.39,0.39 0 0 0 -0.08,-0.1 v 0 a 1.14,1.14 0 0 0 -0.11,-0.11 2.18,2.18 0 0 0 -0.8,-0.45 v 0 l -2.22,-0.7 a 0.73,0.73 0 0 1 0.21,-1.43 3.73,3.73 0 0 0 1.65,-0.5 3.68,3.68 0 0 0 1.48,-1.79 c 0,-0.05 0,-0.11 0.07,-0.17 v 0 a 1.64,1.64 0 0 0 -0.13,-1.24 2.11,2.11 0 0 0 -1,-0.87 v 0 l -0.19,-0.07 -3.17,-1 a 0.73147112,0.73147112 0 0 1 0.39,-1.41 v 0 a 3.69,3.69 0 0 0 0.72,0.08 3.07,3.07 0 0 0 0.67,-0.08 4.07,4.07 0 0 0 2.64,-2.46 v 0 a 1.54,1.54 0 0 0 0.08,-0.19 v 0 a 1.85,1.85 0 0 0 -0.16,-1.47 v 0 a 2.41,2.41 0 0 0 -1.18,-1 l -0.21,-0.08 -2.54,-0.81 0.44,-1.39 a 3.45,3.45 0 0 0 1.17,0.2 v 0 a 2.62,2.62 0 0 0 1.11,-0.37 v 0 l 0.26,-0.16 0.25,-0.19 v 0 a 4,4 0 0 0 1.16,-1.6 c 0,-0.06 0.05,-0.12 0.07,-0.17 v 0 a 1.6,1.6 0 0 0 -0.13,-1.33 v 0 a 2.19,2.19 0 0 0 -1.06,-0.93 l -0.19,-0.07 -3.76,-1.19 a 0.73,0.73 0 0 1 -0.52,-0.7 v 0 -3.17 a 0.74,0.74 0 0 1 0.74,-0.74 v 0 l 1.81,-0.13 c 0.6,-0.06 1.2,-0.12 1.79,-0.2 a 33.13,33.13 0 0 0 8.14,-2 0.75,0.75 0 0 1 0.85,0.24 z"
       class="cls-6" />
    <path
       id="path43"
       d="m 735.92,514.59 v 3.12 l -5.74,-1.83 a 10.63,10.63 0 0 0 -2.57,-0.49 v -1 a 53.52,53.52 0 0 0 8.31,0.2 z"
       class="cls-7" />
    <path
       id="path45"
       d="m 736.67,514.59 v 3.12 a 0.74,0.74 0 0 1 -0.75,0.73 0.65,0.65 0 0 1 -0.27,-0.05 l -0.23,-0.07 v -0.07 a 0.79,0.79 0 0 0 0.23,0.14 l -0.23,-0.34 v -4.16 h 0.46 a 0.74,0.74 0 0 1 0.78,0.69 v 0 z m -1.25,3.73 -2.31,-0.74 V 516 l 2.07,0.66 v -1.33 c -0.69,0 -1.38,0 -2.07,0 v -1.47 c 0.77,0 1.54,0 2.31,-0.05 v 4.16 l -0.24,-0.34 a 0.73,0.73 0 0 0 0.24,0.54 z m -2.31,-0.74 -3.15,-1 v 0 h -0.06 l -0.29,-0.09 -0.34,-0.09 a 10.22,10.22 0 0 0 -1.66,-0.24 0.74,0.74 0 0 1 -0.7,-0.74 v 0 -1 a 0.74,0.74 0 0 1 0.74,-0.73 h 0.15 l 1.13,0.1 1.14,0.07 c 1,0 2.05,0.08 3.08,0.07 v 1.47 c -0.7,0 -1.39,0 -2.08,0 l 2.08,0.66 z"
       class="cls-6" />
    <path
       id="path47"
       d="m 722,503.4 c 0,0 4.65,-2.23 2.83,-6.48 -1.08,-2.52 -5,-3.11 -8.33,-2 -5.55,1.81 -7.24,8.65 -4.32,13.29 5.46,8.65 35.88,8.66 41.33,0 a 9.44,9.44 0 0 0 1.29,-6.53 8.61,8.61 0 0 0 -8.17,-7.26 c -2.56,-0.17 -5,0.63 -5.77,2.52 -1.81,4.25 2.84,6.48 2.84,6.48 -3.34,5.02 -18.23,5.1 -21.7,-0.02 z"
       class="cls-7" />
    <path
       id="path49"
       d="m 732.89,514 a 54.45,54.45 0 0 0 5.74,-0.31 40.79,40.79 0 0 0 5.33,-0.92 c 4.19,-1 7.54,-2.66 9,-4.92 v 0 c 0.16,-0.26 0.3,-0.52 0.43,-0.78 a 7,7 0 0 0 0.34,-0.81 8.78,8.78 0 0 0 0.41,-4.42 v 0 0 a 9,9 0 0 0 -0.4,-1.51 7.81,7.81 0 0 0 -7.09,-5.11 v 0 c -0.34,0 -0.67,0 -1,0 a 7,7 0 0 0 -0.93,0.1 3.81,3.81 0 0 0 -3.1,2 c -1.54,3.6 2.47,5.53 2.48,5.54 a 0.74,0.74 0 0 1 0.33,1 v 0.07 0 a 6.81,6.81 0 0 1 -1.91,1.82 c -2.33,1.53 -5.94,2.31 -9.54,2.31 v 0 -1.46 0 c 3.33,0 6.64,-0.71 8.72,-2.08 a 5.4,5.4 0 0 0 1,-0.8 c -1.38,-0.93 -4,-3.28 -2.41,-7 a 5.24,5.24 0 0 1 4.23,-2.87 9.92,9.92 0 0 1 1.11,-0.12 10.84,10.84 0 0 1 1.14,0 v 0 a 9.25,9.25 0 0 1 8.38,6.08 9.21,9.21 0 0 1 0.47,1.77 v 0 0 a 10.25,10.25 0 0 1 -0.47,5.14 c -0.12,0.33 -0.26,0.65 -0.4,1 -0.14,0.35 -0.33,0.62 -0.51,0.91 v 0 c -1.64,2.62 -5.32,4.47 -9.87,5.58 a 43.44,43.44 0 0 1 -5.52,1 54.3,54.3 0 0 1 -5.9,0.31 z m -11.14,-11.22 c 0.45,-0.24 3.88,-2.15 2.44,-5.52 v 0 a 2.62,2.62 0 0 0 -0.48,-0.74 3.27,3.27 0 0 0 -0.73,-0.58 7.91,7.91 0 0 0 -6.21,-0.28 7.33,7.33 0 0 0 -1.6,0.74 7.54,7.54 0 0 0 -3.21,4.22 8.81,8.81 0 0 0 0,5.42 8.16,8.16 0 0 0 0.85,1.82 c 2.59,4.1 11.29,6.15 20,6.15 v 0 1.46 0 c -9.19,0 -18.42,-2.28 -21.3,-6.84 a 9.61,9.61 0 0 1 -1,-2.13 10.26,10.26 0 0 1 -0.05,-6.32 9.09,9.09 0 0 1 3.84,-5 9.2,9.2 0 0 1 1.93,-0.89 c 2.6,-0.84 5.54,-0.74 7.45,0.42 a 5.13,5.13 0 0 1 1,0.86 4.19,4.19 0 0 1 0.74,1.15 v 0 c 1.58,3.68 -1,6 -2.4,7 a 6.48,6.48 0 0 0 1,0.83 c 2.1,1.37 5.41,2.05 8.73,2.05 v 1.46 c -3.59,0 -7.2,-0.75 -9.54,-2.29 a 6.68,6.68 0 0 1 -1.93,-1.84 0.73,0.73 0 0 1 0.21,-1 0.34,0.34 0 0 1 0.26,-0.2 z"
       class="cls-6" />
    <path
       id="path51"
       d="m 755.82,361.52 c 0,0 -8.73,11.16 -10.18,60 -0.91,30.64 -1.53,57.41 -1.87,73.12 a 4.2,4.2 0 0 0 -2.87,2.25 c -1.44,3.38 1.21,5.48 2.35,6.2 v 0 a 3.25,3.25 0 0 0 0.33,0.19 v 0 0.28 c -0.12,0.15 -0.24,0.3 -0.37,0.44 v 0 a 1.89,1.89 0 0 1 -0.2,0.2 v 0 a 0.93,0.93 0 0 1 -0.18,0.16 l -0.05,0.05 -0.16,0.13 -0.08,0.07 -0.17,0.12 -0.08,0.06 -0.2,0.14 h -0.06 l -0.2,0.12 -0.09,0.06 -0.23,0.13 v 0 l -0.28,0.15 v 0 l -0.28,0.14 v 0 l -0.25,0.11 h -0.09 l -0.24,0.1 h -0.09 l -0.27,0.11 h -0.06 l -0.28,0.1 h -0.08 l -0.24,0.08 h -0.14 l -0.22,0.07 h -0.14 l -0.25,0.06 h -0.12 l -0.29,0.07 h -0.07 l -0.29,0.06 h -0.13 l -0.28,0.06 h -0.08 l -0.32,0.06 h -0.09 l -0.29,0.05 h -0.12 -0.26 -0.19 -0.24 -0.13 -0.28 -0.16 -0.28 -0.11 -0.29 -2.7 -0.28 -0.11 -0.29 -0.18 -0.25 -0.12 -0.29 -0.17 -0.25 -0.12 -0.28 -0.2 -0.19 -0.2 -0.21 -0.18 l -0.23,-0.05 h -0.15 l -0.23,-0.05 -0.21,-0.05 h -0.16 l -0.21,-0.05 h -0.17 l -0.18,-0.05 -0.21,-0.06 h -0.13 l -0.22,-0.07 -0.18,-0.07 -0.18,-0.06 -0.13,-0.05 -0.22,-0.08 -0.14,-0.06 -0.19,-0.08 -0.13,-0.05 -0.19,-0.09 -0.17,-0.08 -0.15,-0.07 -0.17,-0.09 -0.13,-0.07 -0.19,-0.11 -0.1,-0.05 -0.15,-0.1 -0.14,-0.08 -0.13,-0.09 -0.14,-0.1 -0.14,-0.1 -0.11,-0.08 -0.17,-0.14 -0.07,-0.06 -0.15,-0.13 -0.08,-0.07 -0.17,-0.17 v 0 l -0.15,-0.17 -0.05,-0.06 -0.09,-0.11 c -0.09,-0.11 -0.18,-0.23 -0.26,-0.35 v 0 a 5.55,5.55 0 0 0 1.42,-1 4.52,4.52 0 0 0 1.38,-5.48 4,4 0 0 0 -2.26,-2.05 h -0.06 l -0.16,-0.06 0.35,-56.76 c 0,0 -0.49,-59.29 32.96,-76.39 z"
       class="cls-7" />
    <path
       id="path53"
       d="m 756.42,362 c 0,0 -8.59,11 -10,59.62 -0.46,15.33 -0.84,29.68 -1.15,42.15 -0.31,12.47 -0.55,23.12 -0.72,31 a 0.72,0.72 0 0 1 -0.53,0.69 v 0 a 4.35,4.35 0 0 0 -0.47,0.15 l -0.44,0.19 a 3.24,3.24 0 0 0 -1.33,1.2 v -2.11 a 7.16,7.16 0 0 1 0.66,-0.39 c 0.19,-0.1 0.38,-0.18 0.57,-0.26 h 0.08 c 0.17,-7.81 0.41,-18.24 0.71,-30.44 0.31,-12.5 0.69,-26.86 1.15,-42.16 1.11,-37.31 6.48,-52.8 9,-58.1 a 44.66,44.66 0 0 0 -12.17,10.9 V 372 a 44.43,44.43 0 0 1 13.75,-11.14 0.76,0.76 0 0 1 1,0.32 0.74,0.74 0 0 1 -0.06,0.77 z m -14.69,138.63 v 0 a 5.89,5.89 0 0 0 1.91,1.86 v 0 l 0.16,0.1 v 0 l 0.08,0.05 v 0 a 0.72,0.72 0 0 1 0.39,0.71 v 0.24 a 0.8,0.8 0 0 1 -0.15,0.43 l -0.2,0.24 v 0 l -0.21,0.23 v 0 0 l -0.07,0.07 v 0 0 l -0.09,0.09 v 0 0.05 l -0.06,0.05 v 0 l -0.09,0.08 v 0 0 l -0.17,0.14 v 0 l -0.08,0.06 v 0 0 l -0.08,0.06 v 0 l -0.07,0.05 -0.08,0.06 v 0 h -0.08 v 0 l -0.1,0.06 v 0 h -0.06 -0.05 l -0.18,0.11 -0.08,0.05 v 0 l -0.12,0.07 v 0 l -0.1,0.05 v 0 0 h -0.07 v 0 h 0.07 -0.07 v -1.7 0 l 0.07,-0.05 v 0 l 0.08,-0.06 h 0.06 v 0 l 0.08,-0.07 h 0.06 v 0 l 0.13,-0.11 v 0 0 l 0.09,-0.08 v 0 0 0 0 l 0.11,-0.1 v 0 0 a 7.88,7.88 0 0 1 -0.9,-0.71 z m 0,-3.71 a 2.59,2.59 0 0 0 -0.14,0.29 3.6,3.6 0 0 0 0.14,3.42 v 2.26 a 6.33,6.33 0 0 1 -1.26,-1.5 5,5 0 0 1 -0.25,-4.75 4.34,4.34 0 0 1 1.51,-1.83 z m 0,9.13 h -0.06 v 0 l -0.14,0.08 v 0 l -0.14,0.07 v 0 l -0.14,0.07 v 0 h -0.09 l -0.17,0.08 v 0 h -0.05 v 0 l -0.12,0.05 v 0 h -0.1 -0.08 v 0 l -0.14,0.05 v 0 h -0.13 v 0 0 0 0 0 l -0.2,0.06 v 0 0 h -0.12 v 0 h -0.13 v 0 h -0.12 v 0 l -0.23,0.07 h -0.05 -0.09 v 0 l -0.22,0.06 v 0 h -0.12 -0.05 v -1.52 0 h 0.09 v 0 l 0.23,-0.06 v 0 h 0.08 v 0 h 0.12 v 0 h 0.12 v 0 h 0.05 l 0.2,-0.07 v 0 0 0 0 h 0.1 v 0 l 0.13,-0.05 v 0 h 0.08 0.08 v 0 l 0.12,-0.05 v 0 0 0 l 0.17,-0.08 h 0.09 l 0.13,-0.06 v 0 l 0.14,-0.07 v 0 l 0.14,-0.08 v 0 l 0.11,-0.05 v 0 0 h 0.09 v 0 l 0.11,-0.06 0.08,-0.05 0.16,-0.1 v 0 h 0.06 v 0 h 0.06 V 506 h -0.06 0.06 z m -3.21,-129.84 c 1,-1.45 2.08,-2.86 3.21,-4.21 v 2.33 q -1.71,2.18 -3.21,4.53 z m 0,131.06 h -0.1 v 0 h -0.14 -0.07 v 0 l -0.28,0.07 v 0 h -0.1 v 0 l -0.29,0.06 v 0 h -0.08 -0.1 v -1.48 h 0.17 0.12 l 0.28,-0.07 h 0.06 0.15 v 0 h 0.08 0.05 0.12 v 0 l 0.19,-0.06 v 0 1.52 z m -1.24,-129.2 c 0.4,-0.63 0.81,-1.25 1.24,-1.86 v 2.65 c -0.43,0.66 -0.84,1.33 -1.24,2 z m 0,129.47 h -0.06 v 0 h -0.13 -0.14 -0.11 -0.08 v -1.48 h 0.07 0.11 v 0 h 0.11 0.12 0.11 z M 736.72,379 c 0.18,-0.3 0.37,-0.6 0.56,-0.89 v 2.8 c -0.19,0.32 -0.38,0.64 -0.56,1 z m 0,128.68 h -0.09 -0.1 v 0 h -0.25 v 0 h -0.16 v 0 h -0.22 -0.3 v 0 h 0.14 -0.14 v -1.45 h 0.12 0.2 v 0 h 0.14 v 0 h 0.26 0.25 0.09 0.07 v 1.48 0 z M 735.52,381 q 0.59,-1 1.2,-2 v 2.87 q -0.62,1.1 -1.2,2.19 z m 0,126.83 h -0.12 -0.2 -0.25 -3.61 -0.29 -0.19 -0.26 -0.13 -0.29 v 0 h -0.16 v 0 h -0.26 -0.13 -0.28 v 0 h -0.17 v 0 H 729 v 0 h -0.2 -0.05 -0.16 v 0 h -0.18 -0.06 -0.17 v 0 h -0.15 v 0 h -0.19 v 0 l -0.21,-0.05 v 0 h -0.17 v 0 l -0.2,-0.05 v 0 l -0.17,-0.05 h -0.06 -0.14 v 0 l -0.21,-0.06 v 0 h -0.13 l -0.23,-0.08 v 0 l -0.16,-0.05 v 0 l -0.18,-0.07 v 0 h -0.09 v 0 l -0.2,-0.08 v 0 l -0.14,-0.06 v 0 l -0.18,-0.07 v 0 h -0.09 v 0 0 0 l -0.16,-0.07 v 0 l -0.13,-0.06 v 0 0 0 h -0.1 v 0 l -0.19,-0.1 v 0 l -0.12,-0.07 v 0 0 l -0.16,-0.08 v 0 l -0.08,-0.05 v 0 l -0.09,-0.06 v 0 0 0 0 0 l -0.09,-0.06 v 0 l -0.09,-0.06 v 0 0 0 l -0.14,-0.09 v 0 a 0.58,0.58 0 0 1 -0.13,-0.1 v 0 0 0 0 0 0 l -0.18,-0.14 v 0 0 0 0 c 0,0 0,0 0,0 l -0.11,-0.09 v 0 0 l -0.08,-0.08 -0.06,-0.06 a 1.56,1.56 0 0 1 -0.13,-0.13 v 0 0 0 0 l -0.08,-0.08 v 0 l -0.05,-0.07 v 0 0 0 0 l -0.08,-0.09 v 0 0 0 0 l -0.13,-0.16 v 0 l -0.12,-0.17 a 0.73,0.73 0 0 1 0.21,-1 l 0.11,-0.06 v 0 l 0.2,-0.1 0.19,-0.11 a 4.91,4.91 0 0 0 0.85,-0.65 v 0 0 a 4.7,4.7 0 0 0 1.35,-1.86 3.69,3.69 0 0 0 -0.16,-2.78 v 0 c -0.05,-0.11 -0.1,-0.22 -0.15,-0.31 l -0.19,-0.27 a 3.54,3.54 0 0 0 -1.51,-1.08 h -0.06 -0.06 -0.09 a 0.73,0.73 0 0 1 -0.48,-0.71 L 722,438 v 0 c 0,-0.13 -0.2,-33 13.53,-57.06 v 3 c -12.22,23.38 -12,53.89 -12,54 v 0 l -0.35,56.27 a 4.85,4.85 0 0 1 1.89,1.43 4,4 0 0 1 0.29,0.43 3.48,3.48 0 0 1 0.24,0.47 v 0 a 5.06,5.06 0 0 1 0.19,3.85 A 6.17,6.17 0 0 1 724,503 v 0 a 6,6 0 0 1 -0.83,0.66 v 0 l 0.11,0.11 v 0 l 0.08,0.07 v 0 0 l 0.08,0.07 v 0 0 0 0 l 0.14,0.11 v 0 0 0 0 0 l 0.1,0.08 0.1,0.07 v 0 0 0 l 0.09,0.06 v 0 l 0.07,0.05 v 0 0 0 0 h 0.07 v 0 h 0.07 0.05 l 0.13,0.07 v 0 l 0.13,0.07 v 0 l 0.16,0.08 v 0 h 0.08 0.06 v 0 0 l 0.13,0.06 v 0 l 0.13,0.06 v 0 h 0.09 v 0 l 0.18,0.07 v 0 l 0.15,0.05 v 0 l 0.18,0.07 v 0 h 0.08 v 0 l 0.18,0.06 v 0 l 0.14,0.05 v 0 l 0.2,0.07 h 0.13 v 0 l 0.2,0.05 v 0 h 0.12 v 0 l 0.18,0.05 v 0 l 0.2,0.05 h 0.15 v 0 h 0.21 v 0 h 0.15 0.06 0.15 v 0 h 0.15 0.06 0.19 v 0 h 0.12 0.78 0.21 v 0 h 0.17 v 0 h 0.16 v 0 h 0.28 0.1 0.26 v 0 h 0.16 v 0 h 0.28 0.11 0.25 0.17 0.28 2.57 0.25 0.56 0.23 0.19 0.24 v 0 1.45 h -0.13 0.13 v 0 z m -1.15,0.1 z"
       class="cls-6" />
    <path
       id="path55"
       d="m 727.72,543.72 0.12,5.62 c 0,1.38 -3.87,-0.57 -4.88,-1.14 a 3.52,3.52 0 0 0 -1.58,-0.52 c -2.9,-0.1 -4.77,3.92 -2.61,5.76 2.16,1.84 6.49,2.27 8.92,0.55 0,0 -0.31,6.33 -5.26,8.64 0,0 10.66,9.65 -0.45,17.57 -1.78,-5.6 -9.61,-3.93 -7.55,1.61 0.84,2.26 3.43,5.06 10.85,6 0,0 -2.85,4.46 -5.7,5.62 -1.07,0.43 -0.17,0.74 1.36,1 2.56,0.37 6.9,0.48 6.9,0.48 -0.41,1.87 1.58,8.6 4.07,8.61 2.28,0 3.92,-6.74 3.51,-8.61 0,0 2.78,-0.07 5.2,-0.29 2.42,-0.22 4.48,-0.58 3.06,-1.15 -2.86,-1.16 -5.71,-5.62 -5.71,-5.62 7.43,-1 10,-3.77 10.86,-6 2,-5.54 -5.77,-7.21 -7.56,-1.61 -11.1,-7.92 -0.45,-17.57 -0.45,-17.57 -5,-2.31 -5.25,-8.64 -5.25,-8.64 3.25,-0.8 3.16,1.23 5.83,1.67 4.84,0.78 6.2,-7.78 -1.42,-7.35 -1.2,0.07 -2.38,0.35 -3.58,0.48 -1.2,0.13 -1,0.16 -1,-0.74 v -2 z"
       class="cls-7" />
    <path
       id="path57"
       d="m 731.63,602.72 h 0.08 0.2 a 0.45,0.45 0 0 0 0.16,0 c 0.68,-0.24 1.32,-1.43 1.82,-2.82 a 14.52,14.52 0 0 0 0.85,-4.29 v 0 a 3.2,3.2 0 0 0 0,-0.59 0.73,0.73 0 0 1 0.57,-0.87 h 0.17 c 0.36,0 2.9,-0.08 5.11,-0.28 0.7,-0.06 1.36,-0.14 1.91,-0.22 -2.71,-1.67 -5.11,-5.42 -5.11,-5.43 a 0.72,0.72 0 0 1 0.23,-1 0.68,0.68 0 0 1 0.33,-0.11 18,18 0 0 0 7.55,-2.41 6.52,6.52 0 0 0 2.67,-3.14 3,3 0 0 0 -0.42,-3.3 v 0 a 2.63,2.63 0 0 0 -1.09,-0.62 3.48,3.48 0 0 0 -1.41,-0.11 v 0 a 4,4 0 0 0 -3.19,2.93 0.75,0.75 0 0 1 -0.93,0.48 0.93,0.93 0 0 1 -0.26,-0.15 c -9.91,-7.12 -3.46,-15.49 -1.18,-18 -4.49,-2.79 -4.78,-8.76 -4.78,-8.78 a 0.73,0.73 0 0 1 0.6,-0.76 4.22,4.22 0 0 1 4.11,0.76 4.45,4.45 0 0 0 2,0.9 2.5,2.5 0 0 0 2.65,-1.18 3,3 0 0 0 0.45,-1.5 2.91,2.91 0 0 0 -0.36,-1.54 c -0.58,-1 -1.92,-1.79 -4.24,-1.66 v 0 a 19.48,19.48 0 0 0 -2,0.25 c -0.51,0.08 -1,0.16 -1.53,0.22 v 0 h -0.19 c -0.63,0.07 -0.93,0.1 -1.26,-0.15 v 0 c -0.35,-0.29 -0.34,-0.56 -0.31,-1 v 0 c 0,-0.08 0,-0.18 0,-0.26 v -1.41 l -3.1,-0.94 v -1.54 l 4,1.23 a 0.73,0.73 0 0 1 0.55,0.72 v 2 0 h 0.14 v 0 c 0.47,0 1,-0.13 1.44,-0.21 a 21.2,21.2 0 0 1 2.14,-0.27 v 0 c 3,-0.17 4.78,0.94 5.61,2.42 a 4.28,4.28 0 0 1 0.55,2.3 4.64,4.64 0 0 1 -0.66,2.22 4,4 0 0 1 -4.15,1.86 5.72,5.72 0 0 1 -2.61,-1.14 2.79,2.79 0 0 0 -2.3,-0.66 c 0.22,1.58 1.12,5.69 4.76,7.38 a 0.91,0.91 0 0 1 0.23,0.17 0.74,0.74 0 0 1 0,1 c 0,0 -9.48,8.58 -0.38,15.86 a 5.28,5.28 0 0 1 4,-3 v 0 a 4.8,4.8 0 0 1 2,0.16 4.12,4.12 0 0 1 1.69,1 v 0 a 4.33,4.33 0 0 1 0.77,4.85 7.87,7.87 0 0 1 -3.24,3.86 18.3,18.3 0 0 1 -7,2.47 c 1,1.32 2.86,3.64 4.7,4.39 v 0 a 1.75,1.75 0 0 1 0.74,0.48 0.82,0.82 0 0 1 -0.08,1.2 1.93,1.93 0 0 1 -0.67,0.37 17.59,17.59 0 0 1 -3.26,0.51 c -1.66,0.15 -3.46,0.23 -4.46,0.26 v 0 0 a 15.82,15.82 0 0 1 -0.94,4.77 c -0.62,1.77 -1.56,3.32 -2.72,3.73 a 2,2 0 0 1 -0.65,0.11 h -0.28 z m -3.15,-58 0.1,4.6 v 0 a 1.29,1.29 0 0 1 -0.07,0.45 v 0.05 a 1.26,1.26 0 0 1 -1.29,0.73 5.09,5.09 0 0 1 -1.36,-0.27 20.51,20.51 0 0 1 -3.24,-1.45 3.86,3.86 0 0 0 -0.66,-0.3 1.72,1.72 0 0 0 -0.59,-0.12 2.53,2.53 0 0 0 -2,0.92 3.54,3.54 0 0 0 -0.56,0.91 3,3 0 0 0 -0.22,1 2,2 0 0 0 0.66,1.62 v 0 0 a 4.51,4.51 0 0 0 0.84,0.55 v 0 a 6.46,6.46 0 0 0 1.08,0.45 v 0 a 7.22,7.22 0 0 0 6,-0.52 0.75,0.75 0 0 1 1,0.17 0.72,0.72 0 0 1 0.13,0.51 c 0,0.5 -0.48,6.08 -4.77,8.74 2.28,2.47 8.76,10.86 -1.23,18 a 0.75,0.75 0 0 1 -1,-0.17 0.68,0.68 0 0 1 -0.1,-0.21 v 0 a 4,4 0 0 0 -3.19,-2.93 3.48,3.48 0 0 0 -1.41,0.11 2.67,2.67 0 0 0 -1.12,0.65 v 0 a 2.94,2.94 0 0 0 -0.42,3.3 6.46,6.46 0 0 0 2.67,3.14 18.09,18.09 0 0 0 7.58,2.41 0.73,0.73 0 0 1 0.64,0.82 0.77,0.77 0 0 1 -0.11,0.3 v 0 c 0,0 -2.4,3.76 -5.11,5.43 h 0.25 c 2.52,0.36 6.79,0.47 6.8,0.47 a 0.75,0.75 0 0 1 0.73,0.75 c 0,0.05 0,0.09 0,0.14 v 0 a 2.39,2.39 0 0 0 0,0.42 v 0 a 13.29,13.29 0 0 0 1,4.32 c 0.58,1.4 1.32,2.62 2.09,2.92 v 1.51 a 1.87,1.87 0 0 1 -0.34,-0.08 c -1.3,-0.38 -2.38,-2 -3.12,-3.8 A 15,15 0 0 1 727,595.6 c -1.37,-0.05 -4.28,-0.18 -6.2,-0.45 a 7.65,7.65 0 0 1 -1.78,-0.42 v 0 a 1.21,1.21 0 0 1 -0.53,-0.46 v 0 a 0.82,0.82 0 0 1 0.09,-1 1.79,1.79 0 0 1 0.65,-0.44 h 0.07 c 1.85,-0.75 3.74,-3.07 4.7,-4.39 a 18.24,18.24 0 0 1 -7,-2.47 7.9,7.9 0 0 1 -3.25,-3.86 4.36,4.36 0 0 1 0.77,-4.85 v 0 a 4.23,4.23 0 0 1 1.74,-1 4.77,4.77 0 0 1 2,-0.16 5.24,5.24 0 0 1 4,3 c 8.89,-7.11 0.08,-15.44 -0.36,-15.85 a 0.65,0.65 0 0 1 -0.19,-0.24 0.73,0.73 0 0 1 0.36,-1 c 3.18,-1.48 4.27,-4.81 4.64,-6.68 a 9.61,9.61 0 0 1 -6,0 v 0 a 8.29,8.29 0 0 1 -1.32,-0.55 v 0 a 6.09,6.09 0 0 1 -1.09,-0.73 v 0 0 a 3.45,3.45 0 0 1 -1.19,-2.8 4.36,4.36 0 0 1 0.34,-1.5 4.89,4.89 0 0 1 0.81,-1.32 4,4 0 0 1 3.14,-1.43 3.55,3.55 0 0 1 1,0.2 6,6 0 0 1 0.89,0.41 18.08,18.08 0 0 0 3,1.34 4.5,4.5 0 0 0 0.79,0.18 l -0.11,-5.35 a 1,1 0 0 1 0,-0.23 0.75,0.75 0 0 1 0.93,-0.48 l 3.69,1.12 v 1.54 l -3.15,-1 z m 0.1,4.61 z"
       class="cls-6" />
    <path
       id="path59"
       d="m 739.45,540.2 a 2.49,2.49 0 0 1 1.71,3.35 4.57,4.57 0 0 1 -5.35,2.63 l -8.95,-2.72 c 0,0 -3.7,-1.3 -2.35,-4.84 a 3.06,3.06 0 0 1 4,-1.84 z"
       class="cls-7" />
    <path
       id="path61"
       d="m 739.67,539.49 0.32,0.12 a 3.5,3.5 0 0 1 1.72,1.52 3,3 0 0 1 0.24,2.4 v 0 a 2,2 0 0 1 -0.11,0.31 c -1.8,4.21 -6.2,3 -6.21,3 v 0 l -2.81,-0.85 v -1.54 l 3.23,1 a 3.82,3.82 0 0 0 4.45,-2.21 c 0,0 0,-0.1 0.07,-0.18 v 0 a 1.6,1.6 0 0 0 -0.12,-1.26 2.13,2.13 0 0 0 -1,-0.87 l -0.19,-0.06 -6.44,-2 v -1.55 z m -6.88,6.51 -6.15,-1.87 v 0 c 0,0 -4.41,-1.55 -2.79,-5.79 v 0 a 4.75,4.75 0 0 1 0.42,-0.81 3.28,3.28 0 0 1 0.55,-0.67 3.85,3.85 0 0 1 4,-0.79 v 0 l 4,1.26 v 1.55 l -4.49,-1.41 v 0 a 2.44,2.44 0 0 0 -2.48,0.44 2.85,2.85 0 0 0 -0.34,0.41 3.13,3.13 0 0 0 -0.27,0.55 v 0 c -1.08,2.83 1.9,3.89 1.91,3.89 l 5.67,1.72 z"
       class="cls-6" />
    <path
       id="path63"
       d="m 739.33,533.41 a 2.49,2.49 0 0 1 1.7,3.35 4.23,4.23 0 0 1 -3.8,2.74 l -8.71,-2.72 a 3.7,3.7 0 0 0 -1.7,-0.14 l -1.42,-0.44 c 0,0 -3.7,-1.3 -2.35,-4.84 a 3.06,3.06 0 0 1 4,-1.84 z"
       class="cls-7" />
    <path
       id="path65"
       d="m 739.55,532.71 a 2.14,2.14 0 0 1 0.31,0.11 h 0.07 a 3.59,3.59 0 0 1 1.66,1.49 v 0 a 3,3 0 0 1 0.24,2.42 v 0 c 0,0.09 -0.07,0.18 -0.11,0.29 a 5.12,5.12 0 0 1 -2.08,2.47 5.36,5.36 0 0 1 -2.36,0.72 0.8,0.8 0 0 1 -0.27,0 v 0 l -5,-1.56 v -1.55 l 5.32,1.66 a 3.49,3.49 0 0 0 3,-2.28 c 0,-0.05 0,-0.11 0.07,-0.17 v 0 a 1.6,1.6 0 0 0 -0.12,-1.26 v 0 a 2.07,2.07 0 0 0 -1,-0.85 v 0 l -0.19,-0.07 -7.1,-2.24 v -1.54 z m -7.55,5.93 -3.7,-1.16 h -0.06 -0.16 -0.2 a 2.71,2.71 0 0 0 -0.94,0 0.77,0.77 0 0 1 -0.34,0 v 0 l -1.42,-0.44 v 0 c 0,0 -4.4,-1.55 -2.78,-5.79 v 0 a 4.17,4.17 0 0 1 0.4,-0.79 4,4 0 0 1 0.55,-0.67 3.88,3.88 0 0 1 4,-0.79 l 4.72,1.5 v 1.54 l -5.17,-1.64 a 2.4,2.4 0 0 0 -2.47,0.44 2.32,2.32 0 0 0 -0.34,0.41 2.72,2.72 0 0 0 -0.27,0.54 v 0 c -1.06,2.78 1.79,3.84 1.91,3.89 l 1.23,0.38 a 4.46,4.46 0 0 1 1.26,0 l 0.29,0.06 0.25,0.07 h 0.06 l 3.26,1 z"
       class="cls-6" />
    <path
       id="path67"
       d="m 739.12,525.73 a 2.82,2.82 0 0 1 1.93,3.78 c -0.89,2.08 -2.92,3.52 -5.19,2.81 l -8.92,-2.79 c -1.18,-0.36 -7.78,-0.77 -6.17,-6.46 0.59,-2.08 2.64,-2.31 4.52,-1.72 z"
       class="cls-7" />
    <path
       id="path69"
       d="m 741.71,527.06 a 3.26,3.26 0 0 1 0.14,2.41 v 0 l -0.12,0.32 v 0 -2.78 z m 0,2.77 z m -2.37,-4.8 0.35,0.13 a 3.86,3.86 0 0 1 1.9,1.66 v 0 l 0.1,0.2 v 2.78 0 a 6.42,6.42 0 0 1 -0.48,0.9 5.84,5.84 0 0 1 -0.63,0.83 4.68,4.68 0 0 1 -5,1.45 l -4.72,-1.48 V 530 l 5.17,1.62 a 3.24,3.24 0 0 0 3.42,-1 3.74,3.74 0 0 0 0.55,-0.62 4.58,4.58 0 0 0 0.37,-0.69 v 0 a 1.54,1.54 0 0 0 0.08,-0.19 v 0 a 1.85,1.85 0 0 0 -0.13,-1.47 v 0 a 2.41,2.41 0 0 0 -1.18,-1 l -0.21,-0.08 -8,-2.53 v -1.54 l 8.43,2.67 z m 2.37,4.81 z m -10.8,1.7 -4.2,-1.31 v 0 l -0.58,-0.12 c -0.44,-0.09 -1,-0.2 -1.61,-0.37 -2.54,-0.7 -5.71,-2.32 -4.42,-6.86 v 0 -0.12 -0.08 a 3.17,3.17 0 0 1 2.14,-2.13 5.34,5.34 0 0 1 3,0 v 0 l 0.23,0.07 h 0.07 l 5.33,1.69 v 1.54 l -5.8,-1.84 h -0.05 -0.16 v 0 a 3.93,3.93 0 0 0 -2.14,-0.07 1.8,1.8 0 0 0 -1.19,1.21 v 0 0.12 c -0.92,3.3 1.48,4.5 3.4,5 a 15.26,15.26 0 0 0 1.5,0.34 l 0.72,0.16 h 0.06 v 0 l 3.75,1.17 z"
       class="cls-6" />
    <path
       id="path71"
       d="m 739.68,518.91 a 2.6,2.6 0 0 1 1.78,3.48 4.5,4.5 0 0 1 -2,2.31 3.12,3.12 0 0 1 -2.87,0.22 l -11.29,-3.57 c -6.52,-2.07 -2,-7.66 4.89,-5.47 z"
       class="cls-7" />
    <path
       id="path73"
       d="m 739.91,518.21 0.31,0.11 a 3.71,3.71 0 0 1 1.79,1.57 0.08,0.08 0 0 1 0,0.05 3,3 0 0 1 0.22,2.44 v 0 a 1.86,1.86 0 0 1 -0.1,0.25 v 0 a 5.11,5.11 0 0 1 -0.25,0.52 c -0.08,0.15 -0.17,0.31 -0.28,0.48 a 5.09,5.09 0 0 1 -1.8,1.66 4.27,4.27 0 0 1 -1.74,0.55 v 0 a 4.69,4.69 0 0 1 -1.7,-0.28 l -4.46,-1.41 v -1.54 l 4.9,1.56 a 3.45,3.45 0 0 0 1.17,0.2 v 0 a 2.62,2.62 0 0 0 1.11,-0.37 3.51,3.51 0 0 0 1.27,-1.18 1.9,1.9 0 0 0 0.21,-0.36 c 0.08,-0.14 0.14,-0.27 0.2,-0.39 v 0 a 0.47,0.47 0 0 0 0.06,-0.15 v 0 a 1.66,1.66 0 0 0 -0.11,-1.3 v 0 a 2.19,2.19 0 0 0 -1.06,-0.93 l -0.19,-0.07 -7.56,-2.4 v -1.54 z m -8,6 -6.84,-2.16 c -2.17,-0.69 -3.29,-1.79 -3.59,-2.94 a 2.66,2.66 0 0 1 0.17,-1.8 3.86,3.86 0 0 1 1.23,-1.44 c 1.56,-1.15 4.33,-1.71 7.53,-0.69 l 1.5,0.48 v 1.54 l -1.95,-0.62 c -2.7,-0.86 -5,-0.44 -6.2,0.47 a 2.34,2.34 0 0 0 -0.76,0.87 1.24,1.24 0 0 0 -0.09,0.82 c 0.18,0.69 1,1.4 2.61,1.91 l 6.39,2 z"
       class="cls-6" />
    <path
       id="path75"
       d="m 741.45,520.41 6.95,-3.56 a 3.46,3.46 0 0 1 0.44,1.44 c 0.11,1.8 -2.48,4.44 -3.64,5.66 -1.49,1.57 -3.35,2.66 -5.56,1 l -0.27,-0.22 h 0.08 a 4.5,4.5 0 0 0 2,-2.31 2.43,2.43 0 0 0 0,-2.01 z"
       class="cls-7" />
    <path
       id="path77"
       d="m 744.39,518.08 3.67,-1.88 a 0.75,0.75 0 0 1 1,0.24 v 0 a 4.07,4.07 0 0 1 0.57,1.8 v 0.09 c 0.06,2 -2.41,4.62 -3.68,6 l -0.16,0.16 a 9.43,9.43 0 0 1 -1.35,1.19 v -1.92 l 0.27,-0.28 0.16,-0.16 c 1.13,-1.19 3.34,-3.51 3.28,-4.93 v 0 a 2.09,2.09 0 0 0 -0.08,-0.47 l -3.63,1.86 z m -3.28,1.68 3.28,-1.68 v 1.65 l -2,1 a 3,3 0 0 1 0,1.11 2.34,2.34 0 0 1 -0.09,0.38 2.67,2.67 0 0 1 -0.11,0.34 v 0 0 0 a 5.61,5.61 0 0 1 -1.46,2.06 2.41,2.41 0 0 0 1.81,0.22 4.69,4.69 0 0 0 1.9,-1.24 v 1.92 a 5.21,5.21 0 0 1 -1.5,0.73 4,4 0 0 1 -3.69,-0.83 v 0 l -0.16,-0.12 v 0 l -0.13,-0.1 a 0.73,0.73 0 0 1 -0.1,-1 0.71,0.71 0 0 1 0.23,-0.19 v 0 h 0.07 v 0 l 0.24,-0.14 0.25,-0.19 v 0 a 4,4 0 0 0 1.16,-1.6 v 0 -0.05 a 1.07,1.07 0 0 0 0.07,-0.19 1.8,1.8 0 0 0 -0.09,-1.15 0.74,0.74 0 0 1 0.34,-1 z"
       class="cls-6" />
    <path
       id="path79"
       d="m 741.12,527.57 7.28,-3.73 a 3.46,3.46 0 0 1 0.44,1.44 c 0.11,1.8 -2.48,4.44 -3.64,5.66 -1.49,1.57 -3.35,2.67 -5.56,1 l -0.29,-0.24 a 5.34,5.34 0 0 0 1.7,-2.2 2.62,2.62 0 0 0 0.07,-1.93 z"
       class="cls-7" />
    <path
       id="path81"
       d="m 744.31,524.65 3.75,-1.46 a 0.75,0.75 0 0 1 1,0.24 v 0 a 4.13,4.13 0 0 1 0.57,1.8 v 0.09 c 0.06,2 -2.41,4.62 -3.68,6 l -0.16,0.16 a 8.31,8.31 0 0 1 -1.43,1.24 v -1.89 c 0.12,-0.12 0.24,-0.23 0.35,-0.36 l 0.16,-0.16 c 1.13,-1.19 3.34,-3.51 3.28,-4.92 v 0 a 2.09,2.09 0 0 0 -0.08,-0.47 l -3.71,1.9 z m -3.76,1.48 3.76,-1.48 v 2.11 L 742,528 a 2.9,2.9 0 0 1 0,0.93 v 0 c 0,0.11 0,0.23 -0.07,0.35 -0.07,0.12 -0.07,0.23 -0.11,0.35 l -0.07,0.18 a 6.44,6.44 0 0 1 -1.21,1.85 2.47,2.47 0 0 0 2,0.3 4.6,4.6 0 0 0 1.82,-1.16 v 1.89 a 4.89,4.89 0 0 1 -1.42,0.68 4,4 0 0 1 -3.69,-0.83 v 0 l -0.17,-0.13 v 0 l -0.14,-0.11 a 0.72,0.72 0 0 1 -0.11,-1 0.86,0.86 0 0 1 0.14,-0.13 l 0.25,-0.2 0.23,-0.22 v 0 a 4.69,4.69 0 0 0 1,-1.46 0.58,0.58 0 0 0 0,-0.11 l 0.06,-0.21 a 1.55,1.55 0 0 0 0,-0.21 v 0 a 1.77,1.77 0 0 0 -0.1,-0.86 0.74,0.74 0 0 1 0.36,-0.9 z"
       class="cls-6" />
    <path
       id="path83"
       d="m 740.91,534.64 7.49,-3.84 a 3.46,3.46 0 0 1 0.44,1.44 c 0.11,1.8 -2.48,4.44 -3.64,5.66 -1.49,1.57 -3.35,2.67 -5.56,1 l -0.18,-0.15 a 4.33,4.33 0 0 0 1.57,-2 2.25,2.25 0 0 0 -0.12,-2.11 z"
       class="cls-7" />
    <path
       id="path85"
       d="m 744.38,531.62 3.68,-1.47 a 0.74,0.74 0 0 1 1,0.25 v 0 a 4.14,4.14 0 0 1 0.57,1.81 v 0.08 c 0.06,2 -2.41,4.62 -3.68,6 l -0.16,0.16 a 8,8 0 0 1 -1.36,1.19 v -1.91 c 0.1,-0.09 0.19,-0.19 0.28,-0.28 l 0.16,-0.17 c 1.13,-1.19 3.34,-3.51 3.28,-4.92 v 0 a 2.19,2.19 0 0 0 -0.08,-0.47 l -3.64,1.87 z m -3.92,1.57 3.92,-1.57 v 2.07 l -2.52,1.31 a 2.91,2.91 0 0 1 0.09,1.22 2.29,2.29 0 0 1 -0.07,0.36 v 0.05 c 0,0.14 -0.09,0.28 -0.14,0.42 v 0 a 5.78,5.78 0 0 1 -0.82,1.37 3.23,3.23 0 0 1 -0.23,0.27 2.39,2.39 0 0 0 1.82,0.22 4.74,4.74 0 0 0 1.89,-1.23 v 1.91 a 4.8,4.8 0 0 1 -1.49,0.73 4,4 0 0 1 -3.69,-0.83 v 0 l -0.09,-0.07 v 0 h -0.06 a 0.73,0.73 0 0 1 -0.12,-1 0.75,0.75 0 0 1 0.16,-0.15 v 0 a 3.08,3.08 0 0 0 0.7,-0.66 4,4 0 0 0 0.61,-1 v 0 a 2.25,2.25 0 0 0 0.08,-0.24 v 0 a 1.13,1.13 0 0 0 0,-0.18 1.5,1.5 0 0 0 -0.21,-1 0.73,0.73 0 0 1 0.27,-1 v 0 z"
       class="cls-6" />
    <path
       id="path87"
       d="m 740.85,541.16 7.74,-3.81 a 3.36,3.36 0 0 1 0.35,1.52 c 0,1.87 -2.89,4.44 -4.18,5.62 -1.51,1.4 -3.31,2.36 -5.25,1.12 a 4.54,4.54 0 0 0 1.65,-2.06 2.3,2.3 0 0 0 -0.31,-2.39 z"
       class="cls-7" />
    <path
       id="path89"
       d="m 744.54,538.53 3.72,-1.84 a 0.75,0.75 0 0 1 1,0.29 v 0 0 0 a 4.33,4.33 0 0 1 0.41,1.83 c 0,0.12 0,0.24 0,0.36 -0.28,2 -2.86,4.4 -4.22,5.64 l -0.17,0.16 c -0.24,0.22 -0.48,0.43 -0.73,0.62 v -1.89 c 1.24,-1.15 3.45,-3.21 3.65,-4.67 a 1,1 0 0 0 0,-0.16 2.43,2.43 0 0 0 0,-0.49 l -3.62,1.79 z m -4,2 4,-2 v 1.64 l -2.66,1.31 a 2.93,2.93 0 0 1 0.21,1.39 c 0,0.17 -0.05,0.33 -0.08,0.48 a 4.5,4.5 0 0 1 -0.16,0.48 v 0 a 5.59,5.59 0 0 1 -0.86,1.42 l -0.11,0.13 a 2.51,2.51 0 0 0 1.22,0 6,6 0 0 0 2.17,-1.38 l 0.17,-0.16 0.11,-0.1 v 1.95 a 6.21,6.21 0 0 1 -2,1.09 3.93,3.93 0 0 1 -3.4,-0.52 0.73,0.73 0 0 1 -0.22,-1 0.82,0.82 0 0 1 0.25,-0.24 3,3 0 0 0 0.71,-0.64 4.24,4.24 0 0 0 0.63,-1.06 v 0 l 0.09,-0.27 a 1.29,1.29 0 0 0 0,-0.25 1.62,1.62 0 0 0 -0.34,-1.13 0.73,0.73 0 0 1 0.13,-1 l 0.12,-0.07 z"
       class="cls-6" />
    <path
       id="path91"
       d="m 881.87,422.59 a 0.73,0.73 0 0 1 0.41,-0.95 0.75,0.75 0 0 1 1,0.41 9.68,9.68 0 0 0 2,2.88 c 0.92,1 2,1.92 3,2.81 l 0.24,0.21 c 2.49,2.16 3.58,3.11 3.76,6.69 0.3,5.81 -1.3,16.17 -1.3,16.2 a 0.74,0.74 0 0 1 -0.84,0.62 0.75,0.75 0 0 1 -0.57,-0.43 8.69,8.69 0 0 0 -1.49,-1.93 11.21,11.21 0 0 0 0.56,3.86 52.52,52.52 0 0 0 2.11,5.84 v 0.07 l 0.42,1 c 0.39,0.93 0.7,1.67 0.85,2.13 v 0 a 7.38,7.38 0 0 1 0,4.22 2.45,2.45 0 0 1 -0.32,0.65 0.81,0.81 0 0 1 -1.21,0.27 v 0 a 1.13,1.13 0 0 1 -0.44,-0.78 c -0.12,-0.74 -1.45,-2.56 -4.37,-4.73 -1.41,7.69 5.54,13 5.56,13 v 0 A 0.73,0.73 0 0 1 891,476 c -0.4,0.1 -0.8,0.18 -1.19,0.25 1.08,4.45 9.18,7.57 9.21,7.58 v 0 a 0.72,0.72 0 0 1 0.43,0.48 0.72,0.72 0 0 1 -0.5,0.9 c -7.61,2.18 -11.71,1.66 -13.7,1 a 19.27,19.27 0 0 1 0,4.8 16,16 0 0 0 0.11,5.3 v 0 a 0.71,0.71 0 0 1 -0.3,0.77 0.75,0.75 0 0 1 -1,-0.18 c -0.87,-1.27 -5.13,-1.69 -5.45,-1.72 v 0 a 15.83,15.83 0 0 1 -8.84,-3.85 9.55,9.55 0 0 1 -2.39,3.91 v 0 c -0.23,0.23 -0.48,0.45 -0.73,0.66 -0.25,0.21 -0.48,0.38 -0.71,0.55 v 0 c -0.68,0.48 -1.35,0.88 -2,1.29 -0.65,0.41 -1.47,0.88 -2.18,1.4 l -2.35,1.73 v 0 a 0.74,0.74 0 0 1 -1.12,-0.89 4.51,4.51 0 0 0 0.33,-2.34 8.59,8.59 0 0 0 -0.62,-2.28 v -0.06 a 22.12,22.12 0 0 0 -1.52,-2.8 18.17,18.17 0 0 1 -2,-3.86 37.64,37.64 0 0 1 -1.51,-7.05 3,3 0 0 0 -1,0.89 v 0 c -0.08,0.11 -0.17,0.25 -0.26,0.4 a 3.75,3.75 0 0 0 -0.24,0.44 v 0 a 12.63,12.63 0 0 0 -1,4 c -0.06,0.4 -0.12,0.8 -0.19,1.21 v -6.07 l 0.18,-0.32 c 0.1,-0.17 0.21,-0.34 0.34,-0.52 v 0 a 3.86,3.86 0 0 1 2.74,-1.7 0.73,0.73 0 0 1 0.81,0.65 v 0 a 38.12,38.12 0 0 0 1.54,7.58 17.51,17.51 0 0 0 1.81,3.56 22.17,22.17 0 0 1 1.63,3 9.61,9.61 0 0 1 0.73,2.69 5.91,5.91 0 0 1 0,1 l 0.75,-0.55 c 0.76,-0.56 1.54,-1 2.31,-1.48 0.77,-0.48 1.32,-0.79 1.93,-1.23 v 0 c 0.21,-0.15 0.43,-0.31 0.63,-0.48 0.2,-0.17 0.41,-0.36 0.63,-0.57 v 0 a 7.84,7.84 0 0 0 2.28,-4.44 0.74,0.74 0 0 1 0.84,-0.63 0.76,0.76 0 0 1 0.46,0.26 v 0 a 13.83,13.83 0 0 0 8.85,4.33 v 0 a 18.36,18.36 0 0 1 4.92,1.17 23.22,23.22 0 0 1 0.13,-4 14.25,14.25 0 0 0 -0.29,-5.81 0.74,0.74 0 0 1 1.21,-0.76 v 0 c 0,0 2.37,2.37 11.87,0 -2.69,-1.32 -7.36,-4.12 -8.2,-7.85 -10.79,1.32 -17.1,-6 -19.49,-9.49 l -0.81,5.65 v 0 a 0.72,0.72 0 0 1 -0.36,0.54 0.75,0.75 0 0 1 -1,-0.27 13,13 0 0 0 -5.16,-4.52 25.75,25.75 0 0 1 -2.09,12 v 0 a 0.75,0.75 0 0 1 -0.74,0.42 0.72,0.72 0 0 1 -0.67,-0.79 c 0.3,-3.25 -3.54,-5.55 -7,-7.63 l -0.89,-0.54 V 470 l 1.66,1 c 2.88,1.73 6,3.6 7.21,6.19 a 22.5,22.5 0 0 0 0.94,-9.67 16.19,16.19 0 0 1 -4.53,-4.24 l -0.38,-0.57 a 12.79,12.79 0 0 1 -2.93,3.64 0.77,0.77 0 0 1 -0.44,0.17 0.75,0.75 0 0 1 -0.79,-0.69 8.23,8.23 0 0 0 -0.74,-2.89 V 460 a 13.18,13.18 0 0 1 2,4.28 c 0.85,-0.89 1.93,-2.28 1.93,-3.55 a 0.74,0.74 0 0 1 0.74,-0.74 0.76,0.76 0 0 1 0.7,0.49 9.16,9.16 0 0 0 0.5,1 v 0 c 0.2,0.34 0.41,0.67 0.62,1 a 14.81,14.81 0 0 0 4.26,3.93 v 0 a 17,17 0 0 1 5.94,4.15 l 0.84,-5.9 a 0.74,0.74 0 0 1 0.84,-0.62 0.73,0.73 0 0 1 0.58,0.43 c 0.39,0.76 6.74,12.66 20.14,10.33 -2.14,-2.09 -6.45,-7.28 -4.84,-14.09 -0.44,-0.3 -0.91,-0.6 -1.41,-0.89 -0.83,-0.5 -1.71,-1 -2.66,-1.45 v 0 a 19.59,19.59 0 0 1 -8.85,-9.1 l -3.11,6.34 v 0 a 0.83,0.83 0 0 1 -0.25,0.28 0.75,0.75 0 0 1 -1,-0.18 14.58,14.58 0 0 0 -2.79,-2.76 22,22 0 0 1 -2.22,-2 7.56,7.56 0 0 1 -1.29,2.85 c -0.24,0.38 -0.5,0.8 -0.76,1.27 a 7.46,7.46 0 0 0 -0.82,2.64 v 0 a 0.74,0.74 0 0 1 -0.54,0.62 0.75,0.75 0 0 1 -0.91,-0.52 c -0.92,-3.33 -7.48,-7.81 -7.5,-7.82 a 0.27,0.27 0 0 1 -0.08,-0.07 v -1.08 a 0.74,0.74 0 0 1 0.91,-0.07 c 0,0 4.91,3.35 7.14,6.7 a 8.28,8.28 0 0 1 0.5,-1.11 c 0.27,-0.49 0.54,-0.92 0.79,-1.32 1,-1.7 1.66,-2.68 0.19,-5.59 a 0.25,0.25 0 0 1 0,-0.09 0.73,0.73 0 0 1 0.34,-1 0.74,0.74 0 0 1 1,0.33 v 0 l 0.05,0.09 a 18.31,18.31 0 0 0 1.52,2.4 15.22,15.22 0 0 0 2.67,2.59 22.6,22.6 0 0 1 2.3,2.1 l 3.33,-6.77 a 0.74,0.74 0 0 1 1,-0.34 0.72,0.72 0 0 1 0.38,0.44 v 0 0 a 17.88,17.88 0 0 0 8.73,9.79 h 0.06 c 1,0.5 1.93,1 2.75,1.5 0.82,0.5 1.62,1 2.31,1.49 a 19.22,19.22 0 0 1 4.81,4.63 5.56,5.56 0 0 0 -0.2,-2.23 v 0 c -0.15,-0.42 -0.44,-1.13 -0.81,-2 -0.2,-0.49 -0.35,-0.85 -0.43,-1 a 0.14,0.14 0 0 1 0,-0.06 55.62,55.62 0 0 1 -2.17,-6 c -0.59,-2.11 -0.86,-4.09 -0.38,-5.39 -0.66,-0.56 -1.37,-1.1 -2.08,-1.64 a 23.55,23.55 0 0 1 -4.78,-4.38 18.65,18.65 0 0 1 -3.18,-9.12 18.24,18.24 0 0 0 -2.76,-6.57 c 1.68,6 -0.28,13.17 -0.52,14 0,0.2 0,0.36 0,0.5 a 3.75,3.75 0 0 1 0,0.51 1.12,1.12 0 0 1 0,0.27 v 0 a 0.36,0.36 0 0 1 0,0.1 0.81,0.81 0 0 1 -0.27,0.51 c -0.5,0.81 -1,0.85 -1.14,-0.28 a 0.72,0.72 0 0 1 -0.06,-0.49 c 0,-0.11 0,-0.28 0,-0.54 a 2.75,2.75 0 0 0 -0.18,-0.61 v 0 -0.11 c -0.54,-1.09 -2.19,-2.39 -4,-3.79 a 31.27,31.27 0 0 1 -4.45,-4 26.06,26.06 0 0 1 -3.44,8.69 0.74,0.74 0 0 1 -1,0.24 0.76,0.76 0 0 1 -0.31,-0.88 2.29,2.29 0 0 0 0.07,-0.28 1.94,1.94 0 0 0 0,-0.33 4.29,4.29 0 0 0 -2,-3.34 7.53,7.53 0 0 1 -1.44,-1.26 v 0 l -0.19,-0.23 a 13.54,13.54 0 0 1 -2.93,6.85 0.75,0.75 0 0 1 -1.05,0.08 0.72,0.72 0 0 1 -0.21,-0.31 v 0 a 10.3,10.3 0 0 0 -0.73,-1.51 v -2.7 a 23.11,23.11 0 0 1 1.58,2.51 11,11 0 0 0 1.78,-7.83 0.73,0.73 0 0 1 0.5,-0.87 0.73,0.73 0 0 1 0.93,0.48 7.94,7.94 0 0 0 1.45,2.58 v 0 a 6.71,6.71 0 0 0 1.19,1 5.26,5.26 0 0 1 1.9,2.08 6,6 0 0 1 0.36,0.81 c 1,-2.07 2.38,-5.31 2.14,-8 a 4.38,4.38 0 0 1 -0.33,-1.62 0.74,0.74 0 0 1 1.44,-0.25 v 0 a 6.27,6.27 0 0 1 0.33,1.5 c 0.81,1.83 3.16,3.67 5.31,5.37 a 25.87,25.87 0 0 1 3.72,3.3 c 0.67,-3 1.8,-9.94 -1,-14.55 a 0.7,0.7 0 0 1 -0.05,-0.63 0.74,0.74 0 0 1 1,-0.42 c 0,0 3.9,1.41 5.87,9.65 v 0 a 0.59,0.59 0 0 1 0,0.14 16.91,16.91 0 0 0 2.89,8.39 22.39,22.39 0 0 0 4.49,4.08 26.06,26.06 0 0 1 4.13,3.62 92.34,92.34 0 0 0 1,-14.07 c -0.14,-2.95 -1.1,-3.77 -3.25,-5.64 l -0.24,-0.21 c -1.06,-0.92 -2.18,-1.9 -3.14,-2.92 a 11.12,11.12 0 0 1 -2.3,-3.34 z m -31.77,-6.37 v -1.53 a 28.62,28.62 0 0 0 14.71,0.24 12.85,12.85 0 0 1 -3,-3.2 c -2.45,-3.43 -4,-3.63 -4,-3.63 a 0.74,0.74 0 0 1 0.11,-1.47 c 23.77,1.26 26.27,-7 26.28,-7 a 0.76,0.76 0 0 1 0.94,-0.47 0.74,0.74 0 0 1 0.47,0.93 c 0,0 -2.64,8.63 -24.94,8.13 a 16.25,16.25 0 0 1 2.36,2.7 v 0 0 c 0.09,0.14 2,3.09 4,3.42 a 0.74,0.74 0 0 1 0.61,0.85 0.75,0.75 0 0 1 -0.52,0.58 30.78,30.78 0 0 1 -17,0.43 z m 17.53,113.65 a 0.73,0.73 0 0 1 0.29,-1 0.74,0.74 0 0 1 1,0.29 c 0,0 5.66,9.52 -8.32,36.72 v 0 l -4,7.1 a 0.76,0.76 0 0 1 -1,0.29 0.73,0.73 0 0 1 -0.29,-1 l 3.95,-7.08 v 0 c 13.64,-26.47 8.38,-35.3 8.37,-35.32 z M 850.1,488.5 a 12.51,12.51 0 0 1 -0.83,2.89 19.83,19.83 0 0 1 -2.7,4.3 0.74,0.74 0 0 1 -1.32,-0.54 2.45,2.45 0 0 0 -0.17,-1 6.94,6.94 0 0 0 -0.6,-1.26 13.59,13.59 0 0 0 -1.46,-1.93 12.68,12.68 0 0 1 -1.8,-2.5 c -0.14,-0.27 -0.27,-0.54 -0.39,-0.8 a 19,19 0 0 1 -8.62,10.74 0.75,0.75 0 0 1 -0.83,-0.09 0.72,0.72 0 0 1 -0.09,-1 2,2 0 0 0 0.26,-1 12.07,12.07 0 0 0 0,-1.81 11.55,11.55 0 0 0 -1,-3.7 c -0.08,-0.2 -0.16,-0.4 -0.23,-0.59 a 19.5,19.5 0 0 1 -0.77,2.05 c -0.16,0.35 -0.32,0.69 -0.5,1 -0.18,0.31 -0.32,0.6 -0.49,0.88 v 0 0.06 a 8.14,8.14 0 0 1 -4.06,3.78 19.86,19.86 0 0 0 -2.33,1.35 13.43,13.43 0 0 0 -2.25,1.9 v 0 a 0.71,0.71 0 0 1 -0.34,0.23 v 0 a 0.64,0.64 0 0 1 -0.2,0 h -0.15 v -9.37 l 0.11,0.28 a 15.64,15.64 0 0 1 0.82,2.58 14.8,14.8 0 0 1 0.18,3.88 c 0.3,-0.24 0.63,-0.49 1,-0.74 a 20.13,20.13 0 0 1 2.49,-1.44 7,7 0 0 0 3.47,-3.23 v -0.06 0 c 0.14,-0.25 0.29,-0.52 0.44,-0.81 0.15,-0.29 0.31,-0.6 0.46,-0.94 a 15.69,15.69 0 0 0 1.31,-4.92 7.71,7.71 0 0 1 0.06,-1.16 0.74136698,0.74136698 0 0 1 1.48,0.09 q 0,0.54 -0.06,1.08 a 10.28,10.28 0 0 0 0.95,3.5 12.78,12.78 0 0 1 1.11,4.16 15.36,15.36 0 0 1 0,1.66 16.54,16.54 0 0 0 6.86,-11.35 0.74,0.74 0 0 1 1.45,-0.09 v 0 a 13.82,13.82 0 0 0 1.17,3.13 11.64,11.64 0 0 0 1.61,2.22 14.6,14.6 0 0 1 1.61,2.14 9.81,9.81 0 0 1 0.66,1.34 17.86,17.86 0 0 0 1.5,-2.65 14,14 0 0 0 0.9,-3.71 13.74,13.74 0 0 1 1.16,-4.41 v 0 0 c 0,-0.07 0.07,-0.14 0.11,-0.22 v 6.07 z m 0,-16.74 a 29.27,29.27 0 0 1 -2.63,-1.74 26.8,26.8 0 0 1 -2.44,9.71 0.75,0.75 0 0 1 -1.43,-0.16 c -0.75,-5 -4.54,-9.45 -6.12,-11.13 a 23.79,23.79 0 0 1 -8.56,8.69 0.78,0.78 0 0 1 -0.7,0.05 0.73,0.73 0 0 1 -0.38,-1 c 1.13,-2.54 0.5,-5.59 -0.15,-7.57 -1.91,5.79 -6.2,7 -6.21,7 a 0.76,0.76 0 0 1 -0.55,-0.05 0.73,0.73 0 0 1 -0.32,-1 c 0.64,-1.24 -0.25,-3.17 -0.42,-3.51 v 0 a 14.42,14.42 0 0 1 -1,-2.39 v -5.74 a 0.73,0.73 0 0 1 0.54,0.69 17.19,17.19 0 0 0 1.79,6.75 v 0.08 a 7.93,7.93 0 0 1 0.79,3.19 c 1.42,-0.88 3.67,-3 4.49,-7.49 a 0.74,0.74 0 0 1 0.86,-0.59 0.72,0.72 0 0 1 0.53,0.39 v 0 c 0.09,0.17 2.33,4.66 1.6,8.89 a 22.69,22.69 0 0 0 6.85,-7.95 0.74,0.74 0 0 1 1,-0.32 0.59,0.59 0 0 1 0.18,0.13 v 0 c 0.21,0.2 4.91,4.72 6.7,10.37 a 20,20 0 0 0 1.38,-8.7 0.73,0.73 0 0 1 0.64,-0.82 0.74,0.74 0 0 1 0.66,0.26 v 0 a 13.34,13.34 0 0 0 2.9,2.2 v 1.72 z m 0,-8.77 V 460 a 26.8,26.8 0 0 0 -5.77,-5.88 v 0 a 0.7,0.7 0 0 0 -0.4,-0.15 0.74,0.74 0 0 0 -0.77,0.71 c -0.07,1.44 -2,4.48 -3.19,6.25 a 6.67,6.67 0 0 0 -3,-2.6 9.69,9.69 0 0 1 -1.88,-1.28 v 0 0 a 12.43,12.43 0 0 1 -2.65,-5 0.74,0.74 0 0 0 -1.43,0.36 14,14 0 0 0 3,5.7 v 0 h 0.05 a 10.76,10.76 0 0 0 2.17,1.5 c 1.32,0.76 2.62,1.51 2.62,3.14 a 0.74,0.74 0 0 0 0.74,0.73 0.72,0.72 0 0 0 0.64,-0.37 35.32,35.32 0 0 0 4.1,-7.1 21.23,21.23 0 0 1 5.77,6.99 z m 0,-13.09 a 0.72,0.72 0 0 1 -0.1,-0.9 0.77,0.77 0 0 1 0.12,-0.13 v 1.08 z m 0,-9.85 a 25.88,25.88 0 0 0 -1.45,-2.19 29.94,29.94 0 0 1 -0.72,8.4 0.75,0.75 0 0 1 -0.89,0.55 0.74,0.74 0 0 1 -0.56,-0.59 c -0.36,-1.65 -1.8,-2.63 -3.31,-3.66 a 12.7,12.7 0 0 1 -3.47,-3 9.55,9.55 0 0 1 -1.8,2.72 10,10 0 0 0 -2.16,3.54 0.74,0.74 0 0 1 -1.35,0.13 6.67,6.67 0 0 0 -1.6,-1.86 17.93,17.93 0 0 0 -3.06,-1.76 c -3.4,-1.7 -3.4,-7.44 -3.4,-7.46 a 0.74,0.74 0 0 1 1.48,0 c 0,0 0,4.86 2.58,6.14 a 20.09,20.09 0 0 1 3.32,1.93 7,7 0 0 1 1.17,1.14 11,11 0 0 1 2,-2.81 8.92,8.92 0 0 0 2,-3.71 v 0 a 0.71,0.71 0 0 1 0.46,-0.51 0.74,0.74 0 0 1 0.95,0.44 c 0.66,1.81 2.23,2.88 3.73,3.9 a 12.75,12.75 0 0 1 2.9,2.41 c 0.43,-2.69 0.82,-7.14 -0.78,-9.06 v 0 a 0.74,0.74 0 0 1 0.06,-1 0.75,0.75 0 0 1 1.05,0.06 c 0,0 1.5,1.69 2.89,3.65 v 2.7 z m 0,-25.36 v 1.53 a 23.17,23.17 0 0 1 -5.66,-2.49 c 1.19,1.79 2.71,3.79 3.94,4.35 a 0.74,0.74 0 0 1 0.36,1 0.72,0.72 0 0 1 -0.61,0.42 c -0.38,0 -8.12,0.87 -12.24,-1.16 v 0 0 a 43,43 0 0 1 -4.58,-2.78 c -3.57,-2.39 -7.12,-4.76 -11.65,-3.71 l -0.45,0.13 v -1.53 h 0.11 c 5.17,-1.2 9,1.35 12.82,3.92 a 39.94,39.94 0 0 0 4.43,2.69 v 0 c 2.63,1.3 7,1.3 9.55,1.17 a 35.86,35.86 0 0 1 -4.85,-6.87 0.73,0.73 0 0 1 0.09,-0.86 0.74,0.74 0 0 1 1,-0.06 21.24,21.24 0 0 0 7.73,4.31 z m -30.94,7.09 a 5.68,5.68 0 0 0 4.71,-1 4.3,4.3 0 0 0 1.52,-2.12 4.1,4.1 0 0 0 0.09,-1.89 v 0 a 3.75,3.75 0 0 0 -0.15,-0.52 3.43,3.43 0 0 0 -0.23,-0.52 6.44,6.44 0 0 0 -2.78,-2.41 0.74,0.74 0 0 0 -1,0.31 0.73,0.73 0 0 0 0.31,1 5,5 0 0 1 2.17,1.82 1.94,1.94 0 0 1 0.14,0.3 c 0,0.1 0.06,0.2 0.08,0.3 v 0 a 2.56,2.56 0 0 1 -0.06,1.21 2.76,2.76 0 0 1 -1,1.38 4,4 0 0 1 -1.75,0.75 3.73,3.73 0 0 1 -1.76,-0.08 l -0.3,-0.1 z m 0,79.74 h -0.1 a 0.52,0.52 0 0 1 -0.15,-0.07 v 0 l -0.07,-0.05 v 0 l 0.07,0.05 -0.07,-0.05 v -10.14 c 0.1,0.3 0.21,0.59 0.32,0.89 z m 0,-32.87 c -0.12,-0.37 -0.23,-0.74 -0.32,-1.09 V 462.9 H 819 a 0.75,0.75 0 0 1 0.21,0 v 5.74 z m 0,-58.24 v 1.53 l -0.32,0.12 v -1.56 a 1.92,1.92 0 0 1 0.32,-0.09 z m 0,9.82 v 1.55 h -0.12 l -0.2,-0.06 v -1.62 z m -0.32,81.15 -0.06,-0.05 v 0 0 0 0 0 0 0 a 0.73,0.73 0 0 1 -0.07,-0.6 v 0 -0.08 c 0,-0.12 0,-0.29 0.07,-0.47 a 16.88,16.88 0 0 0 0.18,-2.25 v 3.61 l -0.06,-0.05 0.06,0.05 z m 0,-4.09 a 10.9,10.9 0 0 0 -0.2,-2 14.79,14.79 0 0 0 -0.76,-2.36 9.38,9.38 0 0 1 -0.89,-4 c -6.55,4.28 -10.76,3.37 -10.87,3.34 a 0.73,0.73 0 0 1 -0.21,-1.36 10.42,10.42 0 0 0 5,-7.25 c 0.86,-5.92 3.43,-6.08 3.44,-6.08 a 0.75,0.75 0 0 1 0.81,0.66 0.73,0.73 0 0 1 -0.67,0.8 c 0,0 -1.42,0.07 -2.12,4.82 a 11.6,11.6 0 0 1 -3.87,7 c 1.9,-0.23 5,-1.13 9.15,-4.16 a 0.74,0.74 0 0 1 1.14,0.84 5.57,5.57 0 0 0 0.08,3.67 v 6 z m 0,-29.73 a 19.33,19.33 0 0 1 -0.62,-3.92 0.73,0.73 0 0 1 0.62,-0.74 z m 0,-57.06 v 1.56 a 4.44,4.44 0 0 0 -2.41,2.36 4.34,4.34 0 0 0 -0.26,2.78 4.41,4.41 0 0 0 0.44,1.14 6.29,6.29 0 0 0 2.23,1.76 v 1.58 a 7.63,7.63 0 0 1 -3.43,-2.48 v 0 l -0.06,-0.08 a 6.36,6.36 0 0 1 -0.63,-1.58 5.82,5.82 0 0 1 0.36,-3.71 6,6 0 0 1 2.52,-2.8 5.94,5.94 0 0 1 1.24,-0.53 z m -3.4,133.73 a 0.75,0.75 0 0 1 1,-0.38 0.73,0.73 0 0 1 0.38,1 c 0,0 -5.35,11.93 -0.51,29.29 v 0 0 l 1,4.75 a 0.74035464,0.74035464 0 0 1 -1.45,0.3 l -1,-4.74 c -4.98,-17.83 0.57,-30.18 0.58,-30.22 z"
       class="cls-6" />
  </g>
</svg>
