<?xml version="1.0" encoding="UTF-8" standalone="no"?>
<svg
   xmlns:dc="http://purl.org/dc/elements/1.1/"
   xmlns:cc="http://creativecommons.org/ns#"
   xmlns:rdf="http://www.w3.org/1999/02/22-rdf-syntax-ns#"
   xmlns:svg="http://www.w3.org/2000/svg"
   xmlns="http://www.w3.org/2000/svg"
   xmlns:sodipodi="http://sodipodi.sourceforge.net/DTD/sodipodi-0.dtd"
   xmlns:inkscape="http://www.inkscape.org/namespaces/inkscape"
   inkscape:version="1.0 (4035a4fb49, 2020-05-01)"
   height="662"
   width="662"
   sodipodi:docname="vanuatu_circle_01.svg"
   version="1.1"
   viewBox="0 0 662 662"
   data-name="Layer 1"
   id="Layer_1">
  <metadata
     id="metadata125">
    <rdf:RDF>
      <cc:Work
         rdf:about="">
        <dc:format>image/svg+xml</dc:format>
        <dc:type
           rdf:resource="http://purl.org/dc/dcmitype/StillImage" />
      </cc:Work>
    </rdf:RDF>
  </metadata>
  <sodipodi:namedview
     inkscape:current-layer="Layer_1"
     inkscape:window-maximized="1"
     inkscape:window-y="-8"
     inkscape:window-x="-8"
     inkscape:cy="331"
     inkscape:cx="331"
     inkscape:zoom="0.69933333"
     showgrid="false"
     id="namedview123"
     inkscape:window-height="1009"
     inkscape:window-width="1920"
     inkscape:pageshadow="2"
     inkscape:pageopacity="0"
     guidetolerance="10"
     gridtolerance="10"
     objecttolerance="10"
     borderopacity="1"
     bordercolor="#666666"
     pagecolor="#ffffff" />
  <defs
     id="defs10">
    <style
       id="style2">.cls-1{fill:none;}.cls-2{clip-path:url(#clip-path);}.cls-3{fill:#ce1126;}.cls-4{fill:#d21034;}.cls-5{fill:#009543;}.cls-6{fill:#fdce12;}.cls-7{clip-path:url(#clip-path-2);}</style>
    <clipPath
       id="clip-path">
      <circle
         id="circle4"
         r="331"
         cy="500"
         cx="750"
         class="cls-1" />
    </clipPath>
    <clipPath
       id="clip-path-2">
      <rect
         id="rect7"
         height="607.56"
         width="1041.2"
         y="196.22"
         x="381.31"
         class="cls-1" />
    </clipPath>
  </defs>
  <title
     id="title12">Vanuatu</title>
  <g
     transform="translate(-419,-169)"
     id="g120"
     clip-path="url(#clip-path)"
     class="cls-2">
    <rect
       id="rect14"
       height="693.27002"
       width="1039.91"
       y="163.21001"
       x="215.88"
       class="cls-3" />
    <rect
       id="rect16"
       height="692.95001"
       width="1041.2"
       y="153.53"
       x="381.31" />
    <polygon
       id="polygon18"
       points="1422.51,438 1422.51,153.52 381.31,153.52 878.77,438 "
       class="cls-4" />
    <polygon
       id="polygon20"
       points="1422.51,846.48 1422.51,562 878.77,562 381.31,846.48 "
       class="cls-5" />
    <polygon
       id="polygon22"
       points="381.31,756.21 381.31,797.24 869.2,518.24 1422.51,518.24 1422.51,481.76 873.97,484.49 381.31,202.76 381.31,243.8 829.34,500 "
       class="cls-6" />
    <g
       id="g118"
       clip-path="url(#clip-path-2)"
       class="cls-7">
      <path
         id="path24"
         d="m 514.78,557.53 c 0,0 60.39,-0.57 60.12,-74.1 0,0 -9.13,-54.34 -67.55,-48.37 0,0 -63.79,19.14 -32.62,77.49 0,0 10.11,18 42.07,19.37 0,0 39.17,0.91 46.59,-40.24 0,0 8.76,45.49 -45.26,55.33 0,0 -73.83,2.79 -75.12,-66 0,0 -3.57,-58.21 62.88,-72.25 0,0 72.31,-12.84 97.48,59.66 0,0 15.75,60.7 -25.1,97.74 0,0 -25.37,25.25 -63.49,26 z"
         class="cls-6" />
      <path
         id="path26"
         d="m 490.29,506.9 c 0,0 -5.08,-11.23 0.7,-13.65 0,0 2.47,-0.76 1.05,12.11 z"
         class="cls-6" />
      <path
         id="path28"
         d="m 494.18,502.15 c 0,0 -4,-11.22 0.55,-13.64 0,0 1.94,-0.76 0.82,12.1 z"
         class="cls-6" />
      <path
         id="path30"
         d="m 498,497.72 c 0,0 -3.42,-11.41 1.25,-13.6 0,0 2,-0.65 0.2,12.13 z"
         class="cls-6" />
      <path
         id="path32"
         d="m 501.56,492.72 c 0,0 -2.53,-11.79 2.79,-13.37 0,0 2.23,-0.41 -1.05,12.09 z"
         class="cls-6" />
      <path
         id="path34"
         d="m 506.55,485.78 c 0,0 -2.12,-10.11 2.64,-11.33 0,0 2,-0.29 -1.08,10.29 z"
         class="cls-6" />
      <path
         id="path36"
         d="m 511.58,481.35 c 0,0 -2,-9.34 2.42,-10.48 0,0 1.83,-0.27 -1,9.51 z"
         class="cls-6" />
      <path
         id="path38"
         d="m 517.13,476.7 c 0,0 -2,-9.18 2.39,-10.29 0,0 1.83,-0.26 -0.95,9.34 z"
         class="cls-6" />
      <path
         id="path40"
         d="m 521.66,471.77 c 0,0 -0.63,-9.38 3.87,-9.83 0,0 1.85,0 -2.31,9.1 z"
         class="cls-6" />
      <path
         id="path42"
         d="m 526.15,468 c 0,0 1.3,-8.65 5.13,-8.59 0,0 1.53,0.2 -3.69,8.08 z"
         class="cls-6" />
      <path
         id="path44"
         d="m 531.48,464.26 c 0,0 1.3,-8.65 5.13,-8.59 0,0 1.53,0.2 -3.69,8.09 z"
         class="cls-6" />
      <path
         id="path46"
         d="m 536.3,461.32 c 0,0 2,-7.75 5.71,-7 0,0 1.46,0.45 -4.28,6.81 z"
         class="cls-6" />
      <path
         id="path48"
         d="m 539.57,459.36 c 0,0 3.65,-6.32 6.57,-5.21 0,0 1.12,0.59 -5.32,5.22 z"
         class="cls-6" />
      <path
         id="path50"
         d="m 491.79,507 c 0,0 8.51,-5.58 10.49,-3.36 0,0 1,2 -7.74,4.55 l -4.62,1.25 z"
         class="cls-6" />
      <path
         id="path52"
         d="m 495.06,502.18 c 0,0 8.5,-5.59 10.49,-3.37 0,0 0.95,2 -7.74,4.55 l -4.62,1.25 z"
         class="cls-6" />
      <path
         id="path54"
         d="m 498.07,497.36 c 0,0 7.71,-6.64 10,-4.69 0,0 1.2,1.85 -7.09,5.51 l -4.45,1.82 z"
         class="cls-6" />
      <path
         id="path56"
         d="m 503.76,491 c 0,0 8.27,-5.93 10.33,-3.78 0,0 1,1.95 -7.54,4.86 l -4.55,1.45 z"
         class="cls-6" />
      <path
         id="path58"
         d="m 509,484.53 c 0,0 8.67,-5.33 10.58,-3 0,0 0.9,2 -7.87,4.32 l -4.71,1.06 z"
         class="cls-6" />
      <path
         id="path60"
         d="m 515.22,478.35 c 0,0 8.88,-5 10.69,-2.61 0,0 0.81,2.05 -8,4 l -4.69,0.92 z"
         class="cls-6" />
      <path
         id="path62"
         d="m 522,472.22 c 0,0 8.78,-3.38 10.16,-1 0,0 0.48,2 -7.9,2.6 l -4.42,0.24 z"
         class="cls-6" />
      <path
         id="path64"
         d="m 526.81,468 c 0,0 8.66,-2.82 10.08,-0.67 0,0 0.53,1.77 -7.79,2.14 l -4.4,0.12 z"
         class="cls-6" />
      <path
         id="path66"
         d="m 531.91,464.31 c 0,0 8.53,-2.19 10,-0.29 0,0 0.58,1.55 -7.69,1.63 h -4.37 z"
         class="cls-6" />
      <path
         id="path68"
         d="m 538.16,460.16 c 0,0 8.23,-3.12 9.91,-1.4 0,0 0.75,1.48 -7.46,2.48 l -4.34,0.45 z"
         class="cls-6" />
      <path
         id="path70"
         d="m 486.56,512.62 c 0,0 18.53,-34.95 54.52,-54 0,0 -39.05,24.73 -52.85,55.74 z"
         class="cls-6" />
      <path
         id="path72"
         d="m 544.35,506.9 c 0,0 5.09,-11.23 -0.7,-13.65 0,0 -2.46,-0.76 -1,12.11 z"
         class="cls-6" />
      <path
         id="path74"
         d="m 540.47,502.15 c 0,0 4,-11.22 -0.55,-13.64 0,0 -1.94,-0.76 -0.82,12.1 z"
         class="cls-6" />
      <path
         id="path76"
         d="m 536.69,497.72 c 0,0 3.43,-11.41 -1.24,-13.6 0,0 -2,-0.65 -0.2,12.13 z"
         class="cls-6" />
      <path
         id="path78"
         d="m 533.09,492.72 c 0,0 2.53,-11.79 -2.8,-13.37 0,0 -2.22,-0.41 1.06,12.09 z"
         class="cls-6" />
      <path
         id="path80"
         d="m 528.1,485.78 c 0,0 2.11,-10.11 -2.65,-11.33 0,0 -2,-0.29 1.09,10.29 z"
         class="cls-6" />
      <path
         id="path82"
         d="m 523.07,481.35 c 0,0 2,-9.34 -2.42,-10.48 0,0 -1.84,-0.27 1,9.51 z"
         class="cls-6" />
      <path
         id="path84"
         d="m 517.51,476.7 c 0,0 2,-9.18 -2.39,-10.29 0,0 -1.82,-0.26 1,9.34 z"
         class="cls-6" />
      <path
         id="path86"
         d="m 513,471.77 c 0,0 0.63,-9.38 -3.88,-9.83 0,0 -1.84,0 2.32,9.1 z"
         class="cls-6" />
      <path
         id="path88"
         d="m 508.5,468 c 0,0 -1.3,-8.65 -5.13,-8.59 0,0 -1.53,0.2 3.69,8.08 z"
         class="cls-6" />
      <path
         id="path90"
         d="m 503.16,464.26 c 0,0 -1.29,-8.65 -5.12,-8.59 0,0 -1.53,0.2 3.69,8.09 z"
         class="cls-6" />
      <path
         id="path92"
         d="m 498.35,461.32 c 0,0 -2,-7.75 -5.72,-7 0,0 -1.45,0.45 4.29,6.81 z"
         class="cls-6" />
      <path
         id="path94"
         d="m 495.08,459.36 c 0,0 -3.66,-6.32 -6.57,-5.21 0,0 -1.12,0.59 5.31,5.22 z"
         class="cls-6" />
      <path
         id="path96"
         d="m 542.85,507 c 0,0 -8.5,-5.58 -10.48,-3.36 0,0 -1,2 7.74,4.55 l 4.62,1.25 z"
         class="cls-6" />
      <path
         id="path98"
         d="m 539.59,502.18 c 0,0 -8.51,-5.59 -10.49,-3.37 0,0 -1,2 7.74,4.55 l 4.62,1.25 z"
         class="cls-6" />
      <path
         id="path100"
         d="m 536.58,497.36 c 0,0 -7.72,-6.64 -10,-4.69 0,0 -1.2,1.85 7.09,5.51 l 4.41,1.84 z"
         class="cls-6" />
      <path
         id="path102"
         d="m 530.89,491 c 0,0 -8.27,-5.93 -10.34,-3.78 0,0 -1,1.95 7.55,4.86 l 4.56,1.44 z"
         class="cls-6" />
      <path
         id="path104"
         d="m 525.68,484.53 c 0,0 -8.66,-5.33 -10.58,-3 0,0 -0.89,2 7.88,4.32 l 4.65,1.11 z"
         class="cls-6" />
      <path
         id="path106"
         d="m 519.43,478.35 c 0,0 -8.88,-5 -10.7,-2.61 0,0 -0.81,2.05 8,4 l 4.69,0.92 z"
         class="cls-6" />
      <path
         id="path108"
         d="m 512.69,472.22 c 0,0 -8.78,-3.38 -10.16,-1 0,0 -0.49,2 7.89,2.6 l 4.43,0.24 z"
         class="cls-6" />
      <path
         id="path110"
         d="m 507.84,468 c 0,0 -8.66,-2.82 -10.08,-0.67 0,0 -0.54,1.77 7.79,2.14 l 4.4,0.12 z"
         class="cls-6" />
      <path
         id="path112"
         d="m 502.73,464.31 c 0,0 -8.53,-2.19 -10,-0.29 0,0 -0.58,1.55 7.69,1.63 h 4.37 z"
         class="cls-6" />
      <path
         id="path114"
         d="m 496.49,460.16 c 0,0 -8.24,-3.12 -9.91,-1.4 0,0 -0.75,1.48 7.45,2.48 l 4.35,0.45 z"
         class="cls-6" />
      <path
         id="path116"
         d="m 548.09,512.62 c 0,0 -18.54,-34.95 -54.53,-54 0,0 39.06,24.73 52.86,55.74 z"
         class="cls-6" />
    </g>
  </g>
</svg>
