<?xml version="1.0" encoding="UTF-8" standalone="no"?>
<svg
   xmlns:dc="http://purl.org/dc/elements/1.1/"
   xmlns:cc="http://creativecommons.org/ns#"
   xmlns:rdf="http://www.w3.org/1999/02/22-rdf-syntax-ns#"
   xmlns:svg="http://www.w3.org/2000/svg"
   xmlns="http://www.w3.org/2000/svg"
   xmlns:sodipodi="http://sodipodi.sourceforge.net/DTD/sodipodi-0.dtd"
   xmlns:inkscape="http://www.inkscape.org/namespaces/inkscape"
   inkscape:version="1.0 (4035a4fb49, 2020-05-01)"
   height="662"
   width="662"
   sodipodi:docname="brazil_circle_01.svg"
   version="1.1"
   viewBox="0 0 662 662"
   data-name="Layer 1"
   id="Layer_1">
  <metadata
     id="metadata72">
    <rdf:RDF>
      <cc:Work
         rdf:about="">
        <dc:format>image/svg+xml</dc:format>
        <dc:type
           rdf:resource="http://purl.org/dc/dcmitype/StillImage" />
        <dc:title>Flag-of-Brazil</dc:title>
      </cc:Work>
    </rdf:RDF>
  </metadata>
  <sodipodi:namedview
     inkscape:current-layer="Layer_1"
     inkscape:window-maximized="1"
     inkscape:window-y="-8"
     inkscape:window-x="-8"
     inkscape:cy="331"
     inkscape:cx="331"
     inkscape:zoom="0.69933333"
     showgrid="false"
     id="namedview70"
     inkscape:window-height="1163"
     inkscape:window-width="2194"
     inkscape:pageshadow="2"
     inkscape:pageopacity="0"
     guidetolerance="10"
     gridtolerance="10"
     objecttolerance="10"
     borderopacity="1"
     bordercolor="#666666"
     pagecolor="#ffffff" />
  <defs
     id="defs10">
    <style
       id="style2">.cls-1{fill:none;}.cls-2{clip-path:url(#clip-path);}.cls-3{fill:#009b3a;}.cls-4{fill:#fedf00;}.cls-5{fill:#002776;}.cls-6{clip-path:url(#clip-path-2);}.cls-7{fill:#fff;}</style>
    <clipPath
       id="clip-path">
      <circle
         id="circle4"
         r="331"
         cy="500"
         cx="750"
         class="cls-1" />
    </clipPath>
    <clipPath
       id="clip-path-2">
      <ellipse
         id="ellipse7"
         ry="117.38"
         rx="117.15"
         cy="500"
         cx="750"
         class="cls-1" />
    </clipPath>
  </defs>
  <title
     id="title12">Flag-of-Brazil</title>
  <g
     transform="translate(-419,-169)"
     id="g67"
     clip-path="url(#clip-path)"
     class="cls-2">
    <rect
       id="rect14"
       height="835.51001"
       width="857.42999"
       y="82.25"
       x="321.29001"
       class="cls-3" />
    <path
       d="M 472.19,500 750,677.77 1027.81,500 750,322.23 Z"
       class="cls-4"
       data-name=" 47"
       id="_47" />
    <ellipse
       ry="117.38"
       rx="117.15"
       cy="500"
       cx="750"
       class="cls-5"
       data-name=" 46"
       id="_46" />
    <g
       data-name=" 45"
       id="_45">
      <g
         id="g20"
         clip-path="url(#clip-path-2)"
         class="cls-6">
        <path
           id="path18"
           d="m 398.56,734.76 c 0,-157.44 127.37,-285.07 284.5,-285.07 157.13,0 284.5,127.63 284.5,285.07 h -16.74 c 0,-148.18 -119.88,-268.3 -267.76,-268.3 -147.88,0 -267.77,120.14 -267.77,268.3 z"
           class="cls-7" />
      </g>
    </g>
    <path
       d="m 687.48,463.66 10,0.35 0.07,-2.07 -8.12,-0.29 0.1,-2.86 6.37,0.22 0.06,-1.91 -6.37,-0.26 0.08,-2.23 7.65,0.27 v -2 l -9.56,-0.33 z"
       class="cls-3"
       data-name=" 44"
       id="_44" />
    <path
       d="m 701.64,464.27 1.9,0.17 0.67,-7.64 1.56,7.83 1.71,0.16 2.9,-7.43 -0.67,7.63 1.9,0.17 1,-11.14 -2.78,-0.24 -2.88,7.43 -1.51,-7.84 -2.77,-0.25 z"
       class="cls-3"
       data-name=" 43"
       id="_43" />
    <path
       d="m 724.75,466.87 8.25,1.41 0.33,-1.89 -6.37,-1.1 0.43,-2.51 5.19,0.89 0.32,-1.89 -5.19,-0.88 0.29,-1.71 6.17,1.06 0.32,-1.89 -8,-1.39 z"
       class="cls-3"
       data-name=" 42"
       id="_42" />
    <polygon
       points="793.89,481.34 797.77,483.03 797.14,484.5 793.26,482.81 "
       class="cls-3"
       data-name=" 41"
       id="_41" />
    <polygon
       points="796.31,482.39 797.77,483.03 795.55,488.16 794.08,487.52 "
       class="cls-3"
       data-name=" 40"
       id="_40" />
    <path
       d="m 828.19,501.81 c -0.57,0.94 0,2 1.36,2.85 1.36,0.85 2.28,0.83 2.64,0.23 1.23,-1.92 -5.83,-4.72 -3.66,-8.07 1.88,-2.86 5.09,-0.63 6.29,0.14 1.2,0.77 3.15,2.77 1.64,5.07 l -2.05,-1.31 c 0.64,-1 -0.06,-2 -1.14,-2.66 -1.08,-0.66 -1.89,-1 -2.51,0 -1,1.56 5.87,4.51 3.75,7.84 -1.56,2.46 -4.28,1.38 -6.1,0.22 -1.54,-1 -3.85,-3.31 -2.34,-5.66 z"
       class="cls-3"
       data-name=" 39"
       id="_39" />
    <path
       d="m 811.92,496.34 8.74,5 1,-1.8 -7.08,-4 1.42,-2.54 5.54,3.15 0.94,-1.67 -5.48,-3.16 1.11,-1.95 6.65,3.78 1,-1.82 -8.32,-4.71 z"
       class="cls-3"
       data-name=" 38"
       id="_38" />
    <path
       d="m 840.16,509.74 c -0.64,0.91 -0.09,2 1.2,2.92 1.29,0.92 2.22,0.94 2.64,0.36 1.31,-1.86 -5.58,-5 -3.24,-8.25 2,-2.77 5.11,-0.37 6.29,0.47 1.18,0.84 3,2.93 1.38,5.14 l -2,-1.41 c 0.7,-1 0,-2 -1,-2.73 -1,-0.73 -1.84,-1.06 -2.51,-0.12 -1.14,1.51 5.63,4.81 3.34,8 -1.71,2.38 -4.35,1.15 -6.1,-0.09 -1.49,-1.07 -3.68,-3.51 -2,-5.78 z"
       class="cls-3"
       data-name=" 37"
       id="_37" />
    <path
       d="m 654.39,459.53 c -0.38,-3.06 -2.91,-5.28 -5.66,-4.94 a 5.62,5.62 0 1 0 5.66,4.94 z m -5,-2.79 c 3.78,0 3.78,6.81 0,6.81 -3.78,0 -3.77,-6.81 0.01,-6.81 z"
       class="cls-3"
       data-name=" 36"
       id="_36" />
    <path
       d="m 860,520.81 a 5.05,5.05 0 1 0 -7,2.65 5.33,5.33 0 0 0 7,-2.65 z m -2.54,-5.14 c 3.13,2.15 -0.72,7.77 -3.84,5.62 -3.12,-2.15 0.71,-7.74 3.84,-5.57 z"
       class="cls-3"
       data-name=" 35"
       id="_35" />
    <path
       d="m 682.41,454.61 a 4.9,4.9 0 0 0 -3.71,-2.08 l -5.58,0.09 0.2,11.18 c 0,0 4.42,0 5.6,-0.11 a 5.19,5.19 0 0 0 3.46,-2 5.37,5.37 0 0 0 0.88,-3.46 5.88,5.88 0 0 0 -0.85,-3.62 z m -4.57,7.06 h -2.5 c 0,0 -0.1,-5.64 -0.12,-7 h 3.28 a 3,3 0 0 1 2.69,2.06 15.29,15.29 0 0 1 0.16,2 3.29,3.29 0 0 1 -1,2.17 3.64,3.64 0 0 1 -2.45,0.79 z"
       class="cls-3"
       data-name=" 34"
       id="_34" />
    <path
       d="m 667.17,459.45 a 4.88,4.88 0 0 0 1.47,-2.4 3.51,3.51 0 0 0 -3,-4 h -0.27 c -1.14,0 -6.85,0.44 -6.85,0.44 l 0.61,11.17 2.07,-0.15 -0.29,-4.14 3.59,-0.25 0.86,-0.06 a 9.71,9.71 0 0 1 1.24,2.94 q 0.06,0.62 0.06,1.23 h 2 a 8.85,8.85 0 0 0 -0.52,-3.18 6.29,6.29 0 0 0 -0.97,-1.6 z m -1.26,-1.72 a 3.54,3.54 0 0 1 -1.65,0.39 l -3.43,0.23 c 0,0 -0.13,-2 -0.2,-2.86 0.53,0 3.27,-0.23 3.32,-0.23 0.57,0 1.18,-0.07 1.18,-0.07 a 1.5,1.5 0 0 1 0.89,0.41 1.11,1.11 0 0 1 0.45,1 1.54,1.54 0 0 1 -0.56,1.15 z"
       class="cls-3"
       data-name=" 33"
       id="_33" />
    <path
       d="m 785,476.45 a 5.0127163,5.0127163 0 1 0 -9.93,-1.38 c -0.4,3.05 1.47,5.85 4.21,6.23 2.74,0.38 5.31,-1.79 5.72,-4.85 z m -4.1,-4 c 3.66,1 1.92,7.55 -1.75,6.58 -3.67,-0.97 -1.92,-7.56 1.75,-6.58 z"
       class="cls-3"
       data-name=" 32"
       id="_32" />
    <path
       d="m 769,472.12 a 5,5 0 0 0 2.17,-1.8 3.52,3.52 0 0 0 -1.56,-4.72 l -0.21,-0.1 c -1.1,-0.33 -6.6,-1.81 -6.6,-1.81 l -3.06,10.75 2,0.53 1.08,-4 3.47,0.94 0.84,0.23 a 9.8,9.8 0 0 1 0.19,3.18 10,10 0 0 1 -0.35,1.18 l 1.91,0.66 a 8.64,8.64 0 0 0 0.57,-3.18 6.57,6.57 0 0 0 -0.45,-1.86 z m -0.62,-2.06 a 3.74,3.74 0 0 1 -1.71,-0.18 l -3.34,-0.92 0.75,-2.77 c 0.49,0.17 3.16,0.85 3.2,0.87 0.53,0.16 1.15,0.31 1.15,0.31 a 1.66,1.66 0 0 1 0.71,0.68 1.17,1.17 0 0 1 0.11,1.06 1.57,1.57 0 0 1 -0.89,0.95 z"
       class="cls-3"
       data-name=" 31"
       id="_31" />
    <path
       d="m 809.5,488.57 a 4.93,4.93 0 0 0 2.29,-1.6 3.52,3.52 0 0 0 -1.15,-4.83 1.13,1.13 0 0 0 -0.21,-0.12 c -1.07,-0.43 -6.42,-2.38 -6.42,-2.38 l -4,10.45 1.94,0.71 1.42,-3.9 3.38,1.23 0.82,0.29 a 9.7,9.7 0 0 1 -0.09,3.19 9.25,9.25 0 0 1 -0.44,1.14 l 1.84,0.83 a 8.48,8.48 0 0 0 0.81,-3.12 6.32,6.32 0 0 0 -0.19,-1.89 z m -0.44,-2.1 a 3.6,3.6 0 0 1 -1.67,-0.33 L 804.15,485 c 0,0 0.66,-1.84 1,-2.7 0.47,0.21 3.07,1.14 3.12,1.14 0.51,0.21 1.1,0.41 1.1,0.41 a 1.58,1.58 0 0 1 0.66,0.74 1.17,1.17 0 0 1 0,1.06 1.6,1.6 0 0 1 -0.97,0.82 z"
       class="cls-3"
       data-name=" 30"
       id="_30" />
    <path
       d="m 755.25,468.38 a 4.82,4.82 0 0 0 2.13,-1.84 3.51,3.51 0 0 0 -1.65,-4.67 l -0.24,-0.11 c -1.11,-0.3 -6.64,-1.66 -6.64,-1.66 l -2.8,10.83 2,0.49 1,-4 3.49,0.86 0.84,0.21 m 1.2,-2.1 a 3.73,3.73 0 0 1 -1.71,-0.15 l -3.36,-0.83 0.68,-2.79 c 0.5,0.16 3.18,0.77 3.23,0.79 0.54,0.15 1.15,0.29 1.15,0.29 a 1.61,1.61 0 0 1 0.73,0.66 1.19,1.19 0 0 1 0.14,1.05 1.65,1.65 0 0 1 -0.87,1 z"
       class="cls-3"
       data-name=" 29"
       id="_29" />
    <path
       d="m 796.75,482.51 a 9.37,9.37 0 0 0 -0.89,-0.31 c -0.87,1.65 -2.8,2.82 -4.52,1.64 -3.13,-2.14 0.71,-7.77 3.84,-5.62 a 2.54,2.54 0 0 1 1.14,2 c 0.48,0.21 1,0.3 1.47,0.52 l 0.57,0.28 a 5,5 0 0 0 -2.56,-4.95 5.61,5.61 0 1 0 1.9,7.27 l 0.15,-0.33 z"
       class="cls-3"
       data-name=" 28"
       id="_28" />
    <polygon
       points="784.24,466.78 785.19,463.86 782.71,462.06 785.77,462.06 786.72,459.14 787.67,462.06 790.73,462.06 788.25,463.86 789.2,466.78 786.72,464.98 "
       class="cls-7"
       data-name=" 27"
       id="_27" />
    <polygon
       points="657.32,482.99 656.19,479.51 659.15,477.36 655.49,477.36 654.37,473.89 653.24,477.36 649.6,477.36 652.54,479.51 651.42,482.99 654.37,480.84 "
       class="cls-7"
       data-name=" 26"
       id="_26" />
    <polygon
       points="784.12,496.95 783.34,494.54 785.38,493.06 782.86,493.06 782.08,490.65 781.31,493.06 778.77,493.06 780.82,494.54 780.04,496.95 782.08,495.46 "
       class="cls-7"
       data-name=" 25"
       id="_25" />
    <polygon
       points="677.35,522.96 676.88,521.5 678.12,520.59 676.58,520.59 676.11,519.13 675.63,520.59 674.1,520.59 675.35,521.47 674.87,522.96 676.11,522.05 "
       class="cls-7"
       data-name=" 24"
       id="_24" />
    <polyline
       points="664.71 523.24 663.6 526.71 659.95 526.71 662.91 528.86 661.78 532.34 664.73 530.19 667.68 532.34 666.55 528.86 669.5 526.71 665.86 526.71 664.73 523.24"
       class="cls-7"
       data-name=" 23"
       id="_23" />
    <polygon
       points="652.84,542.2 651.9,539.3 654.36,537.51 651.32,537.51 650.38,534.62 649.45,537.51 646.4,537.51 648.86,539.3 647.93,542.2 650.38,540.41 "
       class="cls-7"
       data-name=" 22"
       id="_22" />
    <polygon
       points="707.86,508.01 706.93,505.17 709.35,503.42 706.36,503.42 705.44,500.58 704.52,503.42 701.54,503.42 703.96,505.17 703.04,508.01 705.44,506.25 "
       class="cls-7"
       data-name=" 21"
       id="_21" />
    <polygon
       points="691.61,542.71 690.76,540.09 692.98,538.48 690.24,538.48 689.39,535.86 688.54,538.48 685.79,538.48 688.01,540.09 687.17,542.71 689.39,541.09 "
       class="cls-7"
       data-name=" 20"
       id="_20" />
    <polygon
       points="687.83,554.65 687.05,552.25 689.09,550.76 686.57,550.76 685.79,548.35 685.02,550.76 682.49,550.76 684.53,552.25 683.75,554.65 685.79,553.16 "
       class="cls-7"
       data-name=" 19"
       id="_19" />
    <polygon
       points="706.03,565.73 704.9,562.25 707.86,560.11 704.21,560.11 703.08,556.63 701.96,560.11 698.31,560.11 701.26,562.25 700.13,565.73 703.08,563.58 "
       class="cls-7"
       data-name=" 18"
       id="_18" />
    <polygon
       points="752.48,522.69 751.53,519.77 754.01,517.97 750.93,517.97 750,515.05 749.05,517.97 745.99,517.97 748.47,519.77 747.52,522.69 750,520.89 "
       class="cls-7"
       data-name=" 17"
       id="_17" />
    <polygon
       points="740.2,532.43 739.42,530.03 741.47,528.54 738.94,528.54 738.16,526.13 737.38,528.54 734.85,528.54 736.9,530.03 736.12,532.43 738.16,530.94 "
       class="cls-7"
       data-name=" 16"
       id="_16" />
    <polygon
       points="745.27,539 744.79,537.54 746.03,536.63 744.5,536.63 744.02,535.17 743.55,536.63 742.01,536.63 743.25,537.54 742.78,539 744.02,538.1 "
       class="cls-7"
       data-name=" 15"
       id="_15" />
    <polygon
       points="766.02,532.95 765.07,530.03 767.55,528.23 764.49,528.23 763.54,525.31 762.6,528.23 759.53,528.23 762.01,530.03 761.06,532.95 763.54,531.15 "
       class="cls-7"
       data-name=" 14"
       id="_14" />
    <polygon
       points="752.95,557.3 751.82,553.82 754.77,551.67 751.13,551.67 750,548.2 748.89,551.67 745.23,551.67 748.18,553.82 747.05,557.3 750,555.15 "
       class="cls-7"
       data-name=" 13"
       id="_13" />
    <polygon
       points="750.88,593.13 750.51,592.01 751.46,591.33 750.29,591.33 749.93,590.21 749.57,591.33 748.39,591.33 749.34,592.01 748.98,593.13 749.93,592.44 "
       class="cls-7"
       data-name=" 12"
       id="_12" />
    <polygon
       points="777.83,568.7 777.05,566.3 779.1,564.81 776.57,564.81 775.79,562.41 775.02,564.81 772.49,564.81 774.53,566.3 773.75,568.7 775.79,567.22 "
       class="cls-7"
       data-name=" 11"
       id="_11" />
    <polygon
       points="787.5,582.42 786.55,579.5 789.02,577.7 785.96,577.7 785.02,574.78 784.07,577.7 781,577.7 783.49,579.5 782.54,582.42 785.02,580.62 "
       class="cls-7"
       data-name=" 10"
       id="_10" />
    <polygon
       points="794.39,567.48 791.85,567.48 793.89,568.97 793.11,571.37 795.16,569.89 797.2,571.37 796.41,568.97 798.46,567.48 795.93,567.48 795.16,565.07 "
       class="cls-7"
       data-name=" 9"
       id="_9" />
    <polygon
       points="810.23,567.47 809.44,565.07 811.49,563.58 808.96,563.58 808.18,561.18 807.4,563.58 804.88,563.58 806.92,565.07 806.14,567.47 808.18,565.99 "
       class="cls-7"
       data-name=" 8"
       id="_8" />
    <polygon
       points="810.96,579.41 810.01,576.49 812.5,574.68 809.43,574.68 808.48,571.76 807.53,574.68 804.47,574.68 806.95,576.49 806,579.41 808.48,577.6 "
       class="cls-7"
       data-name=" 7"
       id="_7" />
    <polygon
       points="810.8,590.84 810.03,588.43 812.07,586.94 809.53,586.94 808.76,584.54 807.99,586.94 805.46,586.94 807.5,588.43 806.72,590.84 808.76,589.35 "
       class="cls-7"
       data-name=" 6"
       id="_6" />
    <polygon
       points="822.46,569.58 821.69,567.17 823.73,565.68 821.2,565.68 820.42,563.28 819.64,565.68 817.12,565.68 819.16,567.17 818.38,569.58 820.42,568.09 "
       class="cls-7"
       data-name=" 5"
       id="_5" />
    <polyline
       points="825.78 559.6 828.27 561.4 827.32 564.32 829.8 562.52 832.28 564.32 831.33 561.4 833.81 559.6 830.75 559.6 829.8 556.68 828.87 559.6 825.86 559.59"
       class="cls-7"
       data-name=" 4"
       id="_4" />
    <polygon
       points="839.32,555.17 838.37,552.25 840.85,550.45 837.78,550.45 836.84,547.52 835.89,550.45 832.83,550.45 835.31,552.25 834.36,555.17 836.84,553.37 "
       class="cls-7"
       data-name=" 3"
       id="_3" />
    <polygon
       points="835.01,545.19 833.88,541.71 836.84,539.56 833.19,539.56 832.06,536.09 830.94,539.56 827.29,539.56 830.24,541.71 829.11,545.19 832.06,543.04 "
       class="cls-7"
       data-name=" 2"
       id="_2" />
    <polygon
       points="850.51,545.23 849.73,542.82 851.77,541.33 849.24,541.33 848.47,538.93 847.7,541.33 845.16,541.33 847.2,542.82 846.43,545.23 848.47,543.74 "
       class="cls-7"
       data-name=" 1"
       id="_1" />
  </g>
</svg>
