<?xml version="1.0" encoding="UTF-8" standalone="no"?>
<svg
   xmlns:dc="http://purl.org/dc/elements/1.1/"
   xmlns:cc="http://creativecommons.org/ns#"
   xmlns:rdf="http://www.w3.org/1999/02/22-rdf-syntax-ns#"
   xmlns:svg="http://www.w3.org/2000/svg"
   xmlns="http://www.w3.org/2000/svg"
   xmlns:sodipodi="http://sodipodi.sourceforge.net/DTD/sodipodi-0.dtd"
   xmlns:inkscape="http://www.inkscape.org/namespaces/inkscape"
   inkscape:version="1.0 (4035a4fb49, 2020-05-01)"
   sodipodi:docname="copy_1_black.svg"
   xml:space="preserve"
   style="enable-background:new 0 0 512 512;"
   viewBox="0 0 512 512"
   y="0px"
   x="0px"
   id="Layer_1"
   version="1.1"><metadata
   id="metadata9"><rdf:RDF><cc:Work
       rdf:about=""><dc:format>image/svg+xml</dc:format><dc:type
         rdf:resource="http://purl.org/dc/dcmitype/StillImage" /><dc:title></dc:title></cc:Work></rdf:RDF></metadata><defs
   id="defs7" /><sodipodi:namedview
   inkscape:current-layer="Layer_1"
   inkscape:window-maximized="1"
   inkscape:window-y="-8"
   inkscape:window-x="-8"
   inkscape:cy="256"
   inkscape:cx="256"
   inkscape:zoom="1.6601562"
   showgrid="false"
   id="namedview5"
   inkscape:window-height="1017"
   inkscape:window-width="1920"
   inkscape:pageshadow="2"
   inkscape:pageopacity="0"
   guidetolerance="10"
   gridtolerance="10"
   objecttolerance="10"
   borderopacity="1"
   bordercolor="#666666"
   pagecolor="#ffffff" />
<path
   id="path2"
   d="m 505.5,369.7 c -6.3,15 -16.9,27.7 -30.2,36.7 -6.7,4.5 -14,8.1 -21.9,10.5 -7.8,2.4 -16.2,3.8 -24.8,3.8 h -8.2 l 0.2,8.7 v 0.4 c 0,11.3 -2.4,22.1 -6.5,32 -6.3,14.8 -16.7,27.3 -29.8,36.1 -6.6,4.4 -13.8,8 -21.5,10.4 -7.8,2.5 -16,3.8 -24.5,3.8 H 338.2 91.4 91.3 c -12.5,0 -24.5,-2.6 -35.5,-7.3 C 39.4,497.8 25.5,486.3 15.6,471.7 10.7,464.4 6.8,456.4 4.1,447.8 1.5,439.3 0,430.1 0,420.7 v -0.1 -246.9 -0.1 c 0,-11.3 2.4,-22.1 6.5,-32 6.3,-14.8 16.7,-27.3 29.8,-36.1 6.6,-4.4 13.8,-8 21.5,-10.4 7.7,-2.4 15.9,-3.7 24.4,-3.8 h 0.1 9.1 V 83.5 C 91.4,72 93.7,61 98,51 104.3,36 114.9,23.3 128.2,14.3 134.9,9.8 142.2,6.2 150.1,3.8 157.9,1.4 166.3,0 174.9,0 h 253.7 c 11.5,0 22.5,2.3 32.5,6.6 15,6.3 27.7,16.9 36.7,30.2 4.5,6.7 8.1,14 10.5,21.9 2.4,7.8 3.8,16.2 3.8,24.8 v 253.7 c 0,11.5 -2.3,22.5 -6.6,32.5 z M 475.4,83.6 c 0,-6.5 -1.3,-12.6 -3.7,-18.2 -3.5,-8.4 -9.5,-15.6 -17,-20.6 -3.7,-2.5 -7.9,-4.5 -12.2,-5.9 -4.4,-1.4 -9,-2.1 -13.9,-2.1 H 174.9 c -6.5,0 -12.6,1.3 -18.2,3.7 -8.4,3.5 -15.6,9.5 -20.6,17 -2.5,3.7 -4.5,7.9 -5.9,12.2 -1.4,4.4 -2.1,9 -2.1,13.9 v 253.6 c 0,6.5 1.3,12.6 3.7,18.2 3.5,8.4 9.5,15.6 17,20.6 3.7,2.5 7.9,4.5 12.2,5.9 4.4,1.4 9,2.1 13.9,2.1 v 18.4 18.3 c -11.5,0 -22.5,-2.3 -32.5,-6.6 -15,-6.3 -27.7,-16.9 -36.7,-30.2 -4.5,-6.7 -8.1,-14 -10.5,-21.9 -2.4,-7.8 -3.8,-16.2 -3.8,-24.8 V 127.9 h -9 c -6.4,0 -12.3,1.3 -17.8,3.6 -8.2,3.5 -15.2,9.3 -20.1,16.6 -2.5,3.7 -4.4,7.7 -5.8,11.9 -1.3,4.3 -2.1,8.8 -2.1,13.6 v 247 c 0,7.6 1.6,14.8 4.4,21.3 4.2,9.8 11.1,18.2 19.9,24.2 4.4,3 9.2,5.3 14.3,6.9 5.1,1.6 10.6,2.5 16.3,2.5 h 246.7 c 6.4,0 12.3,-1.3 17.8,-3.6 8.2,-3.5 15.2,-9.3 20.1,-16.6 2.5,-3.7 4.4,-7.7 5.8,-11.9 1.3,-4.2 2.1,-8.7 2.1,-13.4 l -0.2,-9.3 H 174.9 v -18.3 -18.3 h 253.7 c 6.5,0 12.6,-1.3 18.2,-3.7 8.4,-3.5 15.6,-9.5 20.6,-17 2.5,-3.7 4.5,-7.9 5.9,-12.2 1.4,-4.4 2.1,-9 2.1,-13.9 V 83.6 Z" />
</svg>
