<?xml version="1.0" encoding="UTF-8" standalone="no"?>
<svg
   xmlns:dc="http://purl.org/dc/elements/1.1/"
   xmlns:cc="http://creativecommons.org/ns#"
   xmlns:rdf="http://www.w3.org/1999/02/22-rdf-syntax-ns#"
   xmlns:svg="http://www.w3.org/2000/svg"
   xmlns="http://www.w3.org/2000/svg"
   xmlns:sodipodi="http://sodipodi.sourceforge.net/DTD/sodipodi-0.dtd"
   xmlns:inkscape="http://www.inkscape.org/namespaces/inkscape"
   width="43.171043mm"
   height="44.449219mm"
   viewBox="0 0 43.171043 44.449219"
   version="1.1"
   id="svg8"
   inkscape:version="1.0 (4035a4fb49, 2020-05-01)"
   sodipodi:docname="logo_derek_prince_icon_01_white.svg"
   inkscape:export-filename="C:\Evan\Derek Prince\Logo\dp_pattern_01_transparent_blue.png"
   inkscape:export-xdpi="492.41"
   inkscape:export-ydpi="492.41">
  <defs
     id="defs2">
    <pattern
       patternUnits="userSpaceOnUse"
       width="34.140519"
       height="34.140519"
       patternTransform="matrix(0.26458333,0,0,0.26458333,108.52309,79.35392)"
       id="pattern4694">
      <g
         id="g4684"
         transform="matrix(3.7795276,0,0,3.7795276,-410.166,-299.92033)">
        <rect
           style="display:inline;opacity:1;fill:#0f4c81;fill-opacity:1;fill-rule:nonzero;stroke:none;stroke-width:0.99999994;stroke-linecap:butt;stroke-linejoin:miter;stroke-miterlimit:4;stroke-dasharray:none;stroke-dashoffset:0;stroke-opacity:1;paint-order:normal"
           id="rect4690-7-5"
           width="9.0330124"
           height="9.0330124"
           x="108.52309"
           y="79.35392" />
        <g
           style="display:inline;fill:#66ced6;fill-opacity:1;stroke-width:1.92525113"
           id="g4589-7-7"
           transform="matrix(0.51941274,0,0,0.51941274,52.261385,43.444703)">
          <path
             sodipodi:nodetypes="ccsssccscsccscsccsssc"
             inkscape:connector-curvature="0"
             id="path4821-5-96-5"
             d="m 117.68498,78.404999 0.28649,1.06148 3.21551,7.1e-5 c 1.67438,3.7e-5 2.65412,1.339828 2.65412,2.65412 0,1.308741 -1.00832,2.65412 -2.65412,2.65412 h -1.58985 v -1.061585 h 1.58985 c 0.92979,0 1.5992,-0.773513 1.59254,-1.596781 -0.007,-0.813104 -0.66382,-1.588292 -1.59254,-1.588292 l -2.93274,-5e-6 0.28123,1.061913 h 2.65151 c 0.32561,0 0.52901,0.293553 0.53095,0.534873 0.002,0.231159 -0.20233,0.52671 -0.53095,0.52671 h -2.6515 v 3.184747 h 2.6515 c 2.22951,0 3.7157,-1.850659 3.7157,-3.715702 0,-1.859491 -1.465,-3.715701 -3.7157,-3.715701 z"
             style="color:#000000;font-style:normal;font-variant:normal;font-weight:normal;font-stretch:normal;font-size:medium;line-height:normal;font-family:sans-serif;font-variant-ligatures:normal;font-variant-position:normal;font-variant-caps:normal;font-variant-numeric:normal;font-variant-alternates:normal;font-feature-settings:normal;text-indent:0;text-align:start;text-decoration:none;text-decoration-line:none;text-decoration-style:solid;text-decoration-color:#000000;letter-spacing:normal;word-spacing:normal;text-transform:none;writing-mode:lr-tb;direction:ltr;text-orientation:mixed;dominant-baseline:auto;baseline-shift:baseline;text-anchor:start;white-space:normal;shape-padding:0;clip-rule:nonzero;display:inline;overflow:visible;visibility:visible;opacity:1;isolation:auto;mix-blend-mode:normal;color-interpolation:sRGB;color-interpolation-filters:linearRGB;solid-color:#000000;solid-opacity:1;vector-effect:none;fill:#66ced6;fill-opacity:1;fill-rule:nonzero;stroke:none;stroke-width:12.22534466;stroke-linecap:butt;stroke-linejoin:miter;stroke-miterlimit:4;stroke-dasharray:none;stroke-dashoffset:0;stroke-opacity:1;color-rendering:auto;image-rendering:auto;shape-rendering:auto;text-rendering:auto;enable-background:accumulate" />
          <path
             sodipodi:nodetypes="ccsssccscsccscsccsssc"
             inkscape:connector-curvature="0"
             id="path4821-5-9-0-4"
             d="m 109.12399,85.72952 1.06148,-0.286489 7e-5,-3.215515 c 4e-5,-1.674383 1.33983,-2.654119 2.65412,-2.654119 1.30875,0 2.65412,1.008324 2.65412,2.654119 v 1.589854 h -1.06158 v -1.589854 c 0,-0.929785 -0.77351,-1.599198 -1.59678,-1.592538 -0.8131,0.0066 -1.58829,0.663815 -1.58829,1.592538 l -1e-5,2.932738 1.06191,-0.28123 v -2.651508 c 0,-0.325609 0.29356,-0.529004 0.53488,-0.53095 0.23116,-0.002 0.52671,0.202333 0.52671,0.53095 v 2.651502 h 3.18474 v -2.651502 c 0,-2.229512 -1.85066,-3.7157 -3.7157,-3.7157 -1.85949,0 -3.7157,1.464998 -3.7157,3.7157 z"
             style="color:#000000;font-style:normal;font-variant:normal;font-weight:normal;font-stretch:normal;font-size:medium;line-height:normal;font-family:sans-serif;font-variant-ligatures:normal;font-variant-position:normal;font-variant-caps:normal;font-variant-numeric:normal;font-variant-alternates:normal;font-feature-settings:normal;text-indent:0;text-align:start;text-decoration:none;text-decoration-line:none;text-decoration-style:solid;text-decoration-color:#000000;letter-spacing:normal;word-spacing:normal;text-transform:none;writing-mode:lr-tb;direction:ltr;text-orientation:mixed;dominant-baseline:auto;baseline-shift:baseline;text-anchor:start;white-space:normal;shape-padding:0;clip-rule:nonzero;display:inline;overflow:visible;visibility:visible;opacity:1;isolation:auto;mix-blend-mode:normal;color-interpolation:sRGB;color-interpolation-filters:linearRGB;solid-color:#000000;solid-opacity:1;vector-effect:none;fill:#66ced6;fill-opacity:1;fill-rule:nonzero;stroke:none;stroke-width:12.22534466;stroke-linecap:butt;stroke-linejoin:miter;stroke-miterlimit:4;stroke-dasharray:none;stroke-dashoffset:0;stroke-opacity:1;color-rendering:auto;image-rendering:auto;shape-rendering:auto;text-rendering:auto;enable-background:accumulate" />
          <path
             sodipodi:nodetypes="ccsssccscsccscsccsssc"
             inkscape:connector-curvature="0"
             id="path4821-5-8-1-8"
             d="m 116.34167,77.254349 -0.28649,-1.061481 -3.21552,-7.1e-5 c -1.67438,-3.6e-5 -2.65412,-1.339828 -2.65412,-2.65412 0,-1.30874 1.00833,-2.654119 2.65412,-2.654119 h 1.58986 v 1.061585 h -1.58986 c -0.92978,0 -1.5992,0.773513 -1.59254,1.596781 0.007,0.813103 0.66382,1.588292 1.59254,1.588292 l 2.93274,5e-6 -0.28123,-1.061913 h -2.65151 c -0.32561,0 -0.529,-0.293554 -0.53095,-0.534873 -0.002,-0.231159 0.20233,-0.52671 0.53095,-0.52671 h 2.6515 v -3.184747 h -2.6515 c -2.22951,0 -3.7157,1.850659 -3.7157,3.715701 0,1.859492 1.465,3.715702 3.7157,3.715702 z"
             style="color:#000000;font-style:normal;font-variant:normal;font-weight:normal;font-stretch:normal;font-size:medium;line-height:normal;font-family:sans-serif;font-variant-ligatures:normal;font-variant-position:normal;font-variant-caps:normal;font-variant-numeric:normal;font-variant-alternates:normal;font-feature-settings:normal;text-indent:0;text-align:start;text-decoration:none;text-decoration-line:none;text-decoration-style:solid;text-decoration-color:#000000;letter-spacing:normal;word-spacing:normal;text-transform:none;writing-mode:lr-tb;direction:ltr;text-orientation:mixed;dominant-baseline:auto;baseline-shift:baseline;text-anchor:start;white-space:normal;shape-padding:0;clip-rule:nonzero;display:inline;overflow:visible;visibility:visible;opacity:1;isolation:auto;mix-blend-mode:normal;color-interpolation:sRGB;color-interpolation-filters:linearRGB;solid-color:#000000;solid-opacity:1;vector-effect:none;fill:#66ced6;fill-opacity:1;fill-rule:nonzero;stroke:none;stroke-width:12.22534466;stroke-linecap:butt;stroke-linejoin:miter;stroke-miterlimit:4;stroke-dasharray:none;stroke-dashoffset:0;stroke-opacity:1;color-rendering:auto;image-rendering:auto;shape-rendering:auto;text-rendering:auto;enable-background:accumulate" />
          <path
             sodipodi:nodetypes="ccsssccscsccscsccsssc"
             inkscape:connector-curvature="0"
             id="path4821-5-9-5-2-6"
             d="m 124.90265,69.929827 -1.06148,0.286489 -7e-5,3.215516 c -4e-5,1.674383 -1.33983,2.654119 -2.65412,2.654119 -1.30874,0 -2.65412,-1.008324 -2.65412,-2.654119 v -1.589855 h 1.06158 v 1.589855 c 0,0.929785 0.77351,1.599198 1.59678,1.592538 0.81311,-0.0066 1.5883,-0.663816 1.5883,-1.592538 v -2.932739 l -1.06191,0.28123 v 2.651509 c 0,0.325609 -0.29355,0.529004 -0.53487,0.53095 -0.23116,0.002 -0.52672,-0.202333 -0.52672,-0.53095 V 70.78033 h -3.18474 v 2.651502 c 0,2.229511 1.85066,3.7157 3.7157,3.7157 1.85949,0 3.7157,-1.464998 3.7157,-3.7157 z"
             style="color:#000000;font-style:normal;font-variant:normal;font-weight:normal;font-stretch:normal;font-size:medium;line-height:normal;font-family:sans-serif;font-variant-ligatures:normal;font-variant-position:normal;font-variant-caps:normal;font-variant-numeric:normal;font-variant-alternates:normal;font-feature-settings:normal;text-indent:0;text-align:start;text-decoration:none;text-decoration-line:none;text-decoration-style:solid;text-decoration-color:#000000;letter-spacing:normal;word-spacing:normal;text-transform:none;writing-mode:lr-tb;direction:ltr;text-orientation:mixed;dominant-baseline:auto;baseline-shift:baseline;text-anchor:start;white-space:normal;shape-padding:0;clip-rule:nonzero;display:inline;overflow:visible;visibility:visible;opacity:1;isolation:auto;mix-blend-mode:normal;color-interpolation:sRGB;color-interpolation-filters:linearRGB;solid-color:#000000;solid-opacity:1;vector-effect:none;fill:#66ced6;fill-opacity:1;fill-rule:nonzero;stroke:none;stroke-width:12.22534466;stroke-linecap:butt;stroke-linejoin:miter;stroke-miterlimit:4;stroke-dasharray:none;stroke-dashoffset:0;stroke-opacity:1;color-rendering:auto;image-rendering:auto;shape-rendering:auto;text-rendering:auto;enable-background:accumulate" />
        </g>
      </g>
    </pattern>
    <pattern
       patternUnits="userSpaceOnUse"
       width="34.140519"
       height="34.140519"
       patternTransform="matrix(0.26458333,0,0,0.26458333,108.52309,89.537292)"
       id="pattern5378">
      <g
         id="g5373"
         transform="matrix(3.7795276,0,0,3.7795276,-410.166,-338.40866)">
        <rect
           style="display:inline;opacity:1;fill:none;fill-opacity:1;fill-rule:nonzero;stroke:none;stroke-width:1;stroke-linecap:butt;stroke-linejoin:miter;stroke-miterlimit:4;stroke-dasharray:none;stroke-dashoffset:0;stroke-opacity:1;paint-order:normal"
           id="rect4690-7-0"
           width="9.0330124"
           height="9.0330124"
           x="108.52309"
           y="89.537292" />
        <g
           style="display:inline;fill:#000000;stroke-width:1.92525113"
           id="g4589-7-5"
           transform="matrix(0.51941275,0,0,0.51941275,52.261379,53.628073)">
          <path
             sodipodi:nodetypes="ccsssccscsccscsccsssc"
             inkscape:connector-curvature="0"
             id="path4821-5-96-8"
             d="m 117.68498,78.404999 0.28649,1.06148 3.21551,7.1e-5 c 1.67438,3.7e-5 2.65412,1.339828 2.65412,2.65412 0,1.308741 -1.00832,2.65412 -2.65412,2.65412 h -1.58985 v -1.061585 h 1.58985 c 0.92979,0 1.5992,-0.773513 1.59254,-1.596781 -0.007,-0.813104 -0.66382,-1.588292 -1.59254,-1.588292 l -2.93274,-5e-6 0.28123,1.061913 h 2.65151 c 0.32561,0 0.52901,0.293553 0.53095,0.534873 0.002,0.231159 -0.20233,0.52671 -0.53095,0.52671 h -2.6515 v 3.184747 h 2.6515 c 2.22951,0 3.7157,-1.850659 3.7157,-3.715702 0,-1.859491 -1.465,-3.715701 -3.7157,-3.715701 z"
             style="color:#000000;font-style:normal;font-variant:normal;font-weight:normal;font-stretch:normal;font-size:medium;line-height:normal;font-family:sans-serif;font-variant-ligatures:normal;font-variant-position:normal;font-variant-caps:normal;font-variant-numeric:normal;font-variant-alternates:normal;font-feature-settings:normal;text-indent:0;text-align:start;text-decoration:none;text-decoration-line:none;text-decoration-style:solid;text-decoration-color:#000000;letter-spacing:normal;word-spacing:normal;text-transform:none;writing-mode:lr-tb;direction:ltr;text-orientation:mixed;dominant-baseline:auto;baseline-shift:baseline;text-anchor:start;white-space:normal;shape-padding:0;clip-rule:nonzero;display:inline;overflow:visible;visibility:visible;opacity:1;isolation:auto;mix-blend-mode:normal;color-interpolation:sRGB;color-interpolation-filters:linearRGB;solid-color:#000000;solid-opacity:1;vector-effect:none;fill:#000000;fill-opacity:1;fill-rule:nonzero;stroke:none;stroke-width:12.22534466;stroke-linecap:butt;stroke-linejoin:miter;stroke-miterlimit:4;stroke-dasharray:none;stroke-dashoffset:0;stroke-opacity:1;color-rendering:auto;image-rendering:auto;shape-rendering:auto;text-rendering:auto;enable-background:accumulate" />
          <path
             sodipodi:nodetypes="ccsssccscsccscsccsssc"
             inkscape:connector-curvature="0"
             id="path4821-5-9-0-77"
             d="m 109.12399,85.72952 1.06148,-0.286489 7e-5,-3.215515 c 4e-5,-1.674383 1.33983,-2.654119 2.65412,-2.654119 1.30875,0 2.65412,1.008324 2.65412,2.654119 v 1.589854 h -1.06158 v -1.589854 c 0,-0.929785 -0.77351,-1.599198 -1.59678,-1.592538 -0.8131,0.0066 -1.58829,0.663815 -1.58829,1.592538 l -1e-5,2.932738 1.06191,-0.28123 v -2.651508 c 0,-0.325609 0.29356,-0.529004 0.53488,-0.53095 0.23116,-0.002 0.52671,0.202333 0.52671,0.53095 v 2.651502 h 3.18474 v -2.651502 c 0,-2.229512 -1.85066,-3.7157 -3.7157,-3.7157 -1.85949,0 -3.7157,1.464998 -3.7157,3.7157 z"
             style="color:#000000;font-style:normal;font-variant:normal;font-weight:normal;font-stretch:normal;font-size:medium;line-height:normal;font-family:sans-serif;font-variant-ligatures:normal;font-variant-position:normal;font-variant-caps:normal;font-variant-numeric:normal;font-variant-alternates:normal;font-feature-settings:normal;text-indent:0;text-align:start;text-decoration:none;text-decoration-line:none;text-decoration-style:solid;text-decoration-color:#000000;letter-spacing:normal;word-spacing:normal;text-transform:none;writing-mode:lr-tb;direction:ltr;text-orientation:mixed;dominant-baseline:auto;baseline-shift:baseline;text-anchor:start;white-space:normal;shape-padding:0;clip-rule:nonzero;display:inline;overflow:visible;visibility:visible;opacity:1;isolation:auto;mix-blend-mode:normal;color-interpolation:sRGB;color-interpolation-filters:linearRGB;solid-color:#000000;solid-opacity:1;vector-effect:none;fill:#000000;fill-opacity:1;fill-rule:nonzero;stroke:none;stroke-width:12.22534466;stroke-linecap:butt;stroke-linejoin:miter;stroke-miterlimit:4;stroke-dasharray:none;stroke-dashoffset:0;stroke-opacity:1;color-rendering:auto;image-rendering:auto;shape-rendering:auto;text-rendering:auto;enable-background:accumulate" />
          <path
             sodipodi:nodetypes="ccsssccscsccscsccsssc"
             inkscape:connector-curvature="0"
             id="path4821-5-8-1-1"
             d="m 116.34167,77.254349 -0.28649,-1.061481 -3.21552,-7.1e-5 c -1.67438,-3.6e-5 -2.65412,-1.339828 -2.65412,-2.65412 0,-1.30874 1.00833,-2.654119 2.65412,-2.654119 h 1.58986 v 1.061585 h -1.58986 c -0.92978,0 -1.5992,0.773513 -1.59254,1.596781 0.007,0.813103 0.66382,1.588292 1.59254,1.588292 l 2.93274,5e-6 -0.28123,-1.061913 h -2.65151 c -0.32561,0 -0.529,-0.293554 -0.53095,-0.534873 -0.002,-0.231159 0.20233,-0.52671 0.53095,-0.52671 h 2.6515 v -3.184747 h -2.6515 c -2.22951,0 -3.7157,1.850659 -3.7157,3.715701 0,1.859492 1.465,3.715702 3.7157,3.715702 z"
             style="color:#000000;font-style:normal;font-variant:normal;font-weight:normal;font-stretch:normal;font-size:medium;line-height:normal;font-family:sans-serif;font-variant-ligatures:normal;font-variant-position:normal;font-variant-caps:normal;font-variant-numeric:normal;font-variant-alternates:normal;font-feature-settings:normal;text-indent:0;text-align:start;text-decoration:none;text-decoration-line:none;text-decoration-style:solid;text-decoration-color:#000000;letter-spacing:normal;word-spacing:normal;text-transform:none;writing-mode:lr-tb;direction:ltr;text-orientation:mixed;dominant-baseline:auto;baseline-shift:baseline;text-anchor:start;white-space:normal;shape-padding:0;clip-rule:nonzero;display:inline;overflow:visible;visibility:visible;opacity:1;isolation:auto;mix-blend-mode:normal;color-interpolation:sRGB;color-interpolation-filters:linearRGB;solid-color:#000000;solid-opacity:1;vector-effect:none;fill:#000000;fill-opacity:1;fill-rule:nonzero;stroke:none;stroke-width:12.22534466;stroke-linecap:butt;stroke-linejoin:miter;stroke-miterlimit:4;stroke-dasharray:none;stroke-dashoffset:0;stroke-opacity:1;color-rendering:auto;image-rendering:auto;shape-rendering:auto;text-rendering:auto;enable-background:accumulate" />
          <path
             sodipodi:nodetypes="ccsssccscsccscsccsssc"
             inkscape:connector-curvature="0"
             id="path4821-5-9-5-2-8"
             d="m 124.90265,69.929827 -1.06148,0.286489 -7e-5,3.215516 c -4e-5,1.674383 -1.33983,2.654119 -2.65412,2.654119 -1.30874,0 -2.65412,-1.008324 -2.65412,-2.654119 v -1.589855 h 1.06158 v 1.589855 c 0,0.929785 0.77351,1.599198 1.59678,1.592538 0.81311,-0.0066 1.5883,-0.663816 1.5883,-1.592538 v -2.932739 l -1.06191,0.28123 v 2.651509 c 0,0.325609 -0.29355,0.529004 -0.53487,0.53095 -0.23116,0.002 -0.52672,-0.202333 -0.52672,-0.53095 V 70.78033 h -3.18474 v 2.651502 c 0,2.229511 1.85066,3.7157 3.7157,3.7157 1.85949,0 3.7157,-1.464998 3.7157,-3.7157 z"
             style="color:#000000;font-style:normal;font-variant:normal;font-weight:normal;font-stretch:normal;font-size:medium;line-height:normal;font-family:sans-serif;font-variant-ligatures:normal;font-variant-position:normal;font-variant-caps:normal;font-variant-numeric:normal;font-variant-alternates:normal;font-feature-settings:normal;text-indent:0;text-align:start;text-decoration:none;text-decoration-line:none;text-decoration-style:solid;text-decoration-color:#000000;letter-spacing:normal;word-spacing:normal;text-transform:none;writing-mode:lr-tb;direction:ltr;text-orientation:mixed;dominant-baseline:auto;baseline-shift:baseline;text-anchor:start;white-space:normal;shape-padding:0;clip-rule:nonzero;display:inline;overflow:visible;visibility:visible;opacity:1;isolation:auto;mix-blend-mode:normal;color-interpolation:sRGB;color-interpolation-filters:linearRGB;solid-color:#000000;solid-opacity:1;vector-effect:none;fill:#000000;fill-opacity:1;fill-rule:nonzero;stroke:none;stroke-width:12.22534466;stroke-linecap:butt;stroke-linejoin:miter;stroke-miterlimit:4;stroke-dasharray:none;stroke-dashoffset:0;stroke-opacity:1;color-rendering:auto;image-rendering:auto;shape-rendering:auto;text-rendering:auto;enable-background:accumulate" />
        </g>
      </g>
    </pattern>
    <pattern
       patternUnits="userSpaceOnUse"
       width="34.140519"
       height="34.140519"
       patternTransform="matrix(0.26458333,0,0,0.26458333,118.89388,90.284058)"
       id="pattern4618">
      <rect
         inkscape:export-ydpi="5623.8198"
         inkscape:export-xdpi="5623.8198"
         inkscape:export-filename="C:\Evan\Derek Prince\Logo\Presentation\Resources\g4589-7-2.png"
         y="0"
         x="0"
         height="34.140518"
         width="34.140518"
         id="rect4690-7-06-2"
         style="display:inline;opacity:1;fill:none;fill-opacity:1;fill-rule:nonzero;stroke:none;stroke-width:3.77952766;stroke-linecap:butt;stroke-linejoin:miter;stroke-miterlimit:4;stroke-dasharray:none;stroke-dashoffset:0;stroke-opacity:1;paint-order:normal" />
      <g
         inkscape:export-ydpi="5623.8198"
         inkscape:export-xdpi="5623.8198"
         inkscape:export-filename="C:\Evan\Derek Prince\Logo\Presentation\Resources\g4589-7-2.png"
         transform="matrix(1.9631348,0,0,1.9631348,-212.64264,-135.71987)"
         id="g4589-7-2-4"
         style="display:inline;fill:#0f4c81;fill-opacity:1;stroke-width:1.92525113">
        <path
           style="color:#000000;font-style:normal;font-variant:normal;font-weight:normal;font-stretch:normal;font-size:medium;line-height:normal;font-family:sans-serif;font-variant-ligatures:normal;font-variant-position:normal;font-variant-caps:normal;font-variant-numeric:normal;font-variant-alternates:normal;font-feature-settings:normal;text-indent:0;text-align:start;text-decoration:none;text-decoration-line:none;text-decoration-style:solid;text-decoration-color:#000000;letter-spacing:normal;word-spacing:normal;text-transform:none;writing-mode:lr-tb;direction:ltr;text-orientation:mixed;dominant-baseline:auto;baseline-shift:baseline;text-anchor:start;white-space:normal;shape-padding:0;clip-rule:nonzero;display:inline;overflow:visible;visibility:visible;opacity:1;isolation:auto;mix-blend-mode:normal;color-interpolation:sRGB;color-interpolation-filters:linearRGB;solid-color:#000000;solid-opacity:1;vector-effect:none;fill:#0f4c81;fill-opacity:1;fill-rule:nonzero;stroke:none;stroke-width:12.22534466;stroke-linecap:butt;stroke-linejoin:miter;stroke-miterlimit:4;stroke-dasharray:none;stroke-dashoffset:0;stroke-opacity:1;color-rendering:auto;image-rendering:auto;shape-rendering:auto;text-rendering:auto;enable-background:accumulate"
           d="m 117.68498,78.404999 0.28649,1.06148 3.21551,7.1e-5 c 1.67438,3.7e-5 2.65412,1.339828 2.65412,2.65412 0,1.308741 -1.00832,2.65412 -2.65412,2.65412 h -1.58985 v -1.061585 h 1.58985 c 0.92979,0 1.5992,-0.773513 1.59254,-1.596781 -0.007,-0.813104 -0.66382,-1.588292 -1.59254,-1.588292 l -2.93274,-5e-6 0.28123,1.061913 h 2.65151 c 0.32561,0 0.52901,0.293553 0.53095,0.534873 0.002,0.231159 -0.20233,0.52671 -0.53095,0.52671 h -2.6515 v 3.184747 h 2.6515 c 2.22951,0 3.7157,-1.850659 3.7157,-3.715702 0,-1.859491 -1.465,-3.715701 -3.7157,-3.715701 z"
           id="path4821-5-96-59-2"
           inkscape:connector-curvature="0"
           sodipodi:nodetypes="ccsssccscsccscsccsssc" />
        <path
           style="color:#000000;font-style:normal;font-variant:normal;font-weight:normal;font-stretch:normal;font-size:medium;line-height:normal;font-family:sans-serif;font-variant-ligatures:normal;font-variant-position:normal;font-variant-caps:normal;font-variant-numeric:normal;font-variant-alternates:normal;font-feature-settings:normal;text-indent:0;text-align:start;text-decoration:none;text-decoration-line:none;text-decoration-style:solid;text-decoration-color:#000000;letter-spacing:normal;word-spacing:normal;text-transform:none;writing-mode:lr-tb;direction:ltr;text-orientation:mixed;dominant-baseline:auto;baseline-shift:baseline;text-anchor:start;white-space:normal;shape-padding:0;clip-rule:nonzero;display:inline;overflow:visible;visibility:visible;opacity:1;isolation:auto;mix-blend-mode:normal;color-interpolation:sRGB;color-interpolation-filters:linearRGB;solid-color:#000000;solid-opacity:1;vector-effect:none;fill:#0f4c81;fill-opacity:1;fill-rule:nonzero;stroke:none;stroke-width:12.22534466;stroke-linecap:butt;stroke-linejoin:miter;stroke-miterlimit:4;stroke-dasharray:none;stroke-dashoffset:0;stroke-opacity:1;color-rendering:auto;image-rendering:auto;shape-rendering:auto;text-rendering:auto;enable-background:accumulate"
           d="m 109.12399,85.72952 1.06148,-0.286489 7e-5,-3.215515 c 4e-5,-1.674383 1.33983,-2.654119 2.65412,-2.654119 1.30875,0 2.65412,1.008324 2.65412,2.654119 v 1.589854 h -1.06158 v -1.589854 c 0,-0.929785 -0.77351,-1.599198 -1.59678,-1.592538 -0.8131,0.0066 -1.58829,0.663815 -1.58829,1.592538 l -1e-5,2.932738 1.06191,-0.28123 v -2.651508 c 0,-0.325609 0.29356,-0.529004 0.53488,-0.53095 0.23116,-0.002 0.52671,0.202333 0.52671,0.53095 v 2.651502 h 3.18474 v -2.651502 c 0,-2.229512 -1.85066,-3.7157 -3.7157,-3.7157 -1.85949,0 -3.7157,1.464998 -3.7157,3.7157 z"
           id="path4821-5-9-0-9-6"
           inkscape:connector-curvature="0"
           sodipodi:nodetypes="ccsssccscsccscsccsssc" />
        <path
           style="color:#000000;font-style:normal;font-variant:normal;font-weight:normal;font-stretch:normal;font-size:medium;line-height:normal;font-family:sans-serif;font-variant-ligatures:normal;font-variant-position:normal;font-variant-caps:normal;font-variant-numeric:normal;font-variant-alternates:normal;font-feature-settings:normal;text-indent:0;text-align:start;text-decoration:none;text-decoration-line:none;text-decoration-style:solid;text-decoration-color:#000000;letter-spacing:normal;word-spacing:normal;text-transform:none;writing-mode:lr-tb;direction:ltr;text-orientation:mixed;dominant-baseline:auto;baseline-shift:baseline;text-anchor:start;white-space:normal;shape-padding:0;clip-rule:nonzero;display:inline;overflow:visible;visibility:visible;opacity:1;isolation:auto;mix-blend-mode:normal;color-interpolation:sRGB;color-interpolation-filters:linearRGB;solid-color:#000000;solid-opacity:1;vector-effect:none;fill:#0f4c81;fill-opacity:1;fill-rule:nonzero;stroke:none;stroke-width:12.22534466;stroke-linecap:butt;stroke-linejoin:miter;stroke-miterlimit:4;stroke-dasharray:none;stroke-dashoffset:0;stroke-opacity:1;color-rendering:auto;image-rendering:auto;shape-rendering:auto;text-rendering:auto;enable-background:accumulate"
           d="m 116.34167,77.254349 -0.28649,-1.061481 -3.21552,-7.1e-5 c -1.67438,-3.6e-5 -2.65412,-1.339828 -2.65412,-2.65412 0,-1.30874 1.00833,-2.654119 2.65412,-2.654119 h 1.58986 v 1.061585 h -1.58986 c -0.92978,0 -1.5992,0.773513 -1.59254,1.596781 0.007,0.813103 0.66382,1.588292 1.59254,1.588292 l 2.93274,5e-6 -0.28123,-1.061913 h -2.65151 c -0.32561,0 -0.529,-0.293554 -0.53095,-0.534873 -0.002,-0.231159 0.20233,-0.52671 0.53095,-0.52671 h 2.6515 v -3.184747 h -2.6515 c -2.22951,0 -3.7157,1.850659 -3.7157,3.715701 0,1.859492 1.465,3.715702 3.7157,3.715702 z"
           id="path4821-5-8-1-9-4"
           inkscape:connector-curvature="0"
           sodipodi:nodetypes="ccsssccscsccscsccsssc" />
        <path
           style="color:#000000;font-style:normal;font-variant:normal;font-weight:normal;font-stretch:normal;font-size:medium;line-height:normal;font-family:sans-serif;font-variant-ligatures:normal;font-variant-position:normal;font-variant-caps:normal;font-variant-numeric:normal;font-variant-alternates:normal;font-feature-settings:normal;text-indent:0;text-align:start;text-decoration:none;text-decoration-line:none;text-decoration-style:solid;text-decoration-color:#000000;letter-spacing:normal;word-spacing:normal;text-transform:none;writing-mode:lr-tb;direction:ltr;text-orientation:mixed;dominant-baseline:auto;baseline-shift:baseline;text-anchor:start;white-space:normal;shape-padding:0;clip-rule:nonzero;display:inline;overflow:visible;visibility:visible;opacity:1;isolation:auto;mix-blend-mode:normal;color-interpolation:sRGB;color-interpolation-filters:linearRGB;solid-color:#000000;solid-opacity:1;vector-effect:none;fill:#0f4c81;fill-opacity:1;fill-rule:nonzero;stroke:none;stroke-width:12.22534466;stroke-linecap:butt;stroke-linejoin:miter;stroke-miterlimit:4;stroke-dasharray:none;stroke-dashoffset:0;stroke-opacity:1;color-rendering:auto;image-rendering:auto;shape-rendering:auto;text-rendering:auto;enable-background:accumulate"
           d="m 124.90265,69.929827 -1.06148,0.286489 -7e-5,3.215516 c -4e-5,1.674383 -1.33983,2.654119 -2.65412,2.654119 -1.30874,0 -2.65412,-1.008324 -2.65412,-2.654119 v -1.589855 h 1.06158 v 1.589855 c 0,0.929785 0.77351,1.599198 1.59678,1.592538 0.81311,-0.0066 1.5883,-0.663816 1.5883,-1.592538 v -2.932739 l -1.06191,0.28123 v 2.651509 c 0,0.325609 -0.29355,0.529004 -0.53487,0.53095 -0.23116,0.002 -0.52672,-0.202333 -0.52672,-0.53095 V 70.78033 h -3.18474 v 2.651502 c 0,2.229511 1.85066,3.7157 3.7157,3.7157 1.85949,0 3.7157,-1.464998 3.7157,-3.7157 z"
           id="path4821-5-9-5-2-2-4"
           inkscape:connector-curvature="0"
           sodipodi:nodetypes="ccsssccscsccscsccsssc" />
      </g>
    </pattern>
  </defs>
  <sodipodi:namedview
     id="base"
     pagecolor="#ffffff"
     bordercolor="#666666"
     borderopacity="1.0"
     inkscape:pageopacity="0.0"
     inkscape:pageshadow="2"
     inkscape:zoom="1.050338"
     inkscape:cx="-187.83283"
     inkscape:cy="176.90083"
     inkscape:document-units="mm"
     inkscape:current-layer="g4823"
     showgrid="false"
     inkscape:window-width="1920"
     inkscape:window-height="1017"
     inkscape:window-x="1039"
     inkscape:window-y="1072"
     inkscape:window-maximized="1"
     inkscape:document-rotation="0" />
  <metadata
     id="metadata5">
    <rdf:RDF>
      <cc:Work
         rdf:about="">
        <dc:format>image/svg+xml</dc:format>
        <dc:type
           rdf:resource="http://purl.org/dc/dcmitype/StillImage" />
        <dc:title></dc:title>
      </cc:Work>
    </rdf:RDF>
  </metadata>
  <g
     transform="translate(-95.955907,-120.00781)"
     style="display:inline"
     inkscape:label="Icon"
     id="g4823"
     inkscape:groupmode="layer">
    <path
       style="color:#000000;font-style:normal;font-variant:normal;font-weight:normal;font-stretch:normal;font-size:medium;line-height:normal;font-family:sans-serif;font-variant-ligatures:normal;font-variant-position:normal;font-variant-caps:normal;font-variant-numeric:normal;font-variant-alternates:normal;font-feature-settings:normal;text-indent:0;text-align:start;text-decoration:none;text-decoration-line:none;text-decoration-style:solid;text-decoration-color:#000000;letter-spacing:normal;word-spacing:normal;text-transform:none;writing-mode:lr-tb;direction:ltr;text-orientation:mixed;dominant-baseline:auto;baseline-shift:baseline;text-anchor:start;white-space:normal;shape-padding:0;clip-rule:nonzero;display:inline;overflow:visible;visibility:visible;opacity:1;isolation:auto;mix-blend-mode:normal;color-interpolation:sRGB;color-interpolation-filters:linearRGB;solid-color:#000000;solid-opacity:1;vector-effect:none;fill:#ffffff;fill-opacity:1;fill-rule:nonzero;stroke:none;stroke-width:6.35;stroke-linecap:butt;stroke-linejoin:miter;stroke-miterlimit:4;stroke-dasharray:none;stroke-dashoffset:0;stroke-opacity:1;color-rendering:auto;image-rendering:auto;shape-rendering:auto;text-rendering:auto;enable-background:accumulate"
       d="m 95.955907,120.008 1.713582,6.349 19.232851,4.2e-4 c 10.01493,2.2e-4 15.875,8.01387 15.875,15.875 0,7.82794 -6.03105,15.875 -15.875,15.875 H 107.393 v -6.34961 h 9.50934 c 5.56129,0 9.56525,-4.62659 9.52539,-9.55078 -0.0393,-4.86339 -3.97043,-9.5 -9.52539,-9.5 l -17.54148,-3e-5 1.68211,6.35159 h 15.85937 c 1.94757,0 3.16411,1.75582 3.17578,3.19922 0.0112,1.38262 -1.21023,3.15039 -3.17578,3.15039 H 101.043 v 19.04883 h 15.85934 c 13.33532,0 22.22461,-11.06929 22.22461,-22.22461 0,-11.12212 -8.76257,-22.22461 -22.22461,-22.22461 z"
       id="path4821"
       inkscape:connector-curvature="0"
       sodipodi:nodetypes="ccsssccscsccscsccsssc" />
  </g>
</svg>
