<?xml version="1.0" encoding="UTF-8" standalone="no"?>
<svg
   xmlns:dc="http://purl.org/dc/elements/1.1/"
   xmlns:cc="http://creativecommons.org/ns#"
   xmlns:rdf="http://www.w3.org/1999/02/22-rdf-syntax-ns#"
   xmlns:svg="http://www.w3.org/2000/svg"
   xmlns="http://www.w3.org/2000/svg"
   xmlns:sodipodi="http://sodipodi.sourceforge.net/DTD/sodipodi-0.dtd"
   xmlns:inkscape="http://www.inkscape.org/namespaces/inkscape"
   inkscape:version="1.0 (4035a4fb49, 2020-05-01)"
   sodipodi:docname="social_twitter_01_black.svg"
   viewBox="0 0 133.33333 133.33333"
   height="133.33333"
   width="133.33333"
   id="svg896"
   version="1.1">
  <metadata
     id="metadata902">
    <rdf:RDF>
      <cc:Work
         rdf:about="">
        <dc:format>image/svg+xml</dc:format>
        <dc:type
           rdf:resource="http://purl.org/dc/dcmitype/StillImage" />
        <dc:title></dc:title>
      </cc:Work>
    </rdf:RDF>
  </metadata>
  <defs
     id="defs900" />
  <sodipodi:namedview
     inkscape:current-layer="g2059"
     inkscape:window-maximized="1"
     inkscape:window-y="1072"
     inkscape:window-x="-8"
     inkscape:cy="55.118531"
     inkscape:cx="32.667233"
     inkscape:zoom="4.38583"
     showgrid="false"
     id="namedview898"
     inkscape:window-height="1017"
     inkscape:window-width="1920"
     inkscape:pageshadow="2"
     inkscape:pageopacity="0"
     guidetolerance="10"
     gridtolerance="10"
     objecttolerance="10"
     borderopacity="1"
     bordercolor="#666666"
     pagecolor="#ffffff"
     inkscape:document-rotation="0" />
  <g
     style="display:inline"
     inkscape:label="Twitter"
     id="g2059"
     inkscape:groupmode="layer">
    <path
       style="color:#000000;font-style:normal;font-variant:normal;font-weight:normal;font-stretch:normal;font-size:medium;line-height:normal;font-family:sans-serif;font-variant-ligatures:normal;font-variant-position:normal;font-variant-caps:normal;font-variant-numeric:normal;font-variant-alternates:normal;font-variant-east-asian:normal;font-feature-settings:normal;font-variation-settings:normal;text-indent:0;text-align:start;text-decoration:none;text-decoration-line:none;text-decoration-style:solid;text-decoration-color:#000000;letter-spacing:normal;word-spacing:normal;text-transform:none;writing-mode:lr-tb;direction:ltr;text-orientation:mixed;dominant-baseline:auto;baseline-shift:baseline;text-anchor:start;white-space:normal;shape-padding:0;shape-margin:0;inline-size:0;clip-rule:nonzero;display:inline;overflow:visible;visibility:visible;opacity:1;isolation:auto;mix-blend-mode:normal;color-interpolation:sRGB;color-interpolation-filters:linearRGB;solid-color:#000000;solid-opacity:1;vector-effect:none;fill:#000000;fill-opacity:1;fill-rule:nonzero;stroke:none;stroke-width:3.89174;stroke-linecap:butt;stroke-linejoin:round;stroke-miterlimit:4;stroke-dasharray:none;stroke-dashoffset:0;stroke-opacity:1;color-rendering:auto;image-rendering:auto;shape-rendering:auto;text-rendering:auto;enable-background:accumulate;stop-color:#000000;stop-opacity:1"
       d="M 66.666016,2.9824219 C 31.346653,2.9824222 2.6640628,31.51128 2.6640625,66.666016 c 0,35.154734 28.6825895,63.685544 64.0019535,63.685544 35.319364,0 64.003904,-28.53081 64.003904,-63.685544 0,-35.154737 -28.68454,-63.6835958 -64.003904,-63.6835941 z m 0,3.890625 c 33.226877,-1.6e-6 60.111324,26.7523051 60.111324,59.7929691 0,33.040664 -26.884447,59.794924 -60.111324,59.794924 C 33.43914,126.46094 6.5546875,99.706678 6.5546875,66.666016 6.5546878,33.625353 33.43914,6.8730472 66.666016,6.8730469 Z"
       id="path2057" />
    <path
       style="stroke-width:1.42345"
       d="m 102.33897,44.539329 c -2.630037,1.167667 -5.449126,1.951673 -8.412778,2.307534 3.024815,-1.812669 5.349029,-4.681799 6.438858,-8.095844 -2.824643,1.67366 -5.966234,2.891376 -9.296872,3.547497 -2.668959,-2.84689 -6.472225,-4.620639 -10.681396,-4.620639 -8.084721,0 -14.640352,6.55007 -14.640352,14.63479 0,1.145434 0.133447,2.263054 0.383662,3.336203 -12.166006,-0.611641 -22.94749,-6.438865 -30.170361,-15.296476 -1.262195,2.168531 -1.979476,4.6818 -1.979476,7.361882 0,5.076581 2.579993,9.558209 6.511146,12.188247 -2.402063,-0.07785 -4.659556,-0.739527 -6.633473,-1.834908 0,0.06118 0,0.122328 0,0.183488 0,7.094985 5.04878,13.005617 11.737859,14.356778 -1.223273,0.333622 -2.51883,0.511553 -3.85331,0.511553 -0.945257,0 -1.862711,-0.08896 -2.757924,-0.266896 1.868272,5.810542 7.272914,10.053079 13.672854,10.169842 -5.004298,3.925598 -11.315273,6.260936 -18.176723,6.260936 -1.184354,0 -2.346461,-0.06672 -3.486328,-0.205736 6.472225,4.159129 14.167725,6.577872 22.435939,6.577872 26.923125,0 41.646887,-22.302485 41.646887,-41.641321 0,-0.63388 -0.01666,-1.273319 -0.03892,-1.896076 2.857996,-2.062884 5.337908,-4.642877 7.300698,-7.578726 z"
       id="path863" />
  </g>
</svg>
