<?xml version="1.0" encoding="UTF-8" standalone="no"?>
<svg
   xmlns:dc="http://purl.org/dc/elements/1.1/"
   xmlns:cc="http://creativecommons.org/ns#"
   xmlns:rdf="http://www.w3.org/1999/02/22-rdf-syntax-ns#"
   xmlns:svg="http://www.w3.org/2000/svg"
   xmlns="http://www.w3.org/2000/svg"
   xmlns:sodipodi="http://sodipodi.sourceforge.net/DTD/sodipodi-0.dtd"
   xmlns:inkscape="http://www.inkscape.org/namespaces/inkscape"
   version="1.1"
   id="svg896"
   width="133.33333"
   height="133.33333"
   viewBox="0 0 133.33333 133.33333"
   sodipodi:docname="social_pinterest_01_black.svg"
   inkscape:version="1.0 (4035a4fb49, 2020-05-01)">
  <metadata
     id="metadata902">
    <rdf:RDF>
      <cc:Work
         rdf:about="">
        <dc:format>image/svg+xml</dc:format>
        <dc:type
           rdf:resource="http://purl.org/dc/dcmitype/StillImage" />
        <dc:title></dc:title>
      </cc:Work>
    </rdf:RDF>
  </metadata>
  <defs
     id="defs900" />
  <sodipodi:namedview
     inkscape:document-rotation="0"
     pagecolor="#ffffff"
     bordercolor="#666666"
     borderopacity="1"
     objecttolerance="10"
     gridtolerance="10"
     guidetolerance="10"
     inkscape:pageopacity="0"
     inkscape:pageshadow="2"
     inkscape:window-width="1920"
     inkscape:window-height="1017"
     id="namedview898"
     showgrid="false"
     inkscape:zoom="6.2025003"
     inkscape:cx="60.522224"
     inkscape:cy="64.309788"
     inkscape:window-x="1039"
     inkscape:window-y="1072"
     inkscape:window-maximized="1"
     inkscape:current-layer="g929" />
  <g
     inkscape:groupmode="layer"
     id="g929"
     inkscape:label="Pinterest"
     style="display:inline">
    <path
       id="path915"
       d="M 66.666016,2.9824219 C 31.346653,2.9824222 2.6640628,31.51128 2.6640625,66.666016 c 0,35.154734 28.6825895,63.685544 64.0019535,63.685544 35.319364,0 64.003904,-28.53081 64.003904,-63.685544 0,-35.154737 -28.68454,-63.6835958 -64.003904,-63.6835941 z m 0,3.890625 c 33.226877,-1.6e-6 60.111324,26.7523051 60.111324,59.7929691 0,33.040664 -26.884447,59.794924 -60.111324,59.794924 C 33.43914,126.46094 6.5546875,99.706678 6.5546875,66.666016 6.5546878,33.625353 33.43914,6.8730472 66.666016,6.8730469 Z"
       style="color:#000000;font-style:normal;font-variant:normal;font-weight:normal;font-stretch:normal;font-size:medium;line-height:normal;font-family:sans-serif;font-variant-ligatures:normal;font-variant-position:normal;font-variant-caps:normal;font-variant-numeric:normal;font-variant-alternates:normal;font-variant-east-asian:normal;font-feature-settings:normal;font-variation-settings:normal;text-indent:0;text-align:start;text-decoration:none;text-decoration-line:none;text-decoration-style:solid;text-decoration-color:#000000;letter-spacing:normal;word-spacing:normal;text-transform:none;writing-mode:lr-tb;direction:ltr;text-orientation:mixed;dominant-baseline:auto;baseline-shift:baseline;text-anchor:start;white-space:normal;shape-padding:0;shape-margin:0;inline-size:0;clip-rule:nonzero;display:inline;overflow:visible;visibility:visible;opacity:1;isolation:auto;mix-blend-mode:normal;color-interpolation:sRGB;color-interpolation-filters:linearRGB;solid-color:#000000;solid-opacity:1;vector-effect:none;fill:#000000;fill-opacity:1;fill-rule:nonzero;stroke:none;stroke-width:3.89174;stroke-linecap:butt;stroke-linejoin:round;stroke-miterlimit:4;stroke-dasharray:none;stroke-dashoffset:0;stroke-opacity:1;color-rendering:auto;image-rendering:auto;shape-rendering:auto;text-rendering:auto;enable-background:accumulate;stop-color:#000000;stop-opacity:1" />
    <path
       style="stroke-width:2.58278"
       d="m 68.198301,34.333956 c -13.093822,0 -26.032257,8.751014 -26.032257,22.91991 0,9.00882 5.051023,14.12982 8.114932,14.12982 1.263733,0 1.994731,-3.533041 1.994731,-4.531441 0,-1.189793 -3.027358,-3.725789 -3.027358,-8.678948 0,-10.289138 7.810039,-17.580192 17.917324,-17.580192 8.691388,0 15.121681,4.949656 15.121681,14.04899 0,6.794769 -2.72025,19.540281 -11.525117,19.540281 -3.177386,0 -5.893528,-2.302033 -5.893528,-5.602423 0,-4.836778 3.087806,-9.521786 3.087806,-14.513754 0,-8.473406 -11.701418,-6.936131 -11.701418,3.303863 0,2.149385 0.267213,4.528496 1.224039,6.486477 -1.75891,7.601755 -4.996903,19.717857 -4.996903,27.552398 0,2.41838 0.344705,4.79802 0.57424,7.21899 0.43328,0.48627 0.218703,0.4351 0.88151,0.19197 6.432144,-8.830344 5.835417,-11.348234 8.744582,-22.90476 1.57064,2.995179 5.629255,4.607228 8.845327,4.607228 13.552892,-10e-6 19.640046,-13.246252 19.640046,-25.188168 0,-12.707531 -10.948699,-21.000241 -22.969637,-21.000241 z"
       id="path941" />
  </g>
</svg>
