<?xml version="1.0" encoding="UTF-8" standalone="no"?>
<svg
   xmlns:dc="http://purl.org/dc/elements/1.1/"
   xmlns:cc="http://creativecommons.org/ns#"
   xmlns:rdf="http://www.w3.org/1999/02/22-rdf-syntax-ns#"
   xmlns:svg="http://www.w3.org/2000/svg"
   xmlns="http://www.w3.org/2000/svg"
   xmlns:sodipodi="http://sodipodi.sourceforge.net/DTD/sodipodi-0.dtd"
   xmlns:inkscape="http://www.inkscape.org/namespaces/inkscape"
   inkscape:version="1.0 (4035a4fb49, 2020-05-01)"
   height="662"
   width="662"
   sodipodi:docname="solomon_islands_circle_01.svg"
   version="1.1"
   viewBox="0 0 662 662"
   data-name="Layer 1"
   id="Layer_1">
  <metadata
     id="metadata32">
    <rdf:RDF>
      <cc:Work
         rdf:about="">
        <dc:format>image/svg+xml</dc:format>
        <dc:type
           rdf:resource="http://purl.org/dc/dcmitype/StillImage" />
      </cc:Work>
    </rdf:RDF>
  </metadata>
  <sodipodi:namedview
     inkscape:current-layer="Layer_1"
     inkscape:window-maximized="1"
     inkscape:window-y="1072"
     inkscape:window-x="-8"
     inkscape:cy="331"
     inkscape:cx="331"
     inkscape:zoom="0.69933333"
     showgrid="false"
     id="namedview30"
     inkscape:window-height="1009"
     inkscape:window-width="1920"
     inkscape:pageshadow="2"
     inkscape:pageopacity="0"
     guidetolerance="10"
     gridtolerance="10"
     objecttolerance="10"
     borderopacity="1"
     bordercolor="#666666"
     pagecolor="#ffffff" />
  <defs
     id="defs9">
    <style
       id="style2">.cls-1{fill:none;}.cls-2{clip-path:url(#clip-path);}.cls-3{fill:#ce1126;}.cls-4{fill:#215b33;}.cls-5{fill:#0051ba;}.cls-6{clip-path:url(#clip-path-2);}.cls-7{fill:#fcd116;}.cls-8{fill:#fff;}</style>
    <clipPath
       id="clip-path">
      <circle
         id="circle4"
         r="331"
         cy="500"
         cx="750"
         class="cls-1" />
    </clipPath>
    <clipPath
       id="clip-path-2">
      <rect
         height="692.34003"
         width="1039.91"
         y="163.21001"
         x="215.88"
         class="cls-1"
         data-name="6"
         id="_6" />
    </clipPath>
  </defs>
  <title
     id="title11">Solomon Islands</title>
  <g
     transform="translate(-419,-169)"
     id="g27"
     clip-path="url(#clip-path)"
     class="cls-2">
    <rect
       id="rect13"
       height="693.27002"
       width="1039.91"
       y="163.21001"
       x="215.88"
       class="cls-3" />
    <rect
       height="690.98999"
       width="1039.91"
       y="164.56"
       x="215.88"
       class="cls-4"
       data-name="9"
       id="_9" />
    <path
       d="M 215.88,855.55 V 163.21 h 1039.91"
       class="cls-5"
       data-name="8"
       id="_8" />
    <g
       data-name="Group 1"
       id="Group_1">
      <g
         id="g19"
         clip-path="url(#clip-path-2)"
         class="cls-6">
        <polygon
           id="polygon17"
           points="1244.16,132.25 1267.41,194.17 227.51,886.51 204.25,824.59 "
           class="cls-7" />
      </g>
    </g>
    <polygon
       points="521.9,375.15 514.43,352.17 533.98,337.96 509.81,337.96 502.35,314.97 494.88,337.96 470.71,337.96 490.26,352.17 482.79,375.15 502.35,360.95 "
       class="cls-8"
       data-name="5"
       id="_5" />
    <polygon
       points="653.24,375.15 645.78,352.17 665.33,337.96 641.16,337.96 633.69,314.97 626.22,337.96 602.05,337.96 621.61,352.17 614.14,375.15 633.69,360.95 "
       class="cls-8"
       data-name="4"
       id="_4" />
    <polygon
       points="587.57,431.44 580.1,408.46 599.66,394.25 575.49,394.25 568.02,371.26 560.55,394.25 536.38,394.25 555.93,408.45 548.46,431.44 568.02,417.24 "
       class="cls-8"
       data-name="3"
       id="_3" />
    <polygon
       points="521.9,487.73 514.43,464.74 533.98,450.54 509.81,450.54 502.35,427.55 494.88,450.54 470.71,450.54 490.26,464.74 482.79,487.73 502.35,473.52 "
       class="cls-8"
       data-name="2"
       id="_2" />
    <polygon
       points="653.24,487.73 645.78,464.74 665.33,450.54 641.16,450.54 633.69,427.55 626.22,450.54 602.05,450.54 621.61,464.74 614.14,487.73 633.69,473.52 "
       class="cls-8"
       data-name="1"
       id="_1" />
  </g>
</svg>
